<?xml version="1.0" standalone="no"?><!DOCTYPE svg PUBLIC "-//W3C//DTD SVG 1.1//EN" "http://www.w3.org/Graphics/SVG/1.1/DTD/svg11.dtd"><svg t="1723540231683" class="icon" viewBox="0 0 1024 1024" version="1.1" xmlns="http://www.w3.org/2000/svg" p-id="33592" xmlns:xlink="http://www.w3.org/1999/xlink" width="200" height="200"><path d="M448 160H298.667a32 32 0 0 1 0-64H448a32 32 0 0 1 0 64z m405.333 778.667H170.667A117.547 117.547 0 0 1 53.333 821.333v-512A117.547 117.547 0 0 1 170.667 192h128a32 32 0 0 1 0 64h-128a53.333 53.333 0 0 0-53.334 53.333v512a53.333 53.333 0 0 0 53.334 53.334h682.666a53.333 53.333 0 0 0 53.334-53.334v-512A53.333 53.333 0 0 0 853.333 256H448a32 32 0 0 1 0-64h405.333a117.547 117.547 0 0 1 117.334 117.333v512a117.547 117.547 0 0 1-117.334 117.334z" p-id="33593"></path><path d="M789.333 298.667a64 64 0 1 0 64 64 64 64 0 0 0-64-64zM512 469.333a128 128 0 1 1-128 128 128 128 0 0 1 128-128m0-64a192 192 0 1 0 192 192 192 192 0 0 0-192-192z" p-id="33594"></path></svg>