<?xml version="1.0" standalone="no"?><!DOCTYPE svg PUBLIC "-//W3C//DTD SVG 1.1//EN" "http://www.w3.org/Graphics/SVG/1.1/DTD/svg11.dtd"><svg t="1723540419178" class="icon" viewBox="0 0 1024 1024" version="1.1" xmlns="http://www.w3.org/2000/svg" p-id="35756" xmlns:xlink="http://www.w3.org/1999/xlink" width="200" height="200"><path d="M805.034667 136.704H328.362667c-54.272 0-98.474667 46.421333-98.474667 103.424v611.84c0 57.002667 44.202667 103.424 98.474667 103.424h476.672c54.272 0 98.474667-46.421333 98.474666-103.424V240.128c0.170667-57.002667-44.032-103.424-98.474666-103.424z m-476.672 68.266667h476.672c16.384 0 30.208 16.042667 30.208 35.157333v119.808a456.6016 456.6016 0 0 1-134.144 61.952c-22.016-53.418667-73.898667-91.136-134.314667-91.136s-112.469333 37.717333-134.314667 91.136c-47.445333-13.141333-93.013333-34.133333-134.144-61.952v-119.808c-0.170667-19.114667 13.653333-35.157333 30.037334-35.157333z m315.733333 273.578666c0 43.861333-34.645333 79.701333-77.312 79.701334s-77.312-35.669333-77.312-79.701334 34.645333-79.701333 77.312-79.701333 77.312 35.84 77.312 79.701333z m160.938667 408.576H328.362667c-16.384 0-30.208-16.042667-30.208-35.157333V439.808c39.082667 21.845333 80.725333 38.741333 123.562666 50.005333 5.632 76.458667 68.437333 136.874667 145.066667 136.874667s139.434667-60.416 145.066667-136.874667c43.349333-11.434667 84.650667-28.16 123.562666-50.005333v412.16c0 19.114667-13.994667 35.157333-30.378666 35.157333z" fill="#231815" p-id="35757"></path></svg>