<svg width="200.000000" height="200.000000" viewBox="0 0 200 200" fill="none" xmlns="http://www.w3.org/2000/svg" xmlns:xlink="http://www.w3.org/1999/xlink">
	<desc>
			Created with Pixso.
	</desc>
	<defs>
		<clipPath id="clip21_1">
			<rect id="ic_arrow_up_left_and_arrow_down_right" width="200.000000" height="200.000000" fill="white" fill-opacity="0"/>
		</clipPath>
	</defs>
	<g clip-path="url(#clip21_1)">
		<g opacity="0.000000">
			<rect id="rect" width="200.000000" height="200.000000" fill="#000000" fill-opacity="1.000000"/>
		</g>
		<path id="path" d="M100 8.39C83.33 8.39 68 12.5 54 20.7C40 28.9 28.9 40 20.7 54C12.5 68 8.39 83.33 8.39 100C8.39 116.53 12.5 131.83 20.7 145.89C28.9 159.96 40.03 171.1 54.1 179.3C68.16 187.5 83.46 191.6 100 191.6C116.53 191.6 131.83 187.5 145.89 179.3C159.96 171.1 171.1 159.96 179.3 145.89C187.5 131.83 191.6 116.53 191.6 100C191.6 83.33 187.5 68 179.3 54C171.1 40 160 28.9 146 20.7C132 12.5 116.66 8.39 100 8.39Z" fill="#D7E2E2" fill-opacity="1.000000" fill-rule="nonzero"/>
		<path id="path" d="M150 87.78C150 88.86 149.62 89.77 148.87 90.52C148.13 91.27 147.21 91.64 146.13 91.64C145.05 91.64 144.11 91.27 143.32 90.52C142.53 89.77 142.14 88.86 142.14 87.78L142.14 63.34L114.83 90.77C114.09 91.52 113.17 91.89 112.09 91.89C111.01 91.89 110.1 91.52 109.35 90.77C108.52 90.02 108.1 89.11 108.1 88.02C108.1 86.94 108.52 86.03 109.35 85.28L136.78 57.73L112.34 57.73C111.26 57.73 110.34 57.35 109.6 56.6C108.85 55.86 108.47 54.94 108.47 53.86C108.47 52.78 108.85 51.87 109.6 51.12C110.34 50.37 111.26 50 112.34 50L143.26 50C145.09 50 146.67 50.64 148 51.93C149.33 53.22 150 54.82 150 56.73L150 87.78ZM91.52 146.13C91.52 147.21 91.14 148.13 90.39 148.87C89.65 149.62 88.73 150 87.65 150L56.73 150C54.82 150 53.22 149.33 51.93 148C50.64 146.67 50 145.09 50 143.26L50 112.21C50 111.13 50.37 110.22 51.12 109.47C51.87 108.72 52.78 108.35 53.86 108.35C54.94 108.35 55.88 108.72 56.67 109.47C57.46 110.22 57.85 111.13 57.85 112.21L57.85 136.53L85.16 109.22C85.91 108.47 86.82 108.1 87.9 108.1C88.98 108.1 89.9 108.47 90.64 109.22C91.47 109.97 91.89 110.88 91.89 111.97C91.89 113.05 91.47 113.96 90.64 114.71L63.34 142.14L87.65 142.14C88.73 142.14 89.65 142.53 90.39 143.32C91.14 144.11 91.52 145.05 91.52 146.13Z" fill="#000000" fill-opacity="0.901961" fill-rule="nonzero"/>
	</g>
</svg>
