<svg width="24.000000" height="24.000000" viewBox="0 0 24 24" fill="none" xmlns="http://www.w3.org/2000/svg" xmlns:xlink="http://www.w3.org/1999/xlink">
	<desc>
			Created with Pixso.
	</desc>
	<defs>
		<clipPath id="clip28_1">
			<rect id="ic_add" width="24.000000" height="24.000000" fill="white" fill-opacity="0"/>
		</clipPath>
	</defs>
	<g clip-path="url(#clip28_1)">
		<g opacity="0.000000">
			<rect id="rect" width="24.000000" height="24.000000" fill="#000000" fill-opacity="1.000000"/>
		</g>
		<path id="path" d="M12 2.5C13.71 2.5 15.29 2.92 16.75 3.78C18.2 4.63 19.36 5.79 20.21 7.25C21.07 8.7 21.5 10.28 21.5 12C21.5 13.71 21.07 15.29 20.21 16.75C19.36 18.2 18.2 19.36 16.75 20.21C15.29 21.07 13.71 21.5 12 21.5C10.28 21.5 8.7 21.07 7.25 20.21C5.79 19.36 4.63 18.2 3.78 16.75C2.92 15.29 2.5 13.71 2.5 12C2.5 10.28 2.92 8.7 3.78 7.25C4.63 5.79 5.79 4.63 7.25 3.78C8.7 2.92 10.28 2.5 12 2.5ZM12 1.01C10 1.01 8.16 1.5 6.48 2.47C4.8 3.46 3.46 4.79 2.48 6.47C1.5 8.16 1.01 10 1.01 12C1.01 13.98 1.5 15.82 2.48 17.51C3.46 19.19 4.8 20.53 6.49 21.52C8.17 22.5 10.01 22.99 12 22.99C13.98 22.99 15.82 22.5 17.51 21.52C19.19 20.53 20.53 19.19 21.52 17.51C22.5 15.82 22.99 13.98 22.99 12C22.99 10 22.5 8.16 21.52 6.47C20.53 4.79 19.2 3.46 17.52 2.47C15.84 1.5 14 1.01 12 1.01Z" fill="#000000" fill-opacity="0.901961" fill-rule="nonzero"/>
		<path id="path" d="M12.74 6.7C12.74 6.48 12.66 6.3 12.52 6.16C12.38 6.02 12.2 5.95 12 5.95C11.79 5.94 11.61 6.01 11.46 6.16C11.31 6.3 11.25 6.48 11.26 6.7L11.25 11.24L6.71 11.25C6.49 11.24 6.31 11.3 6.17 11.45C6.02 11.6 5.95 11.78 5.96 11.99C5.96 12.19 6.03 12.37 6.17 12.51C6.31 12.65 6.49 12.73 6.71 12.73L11.25 12.74L11.26 17.29C11.25 17.49 11.33 17.67 11.47 17.81C11.62 17.96 11.8 18.04 12 18.03C12.2 18.04 12.37 17.97 12.54 17.8C12.7 17.64 12.77 17.47 12.74 17.29L12.75 12.74L17.3 12.73C17.49 12.75 17.67 12.67 17.84 12.51C18 12.35 18.06 12.18 18.04 11.99C18.05 11.79 17.97 11.61 17.82 11.46C17.68 11.32 17.5 11.24 17.3 11.25L12.75 11.24L12.74 6.7Z" fill="#000000" fill-opacity="0.901961" fill-rule="nonzero"/>
	</g>
</svg>
