<svg width="200.000000" height="200.000000" viewBox="0 0 200 200" fill="none" xmlns="http://www.w3.org/2000/svg" xmlns:xlink="http://www.w3.org/1999/xlink">
	<desc>
			Created with Pixso.
	</desc>
	<defs>
		<clipPath id="clip21_1">
			<rect id="ic_arrow_down_rightand_arrow_up_left_" width="200.000000" height="200.000000" fill="white" fill-opacity="0"/>
		</clipPath>
	</defs>
	<g clip-path="url(#clip21_1)">
		<g opacity="0.000000">
			<rect id="rect" width="200.000000" height="200.000000" fill="#000000" fill-opacity="1.000000"/>
		</g>
		<path id="path" d="M100 8.39C83.33 8.39 68 12.5 54 20.7C40 28.9 28.9 40 20.7 54C12.5 68 8.39 83.33 8.39 100C8.39 116.53 12.5 131.83 20.7 145.89C28.9 159.96 40.03 171.1 54.1 179.3C68.16 187.5 83.46 191.6 100 191.6C116.53 191.6 131.83 187.5 145.89 179.3C159.96 171.1 171.1 159.96 179.3 145.89C187.5 131.83 191.6 116.53 191.6 100C191.6 83.33 187.5 68 179.3 54C171.1 40 160 28.9 146 20.7C132 12.5 116.66 8.39 100 8.39Z" fill="#D7E2E2" fill-opacity="1.000000" fill-rule="nonzero"/>
		<path id="path" d="M116.5 89.23L141.93 89.23C143.05 89.23 144.03 89.61 144.85 90.36C145.68 91.16 146.1 92.11 146.1 93.23C146.1 94.35 145.68 95.31 144.85 96.1C144.03 96.89 143.05 97.29 141.93 97.29L109.74 97.29C107.82 97.29 106.18 96.59 104.81 95.18C103.4 93.81 102.7 92.17 102.7 90.25L102.7 57.9C102.7 56.78 103.12 55.84 103.95 55.08C104.78 54.29 105.75 53.89 106.87 53.89C107.99 53.89 108.94 54.29 109.74 55.08C110.53 55.84 110.93 56.78 110.93 57.9L110.93 83.38L143.12 51.19C143.88 50.39 144.84 50 145.99 50C147.11 50 148.05 50.39 148.81 51.19C149.6 51.94 150 52.88 150 54C150 55.15 149.6 56.11 148.81 56.87L116.5 89.23ZM97.29 141.93C97.29 143.05 96.89 144.01 96.1 144.8C95.31 145.59 94.35 145.99 93.23 145.99C92.11 145.99 91.16 145.59 90.36 144.8C89.61 144.01 89.23 143.05 89.23 141.93L89.23 116.61L57.03 148.81C56.24 149.6 55.28 150 54.16 150C53.04 150 52.09 149.6 51.29 148.81C50.43 148.05 50 147.11 50 145.99C50 144.84 50.43 143.88 51.29 143.12L83.65 110.76L58.06 110.76C56.94 110.76 55.98 110.39 55.19 109.63C54.4 108.83 54 107.88 54 106.76C54 105.64 54.4 104.67 55.19 103.84C55.98 103.01 56.94 102.59 58.06 102.59L90.25 102.59C92.17 102.59 93.81 103.28 95.18 104.65C96.59 106.06 97.29 107.75 97.29 109.74L97.29 141.93Z" fill="#191919" fill-opacity="1.000000" fill-rule="nonzero"/>
	</g>
</svg>
