<?xml version="1.0" standalone="no"?>
<svg xmlns="http://www.w3.org/2000/svg" width="200" height="200"><rect width="200" height="200" opacity="0"></rect><g><path d="M144.8 47.2Q144.2 47.2 143.6 46.9Q143 46.6 142.8 46L138.4 35Q136.6 30.4 132.5 27.7Q128.4 25 123.4 25L77.2 25Q72.2 25 68.1 27.7Q64 30.4 62 35L57.8 46Q57.6 46.6 57 46.9Q56.4 47.2 55.8 47.2L33.4 47.2Q27.2 47.2 21.9 50.3Q16.6 53.4 13.5 58.6Q10.4 63.8 10.4 70L10.4 152.4Q10.4 158.6 13.5 163.7Q16.6 168.8 21.9 171.9Q27.2 175 33.4 175L166.6 175Q172.8 175 178.1 172Q183.4 169 186.5 163.8Q189.6 158.6 189.6 152.4L189.6 70Q189.6 63.8 186.5 58.6Q183.4 53.4 178.1 50.3Q172.8 47.2 166.6 47.2L144.8 47.2ZM100 145.2Q90 145.2 81.5 140.2Q73 135.2 68 126.7Q63 118.2 63 108Q63 98 68 89.5Q73 81 81.5 76Q90 71 100 71Q110 71 118.5 76Q127 81 132 89.5Q137 98 137 108Q137 118.2 132 126.7Q127 135.2 118.5 140.2Q110 145.2 100 145.2ZM100 83.6Q93.4 83.6 87.7 86.9Q82 90.2 78.7 95.8Q75.4 101.4 75.4 108Q75.4 114.6 78.7 120.3Q82 126 87.7 129.3Q93.4 132.6 100 132.6Q106.6 132.6 112.3 129.3Q118 126 121.3 120.3Q124.6 114.6 124.6 108Q124.6 101.4 121.3 95.8Q118 90.2 112.3 86.9Q106.6 83.6 100 83.6Z" fill="rgba(0,0,0,0.9019607843137255)"></path></g></svg>