<?xml version="1.0" standalone="no"?>
<svg xmlns="http://www.w3.org/2000/svg" width="48" height="48"><rect width="48" height="48" opacity="0"></rect><g><path d="M38.02 7.01Q39.26 7.01 40.13 7.87Q40.99 8.74 40.99 9.98L40.99 38.02Q40.99 39.22 40.13 40.1Q39.26 40.99 38.02 40.99L9.98 40.99Q8.78 40.99 7.9 40.1Q7.01 39.22 7.01 38.02L7.01 9.98Q7.01 8.74 7.9 7.87Q8.78 7.01 9.98 7.01L38.02 7.01ZM9.98 3.98Q8.35 3.98 6.98 4.8Q5.62 5.62 4.8 6.98Q3.98 8.35 3.98 9.98L3.98 38.02Q3.98 39.65 4.8 41.02Q5.62 42.38 6.98 43.2Q8.35 44.02 9.98 44.02L38.02 44.02Q39.65 44.02 41.02 43.2Q42.38 42.38 43.2 41.02Q44.02 39.65 44.02 38.02L44.02 9.98Q44.02 8.35 43.2 6.98Q42.38 5.62 41.02 4.8Q39.65 3.98 38.02 3.98L9.98 3.98Z" fill="rgba(0,0,0,0.9019607843137255)"></path><path d="M25.49 22.51L25.49 14.5Q25.49 13.87 25.06 13.44Q24.62 13.01 24 13.01Q23.38 13.01 22.94 13.44Q22.51 13.87 22.51 14.5L22.51 22.51L14.5 22.51Q13.87 22.51 13.44 22.94Q13.01 23.38 13.01 24Q13.01 24.62 13.44 25.06Q13.87 25.49 14.5 25.49L22.51 25.49L22.51 33.5Q22.51 34.13 22.94 34.56Q23.38 34.99 24 34.99Q24.62 34.99 25.06 34.56Q25.49 34.13 25.49 33.5L25.49 25.49L33.5 25.49Q34.13 25.49 34.56 25.06Q34.99 24.62 34.99 24Q34.99 23.38 34.56 22.94Q34.13 22.51 33.5 22.51Z" fill="rgba(0,0,0,0.9019607843137255)"></path></g></svg>