<?xml version="1.0" standalone="no"?>
<svg xmlns="http://www.w3.org/2000/svg" width="200" height="200"><rect width="200" height="200" opacity="0"></rect><g><path d="M100 8.4Q75 8.4 54 20.7Q33 33 20.7 54Q8.4 75 8.4 100Q8.4 124.8 20.7 145.9Q33 167 54.1 179.3Q75.2 191.6 100 191.6Q124.8 191.6 145.9 179.3Q167 167 179.3 145.9Q191.6 124.8 191.6 100Q191.6 75 179.3 54Q167 33 146 20.7Q125 8.4 100 8.4Z" fill="rgba(215,226,226,1)"></path></g><g><path d="M135.6 126.8Q137.4 128.6 137.4 131.2Q137.4 133.8 135.6 135.6Q134.2 137.4 131.3 137.4Q128.4 137.4 126.8 135.6L100 108.8L73.2 135.6Q71.8 137.4 68.9 137.4Q66 137.4 64.4 135.6Q62.6 133.8 62.6 131.2Q62.6 128.6 64.4 126.8L91.2 100L64.4 73.2Q62.6 71.2 62.6 68.7Q62.6 66.2 64.4 64.4Q66.2 62.4 68.8 62.4Q71.4 62.4 73.2 64.4L100 91.2L126.8 64.4Q128.6 62.4 131.2 62.4Q133.8 62.4 135.6 64.4Q137.4 66.2 137.4 68.7Q137.4 71.2 135.6 73.2L108.8 100L135.6 126.8Z" fill="rgba(0,0,0,0.9019607843137255)"></path></g></svg>