<svg width="24.000000" height="24.000000" viewBox="0 0 24 24" fill="none" xmlns="http://www.w3.org/2000/svg" xmlns:xlink="http://www.w3.org/1999/xlink">
	<desc>
			Created with Pixso.
	</desc>
	<defs>
		<clipPath id="clip2_716">
			<rect id="add" width="24.000000" height="24.000000" fill="white" fill-opacity="0"/>
		</clipPath>
	</defs>
	<rect id="add" width="24.000000" height="24.000000" fill="#FFFFFF" fill-opacity="0"/>
	<g clip-path="url(#clip2_716)">
		<path id="合并" transform="translate(12, 12) scale(0.75) translate(-12, -12)" d="M11.2478 12.7498L11.2478 19.25C11.2478 19.6642 11.5835 20 11.9978 20C12.4121 20 12.7478 19.6642 12.7478 19.25L12.7478 12.7498L19.25 12.7498C19.6643 12.7498 20 12.414 20 11.9998C20 11.5856 19.6643 11.2498 19.25 11.2498L12.7478 11.2498L12.7478 4.75C12.7478 4.33578 12.4121 4 11.9978 4C11.5835 4 11.2478 4.33578 11.2478 4.75L11.2478 11.2498L4.75 11.2498C4.33569 11.2498 4 11.5856 4 11.9998C4 12.414 4.33569 12.7498 4.75 12.7498L11.2478 12.7498Z" clip-rule="evenodd" fill="#8A8A8A" fill-opacity="1.000000" fill-rule="evenodd"/>
	</g>
</svg>
