<svg width="24.000000" height="24.000000" viewBox="0 0 24 24" fill="none" xmlns="http://www.w3.org/2000/svg" xmlns:xlink="http://www.w3.org/1999/xlink">
	<desc>
			Created with Pixso.
	</desc>
	<defs>
		<clipPath id="clip2_746">
			<rect id="close" width="24.000000" height="24.000000" fill="white" fill-opacity="0"/>
		</clipPath>
	</defs>
	<rect id="close" width="24.000000" height="24.000000" fill="#FFFFFF" fill-opacity="0"/>
	<g clip-path="url(#clip2_746)">
		<path id="矢量 14" transform="translate(12, 12) scale(0.75) translate(-12, -12)" d="M10.93 11.99L6.34 16.59C6.04 16.88 6.04 17.36 6.34 17.65C6.63 17.94 7.1 17.94 7.4 17.65L11.99 13.05L16.59 17.65C16.88 17.94 17.36 17.94 17.65 17.65C17.95 17.36 17.95 16.88 17.65 16.59L13.05 11.99L17.65 7.4C17.94 7.1 17.94 6.63 17.65 6.34C17.36 6.04 16.88 6.04 16.59 6.34L11.99 10.93L7.4 6.34C7.11 6.05 6.63 6.05 6.34 6.34C6.05 6.63 6.05 7.11 6.34 7.4L10.93 11.99Z" fill="#717171" fill-opacity="1.000000" fill-rule="evenodd"/>
	</g>
</svg>
