<svg width="24.000000" height="24.000000" viewBox="0 0 24 24" fill="none" xmlns="http://www.w3.org/2000/svg" xmlns:xlink="http://www.w3.org/1999/xlink">
	<desc>
			Created with Pixso.
	</desc>
	<defs>
		<clipPath id="clip2_329">
			<rect id="deletehistory" width="24.000000" height="24.000000" fill="white" fill-opacity="0"/>
		</clipPath>
	</defs>
	<rect id="deletehistory" width="24.000000" height="24.000000" fill="#FFFFFF" fill-opacity="0"/>
	<g clip-path="url(#clip2_329)">
		<path id="合并" d="M8 3L8 4L2.75 4C2.33578 4 2 4.33578 2 4.75C2 5.16422 2.33578 5.5 2.75 5.5L4.07895 5.5L4.90027 21.1051C4.95618 22.1674 5.83377 23 6.89749 23L17.1025 23C18.1662 23 19.0438 22.1674 19.0997 21.1051L19.9211 5.5L21.25 5.5C21.6642 5.5 22 5.16422 22 4.75C22 4.33578 21.6642 4 21.25 4L16 4L16 3C16 1.89543 15.1046 1 14 1L10 1C8.89542 1 8 1.89543 8 3ZM14.5 4L14.5 3C14.5 2.93097 14.4878 2.86699 14.4634 2.80806C14.439 2.74913 14.4024 2.69527 14.3535 2.64645C14.3047 2.59763 14.2509 2.56102 14.192 2.53661C14.133 2.51221 14.069 2.5 14 2.5L10 2.5C9.93097 2.5 9.86697 2.51221 9.80804 2.53661C9.74915 2.56102 9.69525 2.59763 9.64645 2.64645C9.59763 2.69527 9.561 2.74913 9.53662 2.80806C9.51221 2.86699 9.5 2.93097 9.5 3L9.5 4L14.5 4ZM8 5.5L5.58102 5.5L6.39819 21.0263C6.4017 21.0927 6.41638 21.1539 6.44223 21.21L6.44226 21.2101L6.44241 21.2103L6.44247 21.2105C6.46835 21.2664 6.50531 21.3171 6.55338 21.3627C6.6015 21.4084 6.65417 21.4427 6.71143 21.4655L6.71158 21.4656L6.71173 21.4657L6.71182 21.4657C6.76917 21.4886 6.83105 21.5 6.89749 21.5L17.1025 21.5C17.1689 21.5 17.2308 21.4886 17.2881 21.4657L17.2883 21.4657C17.3456 21.4428 17.3984 21.4085 17.4466 21.3627C17.4948 21.317 17.5319 21.2661 17.5577 21.2101L17.5578 21.21L17.5578 21.2099C17.5836 21.1539 17.5983 21.0926 17.6018 21.0263L18.419 5.5L8 5.5ZM10 9L10 19.5C10 19.9142 9.66422 20.25 9.25 20.25C8.83578 20.25 8.5 19.9142 8.5 19.5L8.5 9C8.5 8.58578 8.83578 8.25 9.25 8.25C9.66422 8.25 10 8.58578 10 9ZM13 9L13 19.5C13 19.9142 12.6642 20.25 12.25 20.25C11.8358 20.25 11.5 19.9142 11.5 19.5L11.5 9C11.5 8.58578 11.8358 8.25 12.25 8.25C12.6642 8.25 13 8.58578 13 9ZM16 19.5L16 9C16 8.58578 15.6642 8.25 15.25 8.25C14.8358 8.25 14.5 8.58578 14.5 9L14.5 19.5C14.5 19.9142 14.8358 20.25 15.25 20.25C15.6642 20.25 16 19.9142 16 19.5Z" clip-rule="evenodd" fill="#FF0000" fill-opacity="1.000000" fill-rule="evenodd"/>
	</g>
</svg>
