<svg width="24.000000" height="24.000000" viewBox="0 0 24 24" fill="none" xmlns="http://www.w3.org/2000/svg" xmlns:xlink="http://www.w3.org/1999/xlink">
	<desc>
			Created with Pixso.
	</desc>
	<defs>
		<clipPath id="clip2_383">
			<rect id="down" width="24.000000" height="24.000000" fill="white" fill-opacity="0"/>
		</clipPath>
	</defs>
	<rect id="down" width="24.000000" height="24.000000" fill="#FFFFFF" fill-opacity="0"/>
	<g clip-path="url(#clip2_383)">
		<path id="矢量 11 (边框)" d="M19.53 9.03L13.23 15.32C13.14 15.41 13.05 15.49 12.94 15.55C12.85 15.61 12.76 15.66 12.65 15.7C12.55 15.74 12.45 15.78 12.34 15.8C12.23 15.82 12.11 15.83 12 15.83C11.88 15.83 11.76 15.82 11.65 15.8C11.54 15.78 11.44 15.74 11.34 15.7C11.23 15.66 11.14 15.61 11.05 15.55C10.94 15.48 10.85 15.41 10.76 15.32L4.46 9.03C4.17 8.73 4.17 8.26 4.46 7.96C4.76 7.67 5.23 7.67 5.53 7.96L11.82 14.26C11.85 14.27 11.96 14.33 12 14.33C12.02 14.32 12.15 14.28 12.17 14.26L18.46 7.96C18.76 7.67 19.23 7.67 19.53 7.96C19.82 8.26 19.82 8.73 19.53 9.03Z" fill="#717171" fill-opacity="1.000000" fill-rule="evenodd"/>
	</g>
</svg>
