<svg width="24.000000" height="24.000000" viewBox="0 0 24 24" fill="none" xmlns="http://www.w3.org/2000/svg" xmlns:xlink="http://www.w3.org/1999/xlink">
	<desc>
			Created with Pixso.
	</desc>
	<defs>
		<clipPath id="clip2_393">
			<rect id="edit" width="24.000000" height="24.000000" fill="white" fill-opacity="0"/>
		</clipPath>
	</defs>
	<rect id="edit" width="24.000000" height="24.000000" fill="#FFFFFF" fill-opacity="0"/>
	<g clip-path="url(#clip2_393)">
		<path id="合并" d="M16.0121 3.87868C17.1837 2.70711 19.0833 2.70711 20.2548 3.87868C21.4264 5.05025 21.4264 6.94975 20.2548 8.12132L8.39478 19.9813C7.91541 20.4607 7.28778 20.7636 6.6142 20.8406L4.11377 21.1265C3.47443 21.1996 2.93347 20.6586 3.00665 20.0192L3.29279 17.519C3.36987 16.8456 3.67273 16.2181 4.15204 15.7388L16.0121 3.87868ZM17.2173 9.03751L7.33411 18.9207C7.21082 19.044 7.07507 19.1414 6.92682 19.213L6.92651 19.2132C6.77808 19.2848 6.61719 19.3305 6.44385 19.3503L4.56848 19.5647L4.78308 17.6896C4.80292 17.5163 4.84863 17.3555 4.92023 17.2071L4.92023 17.2071C4.99182 17.0587 5.08929 16.9229 5.21265 16.7995L15.096 6.91618L17.2173 9.03751ZM18.278 7.97685L19.1942 7.06065C19.2817 6.97307 19.3566 6.87781 19.4188 6.77487L19.4189 6.77472C19.4592 6.70808 19.4941 6.63826 19.5237 6.56522C19.5557 6.4864 19.5807 6.40605 19.5987 6.32417L19.5989 6.32333L19.5989 6.32323C19.6219 6.218 19.6335 6.11026 19.6335 6C19.6335 5.88974 19.6219 5.782 19.5989 5.67679L19.5989 5.67667C19.5809 5.5945 19.5558 5.51387 19.5237 5.43478C19.4941 5.36179 19.4592 5.29199 19.419 5.22539L19.4189 5.22531C19.3568 5.1223 19.2818 5.02698 19.1942 4.93935C19.1065 4.8517 19.0112 4.77678 18.9082 4.71454L18.9082 4.71452L18.9081 4.71451C18.8416 4.67427 18.7717 4.63934 18.6987 4.60973C18.6197 4.5777 18.5392 4.55267 18.4571 4.53467L18.4568 4.53461C18.3516 4.51154 18.2438 4.5 18.1335 4.5C18.0232 4.5 17.9154 4.51154 17.8101 4.53461C17.728 4.55261 17.6473 4.57765 17.5683 4.60973C17.4952 4.63934 17.4254 4.67427 17.3588 4.71452L17.3588 4.71454L17.3588 4.71455C17.2558 4.77678 17.1605 4.8517 17.0728 4.93935L16.1566 5.85553L18.278 7.97685Z" clip-rule="evenodd" fill="#1C1C1C" fill-opacity="1.000000" fill-rule="evenodd"/>
	</g>
</svg>
