<?xml version="1.0" standalone="no"?><!DOCTYPE svg PUBLIC "-//W3C//DTD SVG 1.1//EN" "http://www.w3.org/Graphics/SVG/1.1/DTD/svg11.dtd"><svg t="1723540517605" class="icon" viewBox="0 0 1024 1024" version="1.1" xmlns="http://www.w3.org/2000/svg" p-id="36757" xmlns:xlink="http://www.w3.org/1999/xlink" width="200" height="200"><path d="M512 938.666667C276.352 938.666667 85.333333 747.648 85.333333 512S276.352 85.333333 512 85.333333s426.666667 191.018667 426.666667 426.666667-191.018667 426.666667-426.666667 426.666667z m0-85.333334a341.333333 341.333333 0 1 0 0-682.666666 341.333333 341.333333 0 0 0 0 682.666666z m-213.333333-298.666666h85.333333a128 128 0 1 0 256 0h85.333333a213.333333 213.333333 0 0 1-426.666666 0z m42.666666-85.333334a64 64 0 1 1 0-128 64 64 0 0 1 0 128z m341.333334 0a64 64 0 1 1 0-128 64 64 0 0 1 0 128z" p-id="36758"></path></svg>