<svg width="24.000000" height="24.000000" viewBox="0 0 24 24" fill="none" xmlns="http://www.w3.org/2000/svg" xmlns:xlink="http://www.w3.org/1999/xlink">
	<desc>
			Created with Pixso.
	</desc>
	<defs>
		<clipPath id="clip2_422">
			<rect id="file" width="24.000000" height="24.000000" fill="white" fill-opacity="0"/>
		</clipPath>
	</defs>
	<rect id="file" width="24.000000" height="24.000000" fill="#FFFFFF" fill-opacity="0"/>
	<g clip-path="url(#clip2_422)">
		<path id="减去顶层" d="M14.5 0.5L5 0.5C3.89539 0.5 3 1.39543 3 2.5L3 21.5C3 22.6046 3.89539 23.5 5 23.5L19 23.5C20.1046 23.5 21 22.6046 21 21.5L21 6.5L14.5 0.5ZM17.25 10.5L6.75 10.5C6.33582 10.5 6 10.8358 6 11.25C6 11.6642 6.33582 12 6.75 12L17.25 12C17.6642 12 18 11.6642 18 11.25C18 10.8358 17.6642 10.5 17.25 10.5ZM6.75 14.5L17.25 14.5C17.6642 14.5 18 14.8358 18 15.25C18 15.6642 17.6642 16 17.25 16L6.75 16C6.33582 16 6 15.6642 6 15.25C6 14.8358 6.33582 14.5 6.75 14.5ZM14.25 18.5L6.75 18.5C6.33582 18.5 6 18.8358 6 19.25C6 19.6642 6.33582 20 6.75 20L14.25 20C14.6642 20 15 19.6642 15 19.25C15 18.8358 14.6642 18.5 14.25 18.5Z" clip-rule="evenodd" fill="#FCCB17" fill-opacity="1.000000" fill-rule="evenodd"/>
		<path id="矩形 22" d="M14 0.5L14.5 0.5L21 6.5L21 7.5L16 7.5C14.89 7.5 14 6.6 14 5.5L14 0.5Z" fill="#ECBE11" fill-opacity="1.000000" fill-rule="evenodd"/>
	</g>
</svg>
