<svg width="24.000000" height="24.000000" viewBox="0 0 24 24" fill="none" xmlns="http://www.w3.org/2000/svg" xmlns:xlink="http://www.w3.org/1999/xlink">
	<desc>
			Created with Pixso.
	</desc>
	<defs>
		<clipPath id="clip2_263">
			<rect id="good_on" width="24.000000" height="24.000000" fill="white" fill-opacity="0"/>
		</clipPath>
	</defs>
	<rect id="good_on" width="24.000000" height="24.000000" fill="#FFFFFF" fill-opacity="0"/>
	<g clip-path="url(#clip2_263)">
		<mask id="mask_2_271" fill="white">
			<path id="减去顶层" d="M8 8.61795L10.0966 4.33971C10.9809 2.37448 13.9204 3.0054 13.9204 5.16043L13.9204 8.84227L18.0781 8.84227C20.0298 8.84227 21.4619 10.6764 20.9885 12.5699L19.4885 18.5699C19.1546 19.9054 17.9547 20.8423 16.5781 20.8423L8 20.8423L8 8.61795ZM6.5 9.84229L6.5 20.8423L5.92043 20.8423C4.26357 20.8423 2.92043 19.4991 2.92043 17.8423L2.92043 12.8423C2.92043 11.1854 4.26357 9.84227 5.92043 9.84227L6.5 9.84229Z" clip-rule="evenodd" fill="" fill-opacity="1.000000" fill-rule="evenodd"/>
		</mask>
		<path id="减去顶层" d="M8 8.61795L10.0966 4.33971C10.9809 2.37448 13.9204 3.0054 13.9204 5.16043L13.9204 8.84227L18.0781 8.84227C20.0298 8.84227 21.4619 10.6764 20.9885 12.5699L19.4885 18.5699C19.1546 19.9054 17.9547 20.8423 16.5781 20.8423L8 20.8423L8 8.61795ZM6.5 9.84229L6.5 20.8423L5.92043 20.8423C4.26357 20.8423 2.92043 19.4991 2.92043 17.8423L2.92043 12.8423C2.92043 11.1854 4.26357 9.84227 5.92043 9.84227L6.5 9.84229Z" clip-rule="evenodd" fill="#1c1c1c" fill-opacity="1.000000" fill-rule="evenodd" mask="url(#mask_2_271)"/>
		<path id="减去顶层" d="" clip-rule="evenodd" fill="#1C1C1C" fill-opacity="0.000000" fill-rule="evenodd"/>
	</g>
</svg>
