<svg width="24.000000" height="24.000000" viewBox="0 0 24 24" fill="none" xmlns="http://www.w3.org/2000/svg" xmlns:xlink="http://www.w3.org/1999/xlink">
	<desc>
			Created with Pixso.
	</desc>
	<defs>
		<clipPath id="clip2_255">
			<rect id="good" width="24.000000" height="24.000000" fill="white" fill-opacity="0"/>
		</clipPath>
	</defs>
	<rect id="good" width="24.000000" height="24.000000" fill="#FFFFFF" fill-opacity="0"/>
	<g clip-path="url(#clip2_255)">
		<path id="合并" d="M13.9204 8.84227L13.9204 5.16043C13.9204 3.0054 10.9809 2.37448 10.0966 4.33971L7.67441 9.28233C7.50646 9.62505 7.15808 9.84227 6.77643 9.84227L5.92043 9.84227C4.26357 9.84227 2.92043 11.1854 2.92043 12.8423L2.92043 17.8423C2.92043 19.4991 4.26357 20.8423 5.92043 20.8423L16.5781 20.8423C17.9547 20.8423 19.1546 19.9054 19.4885 18.5699L20.9885 12.5699C21.4619 10.6764 20.0298 8.84227 18.0781 8.84227L13.9204 8.84227ZM8.63338 10.519C8.78707 10.3488 8.9164 10.1566 9.02136 9.94241L11.4544 4.97769L11.4645 4.95525C11.5197 4.83243 11.5941 4.74738 11.6876 4.70009C11.7811 4.65282 11.8937 4.6433 12.0254 4.67157C12.157 4.69983 12.2558 4.7547 12.3217 4.83618C12.3875 4.91766 12.4204 5.02574 12.4204 5.16043L12.4204 10.3423L18.0781 10.3423C18.2315 10.3423 18.3784 10.3636 18.5188 10.4064C18.5978 10.4305 18.6747 10.4613 18.7496 10.4989C18.833 10.5408 18.9111 10.5894 18.984 10.6449C19.0864 10.7229 19.1785 10.8143 19.2604 10.9191C19.3423 11.024 19.4086 11.1356 19.4594 11.2538C19.4956 11.338 19.5238 11.4256 19.5442 11.5166C19.5625 11.5984 19.5738 11.6805 19.578 11.763C19.5854 11.9096 19.5705 12.0573 19.5333 12.2061L18.0333 18.2061C17.9916 18.373 17.9264 18.5247 17.8377 18.6611C17.749 18.7975 17.6369 18.9187 17.5012 19.0246C17.3656 19.1305 17.2208 19.2099 17.067 19.2628C16.9131 19.3158 16.7502 19.3423 16.5781 19.3423L8 19.3423L8 11.0226C8.03332 11.0038 8.06639 10.9841 8.09923 10.9637C8.30164 10.8374 8.47969 10.6892 8.63338 10.519ZM6.5 11.3423L5.9204 11.3423C5.79656 11.3423 5.67626 11.3567 5.55951 11.3854C5.48386 11.4041 5.4097 11.4288 5.33702 11.4595C5.25843 11.4928 5.18372 11.5321 5.11288 11.5774C5.02215 11.6355 4.93777 11.7036 4.85976 11.7816C4.78175 11.8596 4.71369 11.944 4.65557 12.0348C4.61022 12.1056 4.57092 12.1803 4.53769 12.2589C4.50698 12.3315 4.4823 12.4056 4.46365 12.4811C4.43484 12.598 4.42043 12.7183 4.42043 12.8423L4.42043 17.8423C4.42043 17.9662 4.43484 18.0866 4.46367 18.2034C4.48232 18.279 4.50698 18.3531 4.53769 18.4257C4.57093 18.5043 4.61024 18.579 4.65561 18.6498C4.71372 18.7406 4.78177 18.8249 4.85976 18.9029C4.93776 18.9809 5.02213 19.049 5.11286 19.1071C5.1837 19.1525 5.25842 19.1918 5.33702 19.225C5.40962 19.2557 5.48371 19.2804 5.55929 19.299L5.55933 19.299C5.67614 19.3279 5.79651 19.3423 5.92043 19.3423L6.5 19.3423L6.5 11.3423Z" clip-rule="evenodd" fill="#1C1C1C" fill-opacity="1.000000" fill-rule="evenodd"/>
	</g>
</svg>
