<?xml version="1.0" standalone="no"?><!DOCTYPE svg PUBLIC "-//W3C//DTD SVG 1.1//EN" "http://www.w3.org/Graphics/SVG/1.1/DTD/svg11.dtd"><svg t="1741157114077" class="icon" viewBox="0 0 1024 1024" version="1.1" xmlns="http://www.w3.org/2000/svg" p-id="8691" data-spm-anchor-id="a313x.search_index.0.i8.2d8c3a81EXWYjK" xmlns:xlink="http://www.w3.org/1999/xlink" width="200" height="200"><path d="M128 512a42.667 42.667 0 0 1 42.667-42.667h682.666a42.667 42.667 0 1 1 0 85.334H170.667A42.667 42.667 0 0 1 128 512z" fill="#717171" p-id="8692" data-spm-anchor-id="a313x.search_index.0.i12.2d8c3a81EXWYjK" class="selected"></path><path d="M85.333 512C85.333 276.352 276.352 85.333 512 85.333S938.667 276.352 938.667 512 747.648 938.667 512 938.667 85.333 747.648 85.333 512zM512 170.667c-188.523 0-341.333 152.81-341.333 341.333S323.477 853.333 512 853.333 853.333 700.523 853.333 512 700.523 170.667 512 170.667z" p-id="8693" data-spm-anchor-id="a313x.search_index.0.i10.2d8c3a81EXWYjK" class="selected" fill="#717171"></path><path d="M446.165 255.936C421.504 319.36 405.333 409.877 405.333 512s16.171 192.64 40.832 256.064c12.374 31.85 26.091 54.72 39.126 68.885 12.992 14.123 22.058 16.384 26.709 16.384 4.65 0 13.717-2.261 26.71-16.384 13.034-14.165 26.73-37.034 39.125-68.885C602.496 704.64 618.667 614.123 618.667 512s-16.171-192.64-40.832-256.064c-12.374-31.85-26.091-54.72-39.126-68.885-12.992-14.123-22.058-16.384-26.709-16.384-4.65 0-13.717 2.261-26.71 16.384-13.034 14.165-26.73 37.034-39.125 68.885z m-23.701-126.635c22.741-24.768 52.95-43.968 89.536-43.968 36.587 0 66.795 19.243 89.536 43.947 22.699 24.704 41.173 58.09 55.83 95.723C686.72 300.587 704 402.048 704 512s-17.259 211.435-46.635 286.997c-14.634 37.632-33.13 71.019-55.829 95.702-22.741 24.768-52.95 43.968-89.536 43.968-36.587 0-66.795-19.243-89.536-43.947-22.699-24.704-41.173-58.09-55.83-95.723C337.28 723.413 320 621.952 320 512s17.259-211.435 46.635-286.997c14.634-37.632 33.13-71.019 55.829-95.702z" p-id="8694" data-spm-anchor-id="a313x.search_index.0.i9.2d8c3a81EXWYjK" class="selected" fill="#717171"></path></svg>