<svg width="24.000000" height="24.000000" viewBox="0 0 24 24" fill="none" xmlns="http://www.w3.org/2000/svg" xmlns:xlink="http://www.w3.org/1999/xlink">
	<desc>
			Created with Pixso.
	</desc>
	<defs>
		<clipPath id="clip2_443">
			<rect id="new" width="24.000000" height="24.000000" fill="white" fill-opacity="0"/>
		</clipPath>
	</defs>
	<rect id="new" width="24.000000" height="24.000000" fill="#FFFFFF" fill-opacity="0"/>
	<g clip-path="url(#clip2_443)">
		<path id="合并" d="M11.8303 22L11.8303 22C11.8861 21.9991 11.9424 21.9981 12 21.9981C17.5228 21.9981 22 17.521 22 11.9981C22 6.47525 17.5228 1.99811 12 1.99811C6.47717 1.99811 2 6.47525 2 11.9981C2 14.4001 2.84692 16.6043 4.2583 18.3284L2.93799 20.474C2.52783 21.1403 3.00732 21.9981 3.78955 21.9981L11.5 21.9981C11.6123 22.0038 11.7202 22.0019 11.8303 22ZM3.67712 13.7375C3.55908 13.17 3.5 12.5902 3.5 11.9981C3.5 11.3485 3.57056 10.7151 3.71167 10.0977L3.71167 10.0973C3.82117 9.61847 3.97302 9.14937 4.16736 8.68999C4.36682 8.21851 4.60437 7.77196 4.88 7.35037L4.88013 7.35022C5.19897 6.8627 5.56873 6.40852 5.98962 5.9877C6.4104 5.56685 6.86462 5.19699 7.35229 4.87816L7.35229 4.87814C7.7738 4.60245 8.22046 4.36488 8.69189 4.16547C9.15149 3.97108 9.62073 3.81917 10.0997 3.70972C10.717 3.56865 11.3505 3.49811 12 3.49811C12.6495 3.49811 13.283 3.56863 13.9003 3.7097L13.9004 3.70972C14.3793 3.81917 14.8485 3.97108 15.3081 4.16547C15.7797 4.36488 16.2262 4.60245 16.6477 4.87814C17.1354 5.19699 17.5896 5.56683 18.0104 5.9877C18.4313 6.40857 18.8011 6.86279 19.12 7.35037C19.3956 7.77196 19.6332 8.21851 19.8326 8.68999C20.027 9.14952 20.179 9.61877 20.2883 10.0977L20.2886 10.0988C20.4296 10.7158 20.5 11.3489 20.5 11.9981C20.5 12.6477 20.4294 13.2812 20.2883 13.8985C20.179 14.3775 20.027 14.8467 19.8326 15.3062C19.6332 15.7777 19.3956 16.2242 19.12 16.6458C18.8011 17.1334 18.4313 17.5876 18.0104 18.0085C17.5897 18.4291 17.1359 18.7988 16.6486 19.1175L16.6477 19.1181C16.2261 19.3938 15.7795 19.6313 15.3081 19.8307C14.8485 20.0251 14.3793 20.177 13.9004 20.2865C13.283 20.4276 12.6495 20.4981 12 20.4981C11.953 20.4981 11.8879 20.4988 11.8047 20.5002C11.693 20.5022 11.6166 20.5021 11.5753 20.5L11.5377 20.4981L4.68433 20.4981L6.09558 18.2047L5.41895 17.3782C5.08447 16.9696 4.79236 16.5378 4.5426 16.0827L4.5426 16.0826C4.33582 15.7059 4.15808 15.3132 4.0094 14.9046C3.87012 14.5215 3.75928 14.1325 3.67712 13.7375ZM11.25 8.75C11.25 8.33578 11.5857 8 12 8C12.4142 8 12.75 8.33578 12.75 8.75L12.75 11.25L15.25 11.25C15.6642 11.25 16 11.5858 16 12C16 12.4142 15.6642 12.75 15.25 12.75L12.75 12.75L12.75 15.25C12.75 15.6642 12.4142 16 12 16C11.5857 16 11.25 15.6642 11.25 15.25L11.25 12.75L8.75 12.75C8.33582 12.75 8 12.4142 8 12C8 11.5858 8.33582 11.25 8.75 11.25L11.25 11.25L11.25 8.75Z" clip-rule="evenodd" fill="#171717" fill-opacity="1.000000" fill-rule="evenodd"/>
	</g>
</svg>
