<svg width="24.000000" height="24.000000" viewBox="0 0 24 24" fill="none" xmlns="http://www.w3.org/2000/svg" xmlns:xlink="http://www.w3.org/1999/xlink">
	<desc>
			Created with Pixso.
	</desc>
	<defs>
		<clipPath id="clip2_445">
			<rect id="on" width="24.000000" height="24.000000" fill="white" fill-opacity="0"/>
		</clipPath>
	</defs>
	<rect id="on" width="24.000000" height="24.000000" fill="#FFFFFF" fill-opacity="0"/>
	<g clip-path="url(#clip2_445)">
		<path id="矢量 11 (边框)" d="M19.53 14.55L13.23 8.25C13.14 8.17 13.05 8.09 12.94 8.02C12.85 7.96 12.76 7.91 12.65 7.87C12.55 7.83 12.45 7.8 12.34 7.78C12.23 7.75 12.11 7.74 12 7.74C11.88 7.74 11.76 7.75 11.65 7.78C11.54 7.8 11.44 7.83 11.34 7.87C11.23 7.91 11.14 7.96 11.05 8.02C10.94 8.09 10.85 8.17 10.76 8.25L4.46 14.55C4.17 14.84 4.17 15.31 4.46 15.61C4.76 15.91 5.23 15.91 5.53 15.61L11.82 9.32C11.85 9.3 11.96 9.24 12 9.24C12.02 9.25 12.15 9.29 12.17 9.32L18.46 15.61C18.76 15.91 19.23 15.91 19.53 15.61C19.82 15.31 19.82 14.84 19.53 14.55Z" fill="#717171" fill-opacity="1.000000" fill-rule="evenodd"/>
	</g>
</svg>
