<svg width="24.000000" height="24.000000" viewBox="0 0 24 24" fill="none" xmlns="http://www.w3.org/2000/svg"
	xmlns:xlink="http://www.w3.org/1999/xlink">
	<desc>
		Created with Pixso.
	</desc>
	<defs>
		<clipPath id="clip2_656">
			<rect id="send_enable" width="24.000000" height="24.000000" fill="white" fill-opacity="0" />
		</clipPath>
	</defs>
	<rect id="send_enable" width="24.000000" height="24.000000" fill="#FFFFFF" fill-opacity="0" />
	<circle cx="12" cy="12" r="10" fill="white" stroke="white" stroke-width="0" />
	<g clip-path="url(#clip2_656)">
		<path id="减去顶层"
			d="M12 1C5.92493 1 1 5.92487 1 12C1 18.0751 5.92493 23 12 23C18.0751 23 23 18.0751 23 12C23 5.92487 18.0751 1 12 1ZM8.34009 12.2592C8.05334 12.566 7.58691 12.5818 7.28003 12.295C6.97327 12.0082 6.9574 11.5418 7.24426 11.235L10.7214 7.51451C10.8118 7.41791 10.9103 7.33337 11.017 7.26091C11.1104 7.19745 11.2101 7.14323 11.316 7.09828C11.4209 7.0538 11.5281 7.02 11.6375 6.99689L11.6375 6.99689C11.7557 6.97192 11.8766 6.95944 12 6.95944C12.1235 6.95944 12.2443 6.97192 12.3625 6.99689L12.3625 6.99689C12.4719 7.02 12.5791 7.0538 12.684 7.09828C12.7899 7.14323 12.8896 7.19745 12.9832 7.26091C13.0897 7.33337 13.1882 7.41791 13.2786 7.51451L16.7557 11.235C17.0426 11.5418 17.0269 12.0082 16.72 12.295C16.4131 12.5818 15.9467 12.566 15.6599 12.2592L12.75 9.14577L12.75 17.2497C12.75 17.6697 12.42 17.9997 12 17.9997C11.58 17.9997 11.25 17.6697 11.25 17.2497L11.25 9.1458L8.34009 12.2592Z"
			clip-rule="evenodd" fill="#3C82F2" fill-opacity="1.000000" fill-rule="evenodd" />
	</g>
</svg>
