<?xml version="1.0" encoding="UTF-8"?>
<!--
  - /*
  -  * Copyright (c) 2025 Huawei Device Co., Ltd.
  -  * Licensed under the Apache License, Version 2.0 (the ""License"");
  -  * you may not use this file except in compliance with the License.
  -  * You may obtain a copy of the License at
  -  *
  -  *     http://www.apache.org/licenses/LICENSE-2.0
  -  *
  -  * Unless required by applicable law or agreed to in writing, software
  -  * distributed under the License is distributed on an ""AS IS"" BASIS,
  -  * WITHOUT WARRANTIES OR CONDITIONS OF ANY KIND, either express or implied.
  -  * See the License for the specific language governing permissions and
  -  * limitations under the License.
  -  */
  -
  -->

<svg fill="#868686" viewBox="0 0 16 16" height="24px"  version="1.1" xmlns="http://www.w3.org/2000/svg" xmlns:xlink="http://www.w3.org/1999/xlink">
    <title>首页-home-f</title>
    <g id="----单色图标" stroke="none" stroke-width="1" fill="none" fill-rule="evenodd">
        <g id="通用图标-单色线型、面型" transform="translate(-1920.000000, -1203.000000)">
            <g id="首页-home-f" transform="translate(1920.000000, 1203.000000)">
                <rect id="矩形_4394" opacity="0" x="0" y="0" width="16" height="16"></rect>
                <path d="M14.767,7.063 L8.341,1.133 C8.14950944,0.956374601 7.85449056,0.956374601 7.663,1.133 L1.163,7.133 C1.01204396,7.27267509 0.962012342,7.49053769 1.03690546,7.68207849 C1.11179857,7.87361929 1.29633814,7.99976374 1.502,8 L3.002,8 L3.015,14 C3.01868751,14.2689377 3.12907227,14.5253926 3.3218653,14.7129345 C3.51465833,14.9004763 3.77406298,15.0037388 4.043,15.0000981 L6.999,15.0000981 L6.999,11.384 C6.99954954,11.172703 7.17070299,11.0015495 7.382,11.001 L8.616,11.001 C8.82752506,11.001 8.999,11.1724749 8.999,11.384 L8.999,15.0000981 L11.972,15.0000981 C12.2408428,15.0037377 12.5001431,14.9004438 12.6927774,14.7128739 C12.8854117,14.525304 12.9955755,14.268847 12.999,14 L12.986,8 L14.519,8 C14.7471876,8.00093309 14.9470572,7.84725583 15.0047818,7.62648832 C15.0625065,7.40572081 14.9634395,7.17387975 14.764,7.063 L14.767,7.063 Z" id="路径_31979" fill="#868686"></path>
            </g>
        </g>
    </g>
</svg>