<!--
  - /*
  -  * Copyright (c) 2025 Huawei Device Co., Ltd.
  -  * Licensed under the Apache License, Version 2.0 (the ""License"");
  -  * you may not use this file except in compliance with the License.
  -  * You may obtain a copy of the License at
  -  *
  -  *     http://www.apache.org/licenses/LICENSE-2.0
  -  *
  -  * Unless required by applicable law or agreed to in writing, software
  -  * distributed under the License is distributed on an ""AS IS"" BASIS,
  -  * WITHOUT WARRANTIES OR CONDITIONS OF ANY KIND, either express or implied.
  -  * See the License for the specific language governing permissions and
  -  * limitations under the License.
  -  */
  -
  -->

<svg fill="#868686" viewBox="0 0 16.0 16.0" height="24px"   xmlns="http://www.w3.org/2000/svg" xmlns:xlink="http://www.w3.org/1999/xlink">
<path id="icon_comment" d="M7.99 0C3.57 0 0 3.2 0 7.26C-0.07 9.5 1.05 11.6 2.95 12.79C3.34 13.32 3.29 14.05 2.82 14.52C2.21 15.13 1.22 15.25 1.47 15.62C1.76 15.81 2.11 15.9 2.46 15.87C3.17 15.87 3.88 15.74 4.55 15.5C5.53 15.01 6.02 14.27 6.27 14.27C6.84 14.38 7.41 14.42 7.99 14.39C12.42 14.39 15.98 11.19 15.98 7.14C15.98 3.08 12.42 0 7.99 0ZM4.57 8.45C3.93 8.45 3.42 7.94 3.42 7.31C3.42 6.68 3.93 6.16 4.57 6.16C5.2 6.16 5.71 6.68 5.71 7.31C5.71 7.94 5.2 8.45 4.57 8.45ZM7.99 8.45C7.36 8.45 6.85 7.94 6.85 7.31C6.85 6.68 7.36 6.16 7.99 6.16C8.62 6.16 9.14 6.68 9.14 7.31C9.14 7.94 8.62 8.45 7.99 8.45ZM11.42 8.45C10.79 8.45 10.28 7.94 10.28 7.31C10.28 6.68 10.79 6.16 11.42 6.16C12.05 6.16 12.56 6.68 12.56 7.31C12.56 7.94 12.05 8.45 11.42 8.45Z" fill-opacity="1.000000" fill-rule="evenodd"/>
</svg>