<?xml version="1.0" standalone="no"?><!DOCTYPE svg PUBLIC "-//W3C//DTD SVG 1.1//EN" "http://www.w3.org/Graphics/SVG/1.1/DTD/svg11.dtd"><svg t="1713494407983" class="icon" viewBox="0 0 1024 1024" version="1.1" xmlns="http://www.w3.org/2000/svg" p-id="74653" xmlns:xlink="http://www.w3.org/1999/xlink" width="200" height="200"><path d="M704 96a224 224 0 0 1 224 224v384a224 224 0 0 1-224 224H320a224 224 0 0 1-224-224V320a224 224 0 0 1 224-224h384z m-78.208 451.52a35.2 35.2 0 0 0-22.112 7.776l-82.976 66.88a32 32 0 0 0-4.8 45.024l2.688 2.976a32 32 0 0 0 42.304 1.856l36.096-29.12V832a32 32 0 1 0 64 0v-249.28a35.2 35.2 0 0 0-35.2-35.2zM739.52 544a32 32 0 0 0-31.648 32.352l1.344 121.184 0.16 13.888 1.28 114.208a35.2 35.2 0 0 0 57.728 26.624l44.288-36.896 35.872-29.888a32 32 0 0 0 4.096-45.056l-2.752-2.944a32 32 0 0 0-42.304-1.152l-33.6 27.968-0.096-6.72-0.576-51.872-0.128-11.648-1.28-118.4A32 32 0 0 0 739.52 544zM292.896 249.376a32 32 0 0 0 0 45.248l41.344 41.376H272a32 32 0 0 0 0 64h96v32h-96a32 32 0 0 0 0 64h96v64a32 32 0 0 0 64 0v-64h96a32 32 0 0 0 0-64h-96v-32h96a32 32 0 0 0 0-64h-61.216l41.408-41.376a32 32 0 0 0 0-45.248l-3.04-2.656a32 32 0 0 0-42.24 2.656l-62.4 62.368-62.368-62.4a32 32 0 0 0-45.248 0z" p-id="74654" fill="#e0620d"></path></svg>