<?xml version="1.0" standalone="no"?><!DOCTYPE svg PUBLIC "-//W3C//DTD SVG 1.1//EN" "http://www.w3.org/Graphics/SVG/1.1/DTD/svg11.dtd"><svg t="1713494435692" class="icon" viewBox="0 0 1024 1024" version="1.1" xmlns="http://www.w3.org/2000/svg" p-id="24853" xmlns:xlink="http://www.w3.org/1999/xlink" width="200" height="200"><path d="M512 0c282.766884 0 512 229.233116 512 512S794.766884 1024 512 1024 0 794.766884 0 512 229.233116 0 512 0z m224.898977 600.909395a20.908651 20.908651 0 0 0-20.944372 22.218419h-0.047628v69.465302a27.88614 27.88614 0 0 1-27.981396 27.778977h-363.758139a27.88614 27.88614 0 0 1-27.981395-27.778977v-69.465302h-0.047628a20.908651 20.908651 0 0 0-20.932466-22.230326 20.908651 20.908651 0 0 0-20.944372 22.230326h-0.047628v83.348837c0 30.696186 25.052279 55.56986 55.962791 55.569861h391.739535c30.910512 0 55.962791-24.885581 55.962791-55.569861v-83.348837h-0.047628a20.908651 20.908651 0 0 0-20.932465-22.230326z m27.981395-102.804837H247.212651c-11.585488 0-20.980093 9.33507-20.980093 20.837209 0 11.514047 9.406512 20.837209 20.980093 20.83721h517.667721c11.585488 0 20.980093-9.323163 20.980093-20.83721 0-11.50214-9.406512-20.837209-20.980093-20.837209zM701.916279 261.953488h-391.739535c-30.910512 0-55.962791 24.885581-55.962791 55.569861v97.232372a20.908651 20.908651 0 0 0 20.980094 20.563349c10.894884 0 19.84893-8.239628 20.884837-18.777303l0.107163-1.786046v-83.348837a27.88614 27.88614 0 0 1 27.981395-27.778977h363.758139a27.88614 27.88614 0 0 1 27.981396 27.778977v83.348837a20.908651 20.908651 0 0 0 20.980093 20.563349c10.894884 0 19.84893-8.239628 20.884837-18.777303l0.107163-1.786046v-97.232372c0-30.696186-25.052279-55.56986-55.962791-55.569861z" fill="#e0620d" p-id="24854"></path></svg>