<?xml version="1.0" standalone="no"?><!DOCTYPE svg PUBLIC "-//W3C//DTD SVG 1.1//EN" "http://www.w3.org/Graphics/SVG/1.1/DTD/svg11.dtd"><svg t="1713494646008" class="icon" viewBox="0 0 1024 1024" version="1.1" xmlns="http://www.w3.org/2000/svg" p-id="46331" xmlns:xlink="http://www.w3.org/1999/xlink" width="200" height="200"><path d="M511.248164 524.781204c-103.001468 0-187.207048-84.20558-187.207048-187.207048S408.246696 151.118943 511.248164 151.118943 698.455213 235.324523 698.455213 338.325991 614.249633 524.781204 511.248164 524.781204z m0-313.515418c-69.920705 0-127.060206 57.139501-127.060205 127.060205S441.32746 464.634361 511.248164 464.634361 638.30837 408.246696 638.30837 338.325991 581.168869 211.265786 511.248164 211.265786z" fill="#e0620d" p-id="46332"></path><path d="M779.653451 848.82232c-16.540382 0-30.073421-13.53304-30.073422-30.073421 0-131.571219-106.760646-238.331865-238.331865-238.331865s-238.331865 106.760646-238.331864 238.331865c0 16.540382-13.53304 30.073421-30.073422 30.073421s-30.073421-13.53304-30.073421-30.073421C212.769457 654.096916 346.596182 520.270191 511.248164 520.270191s298.478708 133.826725 298.478708 298.478708c0 16.540382-12.781204 30.073421-30.073421 30.073421z" fill="#e0620d" p-id="46333"></path><path d="M922.502203 1024H101.497797c-55.63583 0-101.497797-45.861968-101.497797-101.497797V101.497797C0 45.861968 45.861968 0 101.497797 0h821.004406c55.63583 0 101.497797 45.861968 101.497797 101.497797v821.004406c0 56.387665-45.110132 101.497797-101.497797 101.497797zM101.497797 75.183554c-14.284875 0-26.314244 12.029369-26.314243 26.314243v821.004406c0 14.284875 12.029369 26.314244 26.314243 26.314243h821.004406c14.284875 0 26.314244-12.029369 26.314243-26.314243V101.497797c0-14.284875-12.029369-26.314244-26.314243-26.314243H101.497797z" fill="#e0620d" p-id="46334"></path></svg>