<?xml version="1.0" standalone="no"?><!DOCTYPE svg PUBLIC "-//W3C//DTD SVG 1.1//EN" "http://www.w3.org/Graphics/SVG/1.1/DTD/svg11.dtd"><svg t="1713950656792" class="icon" viewBox="0 0 1029 1024" version="1.1" xmlns="http://www.w3.org/2000/svg" p-id="1863" xmlns:xlink="http://www.w3.org/1999/xlink" width="200.9765625" height="200"><path d="M512.024292 0A512 512 0 1 1 0.024292 512 512 512 0 0 1 512.024292 0z m-108.783323 205.251553a104.98617 104.98617 0 0 0-77.27721 25.04069l-9.23632 5.747043-8.312688 5.233915c-63.730607 39.921427-36.842654 202.070154 67.117258 354.05893s247.635999 239.939066 310.442974 201.043896c4.002405-2.463019 19.498898-11.391461 21.346162-12.520344a106.012427 106.012427 0 0 0 49.978753-48.028864 82.100621 82.100621 0 0 0-24.835438-85.692524c-44.334336-51.312888-77.790339-63.935859-115.65925-46.592102a149.012628 149.012628 0 0 0-17.343756 9.338946l-16.728002 10.262577c-12.725596 7.799559-51.312888-29.453598-98.212868-97.391862s-65.783123-115.65925-54.18641-123.150932c1.128884-0.821006 13.341351-8.107436 16.728001-10.262578 47.61836-29.966727 55.828423-63.012227 18.780517-132.592503a92.363199 92.363199 0 0 0-62.601723-55.110042z" fill="#e0620d" p-id="1864"></path></svg>