<?xml version="1.0" standalone="no"?><!DOCTYPE svg PUBLIC "-//W3C//DTD SVG 1.1//EN" "http://www.w3.org/Graphics/SVG/1.1/DTD/svg11.dtd"><svg t="1713515966060" class="icon" viewBox="0 0 1024 1024" version="1.1" xmlns="http://www.w3.org/2000/svg" p-id="52731" xmlns:xlink="http://www.w3.org/1999/xlink" width="200" height="200"><path d="M848 320a32 32 0 0 1 32 32v320a32 32 0 0 1-32 32H176a32 32 0 0 1-32-32V352a32 32 0 0 1 32-32h672zM385.152 546.176h-43.776l2.56 48.128h43.776l-2.56-48.128z m53.248 0h-43.776l2.56 48.128h43.776l-2.56-48.128z m-102.144 0H292.48l-16.64 48.128h43.776l16.64-48.128z m155.648 0h-43.776l2.56 48.128h43.776l-2.56-48.128z m242.944-126.464h-143.36l-3.584 24.32h99.584l-17.664 126.464-22.784 23.808h45.824c4.96 0 9.296-1.584 13.056-4.736 3.136-2.624 5.184-5.888 6.192-9.76l0.464-2.4 22.272-157.696zM579.2 453.76h-43.776l-19.712 140.544h43.776L579.2 453.76z m-121.6-43.776h-48.64l6.656 7.936-2.56 6.656H392.32l-3.584 24.32h15.36l-6.912 18.944-10.496-4.352-4.096 29.184 4.608 1.792-15.616 41.984h38.912l10.496-28.16 21.504 8.704 4.096-29.184-15.616-6.4 12.032-32.512h13.824l-12.288 87.552h53.504l5.632-38.912-11.264 9.728h-4.864l11.776-82.688h-47.104l5.376-14.592z m-87.552 0h-38.912l-2.56 16.896h-24.32l-3.328 24.32h24.32l-3.328 22.528-24.832 4.352-3.584 26.88 24.576-4.096-1.536 11.52-22.784 24.064h40.96c4.784 0 9.088-1.664 12.928-4.992 3.2-2.768 5.36-6.112 6.496-10.016l0.544-2.4 3.584-25.088 19.968-3.584 3.584-26.88-19.712 3.328 2.048-15.616h19.456l3.328-24.32h-19.2l2.304-16.896z m212.224 4.864h-43.776l0.256 34.048h43.52v-34.048z" fill="#E72828" p-id="52732"></path></svg>