<?xml version="1.0" standalone="no"?><!DOCTYPE svg PUBLIC "-//W3C//DTD SVG 1.1//EN" "http://www.w3.org/Graphics/SVG/1.1/DTD/svg11.dtd"><svg t="1714448821238" class="icon" viewBox="0 0 1024 1024" version="1.1" xmlns="http://www.w3.org/2000/svg" p-id="48379" xmlns:xlink="http://www.w3.org/1999/xlink" width="200" height="200"><path d="M804 832.2H220c-65.1 0-118.1-53-118.1-118.1V309.9c0-31.1 12.6-61.6 34.6-83.5 22.3-22.3 52-34.6 83.5-34.6h584c31.6 0 61.2 12.3 83.5 34.6l5.5 6.5c18.8 21.7 29.1 49 29.1 77.1v404.2c0 28-10.3 55.4-29.1 77.1-22.6 26-55 40.9-89 40.9zM220 248.3c-16.5 0-31.9 6.4-43.6 18-11.5 11.5-18 27.4-18 43.6v404.2c0 34 27.6 61.6 61.6 61.6h584c17.9 0 34.3-7.7 46.3-21.5 6.9-8.1 15.3-21.6 15.3-40.1V309.9c0-18.5-8.3-32-15.3-40.1l-4.5-5.4c-9.9-9.8-25.4-16.2-41.9-16.2H220z" fill="#231815" p-id="48380"></path><path d="M893.8 427.9H130.2c-15.6 0-28.2-12.6-28.2-28.2s12.6-28.2 28.2-28.2h763.7c15.6 0 28.2 12.6 28.2 28.2s-12.7 28.2-28.3 28.2zM454.2 662.3H263.6c-15.6 0-28.2-12.6-28.2-28.2s12.6-28.2 28.2-28.2h190.6c15.6 0 28.2 12.6 28.2 28.2s-12.6 28.2-28.2 28.2z" fill="#231815" p-id="48381"></path></svg>