<?xml version="1.0" standalone="no"?><!DOCTYPE svg PUBLIC "-//W3C//DTD SVG 1.1//EN" "http://www.w3.org/Graphics/SVG/1.1/DTD/svg11.dtd"><svg t="1713512846115" class="icon" viewBox="0 0 1024 1024" version="1.1" xmlns="http://www.w3.org/2000/svg" p-id="3195" xmlns:xlink="http://www.w3.org/1999/xlink" width="200" height="200"><path d="M511.5904 909.2096c-22.9888 0-45.1072-9.6768-60.7232-26.624L79.9744 479.5392c-26.0608-28.3136-28.928-71.7312-6.8608-103.2192l157.6448-224.8704c15.4112-22.016 40.704-35.1232 67.5328-35.1232h434.3808a82.432 82.432 0 0 1 68.096 35.9424l148.48 217.344a82.2528 82.2528 0 0 1-6.8096 101.7344l-369.5616 410.5728a82.65216 82.65216 0 0 1-60.8768 27.2896h-0.4096zM298.2912 167.5264c-10.1888 0-19.7632 4.9664-25.6 13.312L115.0464 405.7088c-8.3968 11.9296-7.2704 28.416 2.6112 39.168l370.944 402.9952a31.0016 31.0016 0 0 0 23.04 10.0864h0.2048c8.9088-0.0512 17.1008-3.7376 23.0912-10.3424l369.5616-410.5728c9.6768-10.752 10.752-26.624 2.56-38.6048l-148.48-217.344a31.26784 31.26784 0 0 0-25.856-13.6192H298.2912z" fill="#231815" p-id="3196"></path><path d="M512 719.5648c-7.2192 0-14.08-3.0208-18.8928-8.3456L350.0544 554.496a25.57952 25.57952 0 0 1 1.6384-36.1472 25.57952 25.57952 0 0 1 36.1472 1.6384L512 656.0256l124.2112-136.0384a25.58464 25.58464 0 1 1 37.7856 34.5088l-143.1552 156.7232a25.40544 25.40544 0 0 1-18.8416 8.3456z" fill="#FF3355" p-id="3197"></path></svg>