<?xml version="1.0" standalone="no"?><!DOCTYPE svg PUBLIC "-//W3C//DTD SVG 1.1//EN" "http://www.w3.org/Graphics/SVG/1.1/DTD/svg11.dtd"><svg t="1713512515445" class="icon" viewBox="0 0 1024 1024" version="1.1" xmlns="http://www.w3.org/2000/svg" p-id="2007" xmlns:xlink="http://www.w3.org/1999/xlink" width="200" height="200"><path d="M504.32 937.4208c-12.8512 0-25.7536-2.9696-37.4784-8.9088-95.0784-48.0768-316.2112-175.7184-316.2112-321.792v-343.04c0-32 20.992-60.9792 52.2752-72.1408l281.1904-100.1472a83.6608 83.6608 0 0 1 55.8592 0l281.1904 100.1472c31.2832 11.1104 52.2752 40.1408 52.2752 72.1408v342.9888c0 135.2704-231.424 269.8752-330.9056 321.4336-11.9808 6.2464-25.088 9.3184-38.1952 9.3184zM512 137.7792c-3.6352 0-7.2704 0.6144-10.752 1.8432L220.0576 239.8208c-11.1104 3.9424-18.2784 13.312-18.2784 23.9104v342.9888c0 96.1536 148.8384 205.6704 288.1024 276.1216 9.0112 4.5568 20.1216 4.5056 29.0304-0.1024 146.5856-76.032 303.2576-188.416 303.2576-276.0192v-343.04c0-10.5472-7.168-19.968-18.2272-23.9104L522.752 139.6224c-3.4816-1.2288-7.1168-1.8432-10.752-1.8432z" fill="#231815" p-id="2008"></path><path d="M491.776 614.8096c-10.6496 0-21.0432-3.9424-29.0304-11.008L357.9392 510.3616c-10.5472-9.4208-11.4688-25.6-2.0992-36.1472s25.6-11.4688 36.1472-2.0992l98.8672 88.064 150.6304-185.1392a25.6 25.6 0 0 1 35.9936-3.6864 25.6 25.6 0 0 1 3.6864 35.9936l-155.6992 191.3344a43.86304 43.86304 0 0 1-30.3104 15.9232c-1.0752 0.1536-2.2016 0.2048-3.3792 0.2048z" fill="#FF3355" p-id="2009"></path></svg>