<?xml version="1.0" standalone="no"?><!DOCTYPE svg PUBLIC "-//W3C//DTD SVG 1.1//EN" "http://www.w3.org/Graphics/SVG/1.1/DTD/svg11.dtd"><svg t="1713512568334" class="icon" viewBox="0 0 1024 1024" version="1.1" xmlns="http://www.w3.org/2000/svg" p-id="2687" xmlns:xlink="http://www.w3.org/1999/xlink" width="200" height="200"><path d="M755.6608 946.3296H277.6064c-64.9216 0-117.76-52.8384-117.76-117.76V195.4304c0-64.9216 52.8384-117.76 117.76-117.76h478.0544c64.9216 0 117.76 52.8384 117.76 117.76v633.1392c0 64.9216-52.8384 117.76-117.76 117.76zM277.6064 128.8704c-36.7104 0-66.56 29.8496-66.56 66.56v633.1392c0 36.7104 29.8496 66.56 66.56 66.56h478.0544c36.7104 0 66.56-29.8496 66.56-66.56V195.4304c0-36.7104-29.8496-66.56-66.56-66.56H277.6064z" fill="#231815" p-id="2688"></path><path d="M686.5408 764.0064H346.6752c-41.6256 0-75.52-33.8944-75.52-75.52V260.1984c0-41.6256 33.8944-75.52 75.52-75.52h339.8656c41.6256 0 75.52 33.8944 75.52 75.52v428.2368c0.0512 41.6768-33.8432 75.5712-75.52 75.5712zM346.6752 235.8784c-13.4144 0-24.32 10.9056-24.32 24.32v428.2368c0 13.4144 10.9056 24.32 24.32 24.32h339.8656c13.4144 0 24.32-10.9056 24.32-24.32V260.1984c0-13.4144-10.9056-24.32-24.32-24.32H346.6752zM597.5552 860.4672H435.712c-14.1312 0-25.6-11.4688-25.6-25.6s11.4688-25.6 25.6-25.6h161.8432c14.1312 0 25.6 11.4688 25.6 25.6s-11.4688 25.6-25.6 25.6z" fill="#231815" p-id="2689"></path><path d="M601.9584 488.6528H542.208v-24.8832h59.7504c14.1312 0 25.6-11.4688 25.6-25.6s-11.4688-25.6-25.6-25.6h-30.3104l24.7808-22.9376a25.58976 25.58976 0 0 0 1.3824-36.1984 25.58976 25.58976 0 0 0-36.1984-1.3824l-45.4144 42.0864-44.3904-41.9328a25.63072 25.63072 0 0 0-36.1984 1.0752 25.63072 25.63072 0 0 0 1.0752 36.1984l24.4736 23.0912h-29.8496c-14.1312 0-25.6 11.4688-25.6 25.6s11.4688 25.6 25.6 25.6H491.008v24.8832H431.2576c-14.1312 0-25.6 11.4688-25.6 25.6s11.4688 25.6 25.6 25.6H491.008v37.9392c0 14.1312 11.4688 25.6 25.6 25.6s25.6-11.4688 25.6-25.6v-37.9392h59.7504c14.1312 0 25.6-11.4688 25.6-25.6s-11.4688-25.6-25.6-25.6z" fill="#FF3355" p-id="2690"></path></svg>