<?xml version="1.0" standalone="no"?><!DOCTYPE svg PUBLIC "-//W3C//DTD SVG 1.1//EN" "http://www.w3.org/Graphics/SVG/1.1/DTD/svg11.dtd"><svg t="1713512520842" class="icon" viewBox="0 0 1024 1024" version="1.1" xmlns="http://www.w3.org/2000/svg" p-id="2186" xmlns:xlink="http://www.w3.org/1999/xlink" width="200" height="200"><path d="M717.1584 938.1376H288c-78.6432 0-135.168-48.64-154.0608-74.3424-0.2048-0.256-0.4096-0.5632-0.6144-0.8192-76.4416-113.2032-67.6864-238.7456 27.648-395.1616 43.4688-71.3216 107.8272-116.6848 163.1744-144.5888-26.1632-31.1808-44.5952-69.7856-54.8864-115.2l-0.3072-1.536c-7.3216-44.9536 8.96-83.0976 42.5472-99.6352 29.44-14.4896 64.3584-9.2672 95.8464 13.056 20.3776-22.8864 50.0736-38.8096 82.0736-42.8544 42.1888-5.2736 84.0192 10.0352 117.4016 42.3936 43.3152-23.2448 91.136-24.2688 121.9072-1.0752 15.104 11.4176 47.2576 46.08 20.0192 121.856-3.84 12.544-16.9472 47.5648-51.0464 83.456 95.7952 50.4832 167.6288 126.0032 208.9472 220.3648 46.336 105.728 40.1408 197.2224 37.1712 222.7712-12.3392 105.6768-99.2256 171.3152-226.6624 171.3152zM175.5136 833.8944c11.3664 15.1552 52.736 53.0944 112.5376 53.0944h429.1584c48.4352 0 162.5088-12.288 175.872-126.1056 11.4688-97.792-26.2144-308.736-250.9312-407.1424a25.67168 25.67168 0 0 1-15.1552-20.3264c-1.0752-8.96 2.6112-17.8688 9.7792-23.3984 46.6944-35.9936 60.928-77.2096 63.2832-85.1456l0.4608-1.3824c11.264-31.0784 10.3424-54.4768-2.5088-64.1536-14.7456-11.1104-48.9472-8.96-80.5376 13.9264a25.62048 25.62048 0 0 1-34.9184-4.608c-24.4224-30.1568-55.2448-44.544-86.6816-40.6528-26.5728 3.328-50.176 19.456-60.16 41.1136-3.584 7.7312-10.752 13.2096-19.1488 14.5408-8.3968 1.3312-16.9472-1.536-22.784-7.7824-24.7808-26.4192-47.5648-28.8768-59.5968-22.9888-12.6464 6.1952-18.1248 22.8864-14.7456 44.6976 11.1104 48.4352 33.0752 86.8352 65.28 114.176a25.5232 25.5232 0 0 1 8.704 23.4496 25.48224 25.48224 0 0 1-15.4624 19.6608C324.1472 377.2416 250.368 419.584 204.7488 494.4384c-84.6848 138.9568-93.696 243.6608-29.2352 339.456z" fill="#231815" p-id="2187"></path><path d="M640.2048 663.3472H539.648V602.112h100.5568c14.1312 0 25.6-11.4688 25.6-25.6s-11.4688-25.6-25.6-25.6h-76.032l59.4944-55.1424a25.58976 25.58976 0 0 0 1.3824-36.1984 25.58976 25.58976 0 0 0-36.1984-1.3824l-75.52 69.9392-73.9328-69.7344c-10.2912-9.728-26.4704-9.216-36.1984 1.024s-9.216 26.4704 1.024 36.1984l58.5728 55.296H387.9424c-14.1312 0-25.6 11.4688-25.6 25.6s11.4688 25.6 25.6 25.6H488.448v61.2352H387.9424c-14.1312 0-25.6 11.4688-25.6 25.6s11.4688 25.6 25.6 25.6H488.448v68.3008c0 14.1312 11.4688 25.6 25.6 25.6s25.6-11.4688 25.6-25.6v-68.3008h100.5568c14.1312 0 25.6-11.4688 25.6-25.6s-11.4688-25.6-25.6-25.6z" fill="#FF3355" p-id="2188"></path></svg>