<?xml version="1.0" standalone="no"?><!DOCTYPE svg PUBLIC "-//W3C//DTD SVG 1.1//EN" "http://www.w3.org/Graphics/SVG/1.1/DTD/svg11.dtd"><svg t="1713512902696" class="icon" viewBox="0 0 1024 1024" version="1.1" xmlns="http://www.w3.org/2000/svg" p-id="48648" xmlns:xlink="http://www.w3.org/1999/xlink" width="200" height="200"><path d="M243.115974 250.958425c6.722101 4.4814 13.444201 6.722101 20.166302 11.203501h206.14442c-8.962801-4.4814-13.444201-11.203501-13.444201-15.684902 0-11.203501 20.166302-26.888403 53.776805-26.888403 31.369803 0 53.776805 15.684902 53.776805 26.888403 0 4.4814-4.4814 11.203501-13.444201 15.684902H792.087527c56.017505-38.091904 76.183807-120.997812 44.814005-185.978119C814.49453 29.129103 771.921225 0 724.866521 0c-20.166302 0-40.332604 6.722101-58.258206 15.684902-29.129103 17.925602-62.739606 53.776805-85.146608 94.109409-15.684902 26.888403-24.647702 51.536105-26.888403 76.183807-13.444201-6.722101-29.129103-8.962801-47.054704-8.962801s-33.610503 4.4814-47.054705 8.962801c-6.722101-26.888403-22.407002-60.498906-49.295405-98.590809-42.573304-60.498906-112.035011-82.905908-174.774617-58.258206 0 2.2407-4.4814 4.4814-8.962801 6.722101-29.129103 17.925602-47.054705 51.536105-53.776805 89.628008 0 6.722101-2.2407 11.203501-2.2407 17.925602 0 11.203501 8.962801 22.407002 20.166302 22.407002s20.166302-8.962801 20.166302-22.407002V134.442013c4.4814-26.888403 17.925602-49.295405 35.851203-60.498906 2.2407-2.2407 4.4814-2.2407 4.481401-2.2407 47.054705-20.166302 100.83151-2.2407 132.201313 44.814004 40.332604 58.258206 47.054705 91.868709 42.573304 103.07221v2.240701c-2.2407 4.4814-4.4814 11.203501-4.481401 15.684901-8.962801 8.962801-47.054705 40.332604-159.089715-24.647702-159.089716-89.628009-244.236324 0-248.717725 4.4814-6.722101 8.962801-8.962801 22.407002 0 31.369803 6.722101 8.962801 20.166302 8.962801 26.888403 0 0-2.2407 69.461707-73.943107 201.66302 2.240701z m374.196936-118.757112c17.925602-33.610503 47.054705-64.980306 69.461707-78.424508 13.444201-6.722101 26.888403-11.203501 40.332604-11.203501 31.369803 0 62.739606 20.166302 76.183807 51.536105 11.203501 22.407002 13.444201 49.295405 6.722101 73.943107-6.722101 24.647702-22.407002 44.814004-42.573304 58.258206-22.407002 13.444201-58.258206 22.407002-89.628009 22.407002-40.332604 0-69.461707-11.203501-78.424507-31.369803-8.962801-17.925602-2.2407-49.295405 17.925601-85.146608zM935.492341 262.161926H110.914661c-44.814004 0-80.665208 38.091904-80.665208 85.146608V492.954048c0 42.573304 29.129103 76.183807 67.221007 82.905908v311.457331c0 76.183807 60.498906 136.682713 136.682713 136.682713h578.100656c76.183807 0 136.682713-62.739606 136.682714-136.682713v-313.698031c38.091904-6.722101 67.221007-40.332604 67.221006-82.905908v-145.645514c0-44.814004-35.851204-82.905908-80.665208-82.905908zM478.389497 979.185996H234.153173c-51.536105 0-91.868709-42.573304-91.868709-91.868709V575.859956h336.105033v403.32604z m0-448.140044H110.914661c-20.166302 0-35.851204-17.925602-35.851204-40.332604v-145.645514c0-22.407002 15.684902-40.332604 35.851204-40.332604H478.389497v226.310722z m425.733041 356.271335c0 51.536105-40.332604 91.868709-91.868709 91.868709H523.203501v-403.32604h380.919037v311.457331z m67.221007-396.603939c0 22.407002-15.684902 40.332604-35.851204 40.332604H523.203501v-224.070022h412.28884c20.166302 0 35.851204 17.925602 35.851204 40.332604v143.404814z" fill="#040000" p-id="48649"></path></svg>