<?xml version="1.0" standalone="no"?><!DOCTYPE svg PUBLIC "-//W3C//DTD SVG 1.1//EN" "http://www.w3.org/Graphics/SVG/1.1/DTD/svg11.dtd"><svg t="1714460192390" class="icon" viewBox="0 0 1024 1024" version="1.1" xmlns="http://www.w3.org/2000/svg" p-id="52845" xmlns:xlink="http://www.w3.org/1999/xlink" width="200" height="200"><path d="M512 800.611234c-179.984211 0-347.623255-97.278557-437.456237-253.928317-12.344143-21.383006-12.344143-47.982828 0.039909-69.444629 89.793072-156.569942 257.43314-253.848499 437.416328-253.848498s347.623255 97.278557 437.456237 253.928316c12.344143 21.383006 12.344143 47.982828-0.039909 69.444629C859.623255 703.332676 691.984211 800.611234 512 800.611234zM512 284.550755c-158.12332 0-305.414945 85.532025-384.417253 223.188198-1.473561 2.587941-1.473561 5.933129-0.039909 8.441253 79.041194 137.734968 226.333842 223.268016 384.457162 223.268016s305.414945-85.532025 384.417253-223.188198c1.473561-2.587941 1.473561-5.933129 0.039909-8.441253C817.414945 370.083803 670.122297 284.550755 512 284.550755z" fill="#231815" p-id="52846"></path><path d="M648.414903 504.659825c-93.254917 0-169.377642-72.541153-175.500083-164.244738-78.416977 17.797341-137.00842 87.791485-137.008421 171.594123 0 97.257068 78.842673 176.097694 176.097694 176.097694 97.257068 0 176.098717-78.840626 176.098717-176.097694 0-4.001127-0.335644-7.91732-0.599657-11.852956C674.91444 503.014348 661.867286 504.659825 648.414903 504.659825z" fill="#231815" p-id="52847"></path></svg>