<?xml version="1.0" standalone="no"?><!DOCTYPE svg PUBLIC "-//W3C//DTD SVG 1.1//EN" "http://www.w3.org/Graphics/SVG/1.1/DTD/svg11.dtd"><svg t="1713512886268" class="icon" viewBox="0 0 1024 1024" version="1.1" xmlns="http://www.w3.org/2000/svg" p-id="47566" xmlns:xlink="http://www.w3.org/1999/xlink" width="200" height="200"><path d="M398.9 458.9H87c-33.1 0-60-26.9-60-60V87c0-33.1 26.9-60 60-60h311.9c33.1 0 60 26.9 60 60v311.9c0 33.1-26.9 60-60 60zM89.8 396H396V89.9H89.8V396zM937 458.9H625.1c-33.1 0-60-26.9-60-60V87c0-33.1 26.9-60 60-60H937c33.1 0 60 26.9 60 60v311.9c0 33.1-26.9 60-60 60zM627.9 396h306.2V89.9H627.9V396zM398.9 997H87c-33.1 0-60-26.9-60-60V625.1c0-33.1 26.9-60 60-60h311.9c33.1 0 60 26.9 60 60V937c0 33.1-26.9 60-60 60zM89.8 934.1H396V628H89.8v306.1zM937 997H625.1c-33.1 0-60-26.9-60-60V625.1c0-33.1 26.9-60 60-60H937c33.1 0 60 26.9 60 60V937c0 33.1-26.9 60-60 60z m-309.1-62.9h306.2V628H627.9v306.1z" fill="#2c2c2c" p-id="47567"></path></svg>