<?xml version="1.0" standalone="no"?><!DOCTYPE svg PUBLIC "-//W3C//DTD SVG 1.1//EN" "http://www.w3.org/Graphics/SVG/1.1/DTD/svg11.dtd"><svg t="1713512559874" class="icon" viewBox="0 0 1024 1024" version="1.1" xmlns="http://www.w3.org/2000/svg" p-id="2524" xmlns:xlink="http://www.w3.org/1999/xlink" width="200" height="200"><path d="M512 936.0384c-205.7216 0-373.0432-167.3216-373.0432-373.0432 0-195.2768 163.2768-383.3344 325.0688-483.072 29.184-18.0224 66.816-17.8176 95.8464 0.5632 161.8432 102.3488 325.1712 291.2256 325.1712 482.56 0 205.6192-167.3216 372.992-373.0432 372.992z m-0.512-818.3296c-7.168 0-14.336 1.9456-20.6336 5.7856-144.8448 89.2928-300.7488 264.9088-300.7488 439.5008 0 177.4592 144.384 321.8432 321.8432 321.8432s321.8432-144.384 321.8432-321.8432c0-171.8272-151.3472-344.4224-301.312-439.2448a39.05024 39.05024 0 0 0-20.992-6.0416z" fill="#231815" p-id="2525"></path><path d="M640.4096 560.4352H537.6V497.152h102.8096c14.1312 0 25.6-11.4688 25.6-25.6s-11.4688-25.6-25.6-25.6h-78.592l61.44-56.9344a25.58976 25.58976 0 0 0 1.3824-36.1984 25.58976 25.58976 0 0 0-36.1984-1.3824L511.2832 423.0144 435.712 351.6416a25.63072 25.63072 0 0 0-36.1984 1.0752 25.63072 25.63072 0 0 0 1.0752 36.1984L461.056 445.952H383.5904c-14.1312 0-25.6 11.4688-25.6 25.6s11.4688 25.6 25.6 25.6H486.4v63.2832H383.5904c-14.1312 0-25.6 11.4688-25.6 25.6s11.4688 25.6 25.6 25.6H486.4v69.9904c0 14.1312 11.4688 25.6 25.6 25.6s25.6-11.4688 25.6-25.6v-69.9904h102.8096c14.1312 0 25.6-11.4688 25.6-25.6s-11.4688-25.6-25.6-25.6z" fill="#FF3355" p-id="2526"></path></svg>