<?xml version="1.0" standalone="no"?><!DOCTYPE svg PUBLIC "-//W3C//DTD SVG 1.1//EN" "http://www.w3.org/Graphics/SVG/1.1/DTD/svg11.dtd"><svg t="1713512537595" class="icon" viewBox="0 0 1024 1024" version="1.1" xmlns="http://www.w3.org/2000/svg" p-id="2355" xmlns:xlink="http://www.w3.org/1999/xlink" width="200" height="200"><path d="M505.1392 918.7328c-226.816 0-411.392-184.5248-411.392-411.392 0-68.7616 16.5376-134.6048 48.2816-193.7408l-48.1792 14.7968a25.6512 25.6512 0 0 1-32-16.9472c-4.1472-13.5168 3.4304-27.8528 16.9472-32l115.9168-35.5328c10.7008-3.2768 22.3232 0.768 28.6208 10.0352a25.58976 25.58976 0 0 1-1.024 30.3104C171.6736 348.3648 144.9472 425.472 144.9472 507.3408c0 198.6048 161.5872 360.192 360.192 360.192 46.3872 0 91.5456-8.704 134.144-25.8048 13.1072-5.2736 28.0064 1.0752 33.28 14.2336a25.55904 25.55904 0 0 1-14.2336 33.28c-48.6912 19.5584-100.2496 29.4912-153.1904 29.4912zM811.4688 767.488c-8.3456 0-16.384-4.096-21.1968-11.264a25.52832 25.52832 0 0 1 0.8704-29.9008C839.6288 663.04 865.28 587.3664 865.28 507.392c0-198.6048-161.5872-360.192-360.192-360.192-48.64 0-95.7952 9.5232-140.1856 28.3136-13.0048 5.4784-28.0576-0.5632-33.536-13.6192a25.53856 25.53856 0 0 1 13.6192-33.536c50.7392-21.4528 104.6016-32.3584 160.1536-32.3584 226.816 0 411.392 184.5248 411.392 411.392 0 67.84-16.1792 133.0688-47.2576 191.744l61.5424-17.2544c13.6704-3.84 27.7504 4.1472 31.5392 17.7664 3.84 13.6192-4.1472 27.7504-17.7664 31.5392l-126.2592 35.3792c-2.2528 0.5632-4.5568 0.9216-6.8608 0.9216z" fill="#231815" p-id="2356"></path><path d="M624.64 541.3376h-100.5568V480.0512H624.64c14.1312 0 25.6-11.4688 25.6-25.6s-11.4688-25.6-25.6-25.6h-76.032L608.1024 373.76a25.58976 25.58976 0 0 0 1.3824-36.1984 25.58976 25.58976 0 0 0-36.1984-1.3824L497.8176 406.1184 423.8848 336.3328a25.63072 25.63072 0 0 0-36.1984 1.0752 25.63072 25.63072 0 0 0 1.0752 36.1984l58.5728 55.296H372.3776c-14.1312 0-25.6 11.4688-25.6 25.6s11.4688 25.6 25.6 25.6h100.5568v61.2352H372.3776c-14.1312 0-25.6 11.4688-25.6 25.6s11.4688 25.6 25.6 25.6h100.5568v68.3008c0 14.1312 11.4688 25.6 25.6 25.6s25.6-11.4688 25.6-25.6v-68.3008H624.64c14.1312 0 25.6-11.4688 25.6-25.6s-11.4688-25.6-25.6-25.6z" fill="#FF3355" p-id="2357"></path></svg>