<?xml version="1.0" standalone="no"?><!DOCTYPE svg PUBLIC "-//W3C//DTD SVG 1.1//EN" "http://www.w3.org/Graphics/SVG/1.1/DTD/svg11.dtd"><svg t="1713490776693" class="icon" viewBox="0 0 1024 1024" version="1.1" xmlns="http://www.w3.org/2000/svg" p-id="26060" xmlns:xlink="http://www.w3.org/1999/xlink" width="200" height="200"><path d="M832 165H191.8c-51.9 0-94.1 41.5-94.1 92.6v424.3c0 51 42.2 92.6 94.1 92.6h301.3v68.6H304.8c-10.4 0-18.8 8.4-18.8 18.8s8.4 18.8 18.8 18.8H719c10.4 0 18.8-8.4 18.8-18.8s-8.4-18.8-18.8-18.8H530.7v-68.6H832c51.9 0 94.1-41.5 94.1-92.6V257.6c0-51-42.2-92.6-94.1-92.6z m56.5 517c0 30.3-25.4 55-56.5 55H191.8c-31.2 0-56.5-24.7-56.5-55V257.7c0-30.3 25.4-55 56.5-55v-0.1H832c31.2 0 56.5 24.7 56.5 55V682z" p-id="26061"></path><path d="M744.3 329.4H608.1c-10.4 0-18.8 8.4-18.8 18.8s8.4 18.8 18.8 18.8h91.5L559.1 509.7 454 402.9c-7.1-7.2-19.7-7.2-26.8 0L244.6 588.3c-7.3 7.4-7.2 19.3 0.2 26.6 3.7 3.6 8.4 5.4 13.2 5.4s9.7-1.9 13.4-5.7l169.2-171.7 105.1 106.7c7.1 7.2 19.7 7.2 26.8 0l153-155.3v90.3c0 10.4 8.4 18.8 18.8 18.8s18.9-8.4 18.8-18.7V348.2c0-10.4-8.4-18.8-18.8-18.8z" p-id="26062"></path></svg>