<?xml version="1.0" standalone="no"?><!DOCTYPE svg PUBLIC "-//W3C//DTD SVG 1.1//EN" "http://www.w3.org/Graphics/SVG/1.1/DTD/svg11.dtd"><svg t="1737081038971" class="icon" viewBox="0 0 1024 1024" version="1.1" xmlns="http://www.w3.org/2000/svg" p-id="2718" xmlns:xlink="http://www.w3.org/1999/xlink" width="200" height="200"><path d="M512 894.5c-51.6 0-101.7-10.1-148.9-30.1-45.6-19.3-86.5-46.8-121.6-82-35.1-35.1-62.7-76-82-121.6-20-47.2-30.1-97.3-30.1-148.9s10.1-101.7 30.1-148.9c19.3-45.6 46.8-86.5 82-121.6 35.1-35.1 76-62.7 121.6-82 47.2-20 97.3-30.1 148.9-30.1s101.7 10.1 148.9 30.1c45.6 19.3 86.5 46.8 121.6 82 35.1 35.1 62.7 76 82 121.6 20 47.2 30.1 97.3 30.1 148.9s-10.1 101.7-30.1 148.9c-19.3 45.6-46.8 86.5-82 121.6-35.1 35.1-76 62.7-121.6 82-47.2 20-97.3 30.1-148.9 30.1z m-17.3-361.9v205.8c0 11 9 20 20 20s20-9 20-20l-1-205.7h206.7c11 0 20-9 20-20s-9-20-20-20H534.7V287c0-11-9-20-20-20s-20 9-20 20v205.7H289c-11 0-20 9-20 20s9 20 20 20l205.7-0.1z" p-id="2719" fill="#0165ff"></path></svg>