<?xml version="1.0" standalone="no"?><!DOCTYPE svg PUBLIC "-//W3C//DTD SVG 1.1//EN" "http://www.w3.org/Graphics/SVG/1.1/DTD/svg11.dtd"><svg t="1737081314640" class="icon" viewBox="0 0 1024 1024" version="1.1" xmlns="http://www.w3.org/2000/svg" p-id="8856" xmlns:xlink="http://www.w3.org/1999/xlink" width="200" height="200"><path d="M512 0C229.052632 0 0 229.052632 0 512s229.052632 512 512 512 512-229.052632 512-512S794.947368 0 512 0z m212.884211 555.115789H555.115789v169.768422c0 24.252632-18.863158 43.115789-43.115789 43.115789s-43.115789-18.863158-43.115789-43.115789V555.115789H299.115789c-24.252632 0-43.115789-18.863158-43.115789-43.115789s18.863158-43.115789 43.115789-43.115789h169.768422V299.115789c0-24.252632 18.863158-43.115789 43.115789-43.115789s43.115789 18.863158 43.115789 43.115789v169.768422h169.768422c24.252632 0 43.115789 18.863158 43.115789 43.115789s-18.863158 43.115789-43.115789 43.115789z" fill="#0165ff" p-id="8857"></path></svg>