<?xml version="1.0" standalone="no"?><!DOCTYPE svg PUBLIC "-//W3C//DTD SVG 1.1//EN" "http://www.w3.org/Graphics/SVG/1.1/DTD/svg11.dtd"><svg t="1737086840153" class="icon" viewBox="0 0 1024 1024" version="1.1" xmlns="http://www.w3.org/2000/svg" p-id="12538" xmlns:xlink="http://www.w3.org/1999/xlink" width="200" height="200"><path d="M175.04 856l129.984-44.032 23.04 12.032c54.656 26.688 115.968 40 184 40 113.92-2.688 205.952-37.312 275.968-104 70.016-66.688 105.984-149.312 108.032-248-2.048-99.328-37.888-182.144-107.52-248.512S626.752 162.624 512.064 160c-114.688 2.688-206.848 37.12-276.544 103.488C165.824 329.792 129.984 412.608 128 512c0 37.312 6.016 73.344 18.048 108.032a350.08 350.08 0 0 0 51.008 96l22.016 28.928-44.032 111.04z m-46.08 81.984a29.184 29.184 0 0 1-32.512-8.512 30.4 30.4 0 0 1-6.464-33.472l56-140.992A405.76 405.76 0 0 1 84.992 640 396.544 396.544 0 0 1 64 512c1.344-110.016 41.536-205.824 120.512-287.488C263.488 142.848 372.672 100.032 512 96c139.328 4.032 248.512 46.848 327.488 128.512S958.656 401.984 960 512c-1.344 110.016-41.664 205.824-120.96 287.488-79.36 81.664-188.352 124.48-327.04 128.512-80-0.64-150.656-16.32-212.032-47.04l-171.008 57.024z" fill="#959595" p-id="12539"></path></svg>