<?xml version="1.0" standalone="no"?>
<svg xmlns="http://www.w3.org/2000/svg" width="32" height="32">
    <rect width="32" height="32" opacity="0"></rect>
    <g>
        <path d="M23.68 6.34Q22.69 6.34 22.02 7.01Q21.34 7.68 21.34 8.67Q21.34 9.63 22.02 10.32Q22.69 11.01 23.68 11.01Q24.64 11.01 25.33 10.32Q26.02 9.63 26.02 8.67Q26.02 7.68 25.33 7.01Q24.64 6.34 23.68 6.34ZM8.32 6.34Q7.36 6.34 6.69 7.01Q6.02 7.68 6.02 8.67Q6.02 9.63 6.69 10.32Q7.36 11.01 8.32 11.01Q9.28 11.01 9.97 10.32Q10.66 9.63 10.66 8.67Q10.66 7.68 9.97 7.01Q9.28 6.34 8.32 6.34ZM23.68 20.99Q22.69 20.99 22.02 21.68Q21.34 22.37 21.34 23.33Q21.34 24.29 22.02 24.98Q22.69 25.66 23.68 25.66Q24.64 25.66 25.33 24.98Q26.02 24.29 26.02 23.33Q26.02 22.37 25.33 21.68Q24.64 20.99 23.68 20.99ZM8.32 20.99Q7.36 20.99 6.69 21.68Q6.02 22.37 6.02 23.33Q6.02 24.29 6.69 24.98Q7.36 25.66 8.32 25.66Q9.28 25.66 9.97 24.98Q10.66 24.29 10.66 23.33Q10.66 22.37 9.97 21.68Q9.28 20.99 8.32 20.99Z"
              fill="rgba(0,0,0,0.9019607843137255)"></path>
    </g>
</svg>