<?xml version="1.0" standalone="no"?>
<svg xmlns="http://www.w3.org/2000/svg" width="32" height="32"><rect width="32" height="32" opacity="0"></rect><g><path d="M9.22 13.73Q8.51 13.73 8 14.22Q7.49 14.72 7.49 15.46Q7.49 16.16 8 16.67Q8.51 17.18 9.22 17.18Q9.95 17.18 10.46 16.67Q10.98 16.16 10.98 15.46Q10.98 14.75 10.46 14.24Q9.95 13.73 9.22 13.73ZM14.27 15.46Q14.27 16.16 14.78 16.67Q15.3 17.18 16 17.18Q16.74 17.18 17.23 16.67Q17.73 16.16 17.73 15.46Q17.73 14.72 17.23 14.22Q16.74 13.73 16 13.73Q15.3 13.73 14.78 14.22Q14.27 14.72 14.27 15.46ZM21.06 15.46Q21.06 16.16 21.57 16.67Q22.08 17.18 22.78 17.18Q23.52 17.18 24.02 16.67Q24.51 16.16 24.51 15.46Q24.51 14.72 24.02 14.22Q23.52 13.73 22.78 13.73Q22.08 13.73 21.57 14.22Q21.06 14.72 21.06 15.46Z" fill="rgba(0,0,0,0.9019607843137255)"></path></g><g><path d="M2.37 15.14Q2.37 17.63 3.57 19.97Q4.77 22.3 6.88 24.03Q7.26 24.32 7.07 25.07Q6.88 25.82 6.4 27.07L6.21 27.52Q6.11 27.78 6.13 28.06Q6.14 28.35 6.34 28.54Q6.56 28.83 6.75 28.88Q6.94 28.93 7.3 28.86Q8.64 28.58 9.55 28.22Q10.46 27.87 11.46 27.36L11.55 27.3Q11.84 27.14 12.16 26.99Q12.48 26.85 12.7 26.82Q14.27 27.14 16 27.14Q19.68 27.14 22.82 25.52Q25.95 23.9 27.81 21.15Q29.66 18.4 29.66 15.14Q29.66 11.87 27.81 9.1Q25.95 6.34 22.82 4.72Q19.68 3.1 16 3.1Q12.32 3.1 9.18 4.72Q6.05 6.34 4.21 9.1Q2.37 11.87 2.37 15.14ZM4.45 15.14Q4.45 12.42 6 10.11Q7.55 7.81 10.21 6.45Q12.86 5.09 16 5.09Q19.14 5.09 21.78 6.45Q24.42 7.81 25.97 10.11Q27.52 12.42 27.52 15.14Q27.52 17.86 25.97 20.16Q24.42 22.46 21.78 23.81Q19.14 25.15 16 25.15Q14.56 25.15 13.15 24.86Q12.61 24.74 12.1 24.91Q11.58 25.09 10.78 25.5Q9.34 26.18 8.8 26.4L8.83 26.34Q9.18 25.12 9.09 24.11Q8.99 23.1 8.13 22.46Q6.37 21.06 5.41 19.14Q4.45 17.22 4.45 15.14Z" fill="rgba(0,0,0,0.45098039215686275)"></path></g></svg>