<?xml version="1.0" standalone="no"?>
<svg xmlns="http://www.w3.org/2000/svg" width="32" height="32"><rect width="32" height="32" opacity="0"></rect><g><path d="M3.36 12.45Q3.36 10.08 4.21 8.38Q5.06 6.69 6.61 5.82Q8.16 4.96 10.3 4.96Q11.71 4.96 13.01 5.54Q14.3 6.11 15.3 7.17Q15.55 7.49 16 7.49Q16.48 7.49 16.74 7.17Q17.73 6.11 19.02 5.54Q20.32 4.96 21.7 4.96Q24.1 4.96 25.66 6.03Q27.23 7.1 27.94 8.8Q28.64 10.5 28.64 12.45Q28.64 14.88 25.92 18.56Q24.42 20.58 22.38 22.56Q20.35 24.54 18.56 25.81Q16.77 27.07 16 27.07Q15.23 27.07 13.54 25.84Q11.84 24.61 9.82 22.62Q7.81 20.64 6.18 18.56Q4.9 16.96 4.13 15.31Q3.36 13.66 3.36 12.45ZM21.7 2.98Q20.13 2.98 18.67 3.54Q17.22 4.1 16 5.12Q14.78 4.1 13.33 3.54Q11.87 2.98 10.3 2.98Q7.71 2.98 5.66 4.22Q3.62 5.47 2.48 7.57Q1.34 9.66 1.34 12.16Q1.34 14.37 2.9 17.14Q4.45 19.9 6.94 22.53Q9.6 25.31 12.11 27.17Q14.62 29.02 15.97 29.02Q17.47 29.02 19.89 27.22Q22.3 25.41 25.02 22.53Q27.49 19.97 29.07 17.18Q30.66 14.4 30.66 12.16Q30.66 9.66 29.5 7.57Q28.35 5.47 26.3 4.22Q24.26 2.98 21.7 2.98Z" fill="rgba(0,0,0,0.9019607843137255)"></path></g></svg>