<?xml version="1.0" standalone="no"?><!DOCTYPE svg PUBLIC "-//W3C//DTD SVG 1.1//EN" "http://www.w3.org/Graphics/SVG/1.1/DTD/svg11.dtd"><svg height="480" node-id="1" sillyvg="true" template-height="480" template-width="480" version="1.1" viewBox="0 0 480 480" width="480" xmlns="http://www.w3.org/2000/svg" xmlns:xlink="http://www.w3.org/1999/xlink"><defs node-id="21"><linearGradient gradientUnits="objectBoundingBox" id="linearGradient-1" node-id="7" spreadMethod="pad" x1="0.5" x2="0.5" y1="0" y2="1"><stop offset="0" stop-color="#ffffff" stop-opacity="0.2006392"></stop><stop offset="1" stop-color="#ffffff"></stop></linearGradient></defs><g node-id="28"><g node-id="29"><g node-id="30"><path d="M 252.70 432.60 L 239.40 431.20 L 226.50 429.30 L 213.80 426.90 L 201.40 423.90 L 189.10 420.50 L 177.20 416.60 L 165.70 412.20 L 154.50 407.40 L 143.60 402.10 L 133.10 396.50 L 123.10 390.40 L 113.50 384.00 L 104.20 377.10 L 95.50 369.90 L 87.30 362.40 L 79.70 354.60 L 73.80 348.10 L 68.40 341.30 L 63.40 334.50 L 58.80 327.40 L 54.50 320.20 L 50.60 312.80 L 47.20 305.20 L 44.20 297.50 L 41.60 289.70 L 39.40 281.70 L 37.70 273.60 L 36.50 265.50 L 35.80 257.10 L 35.60 248.70 L 35.90 240.10 L 36.60 231.90 L 37.70 223.50 L 39.30 214.80 L 43.70 197.20 L 49.70 179.60 L 53.30 170.60 L 61.70 153.10 L 71.60 135.90 L 77.10 127.50 L 83.00 119.30 L 89.20 111.20 L 95.80 103.40 L 102.60 95.90 L 109.90 88.60 L 117.40 81.70 L 125.30 75.00 L 133.50 68.80 L 142.00 62.90 L 150.90 57.50 L 160.00 52.50 L 169.40 48.00 L 179.00 44.00 L 189.00 40.50 L 199.30 37.60 L 207.60 35.70 L 216.10 34.10 L 224.80 33.00 L 233.80 32.30 L 242.90 32.00 L 253.40 32.20 L 263.70 32.80 L 273.70 33.90 L 283.40 35.40 L 293.00 37.30 L 302.50 39.70 L 311.80 42.50 L 320.80 45.60 L 329.60 49.10 L 338.20 53.00 L 346.60 57.30 L 354.80 62.00 L 362.60 66.90 L 370.30 72.20 L 377.70 77.80 L 386.50 85.30 L 395.00 93.20 L 402.90 101.50 L 410.50 110.30 L 417.50 119.40 L 424.10 128.90 L 430.10 138.80 L 435.70 149.00 L 440.70 159.50 L 445.20 170.30 L 449.10 181.40 L 452.40 192.80 L 455.20 204.30 L 457.30 216.00 L 458.90 227.90 L 459.80 240.10 L 459.30 250.90 L 458.10 261.60 L 456.40 272.10 L 454.00 282.40 L 451.10 292.60 L 447.70 302.50 L 443.80 312.20 L 439.40 321.70 L 434.50 331.00 L 429.20 339.90 L 423.50 348.60 L 417.30 357.00 L 410.80 365.10 L 404.00 372.70 L 396.90 380.10 L 389.50 387.00 L 381.80 393.60 L 373.90 399.80 L 365.90 405.50 L 357.60 410.70 L 349.10 415.60 L 340.50 419.90 L 331.80 423.70 L 323.10 427.00 L 314.10 429.80 L 305.20 432.00 L 296.40 433.60 L 287.60 434.60 L 280.40 435.00 L 273.40 435.00 L 266.40 434.60 L 259.50 433.80 L 252.70 432.60 Z" fill="#9f8ff8" fill-opacity="0.2" fill-rule="evenodd" group-id="1,2,3" id="1" node-id="13" stroke="none" target-height="403" target-width="424.19998" target-x="35.6" target-y="32"></path></g><g node-id="31"><path d="M 214.80 448.50 L 205.10 447.00 L 195.60 445.10 L 186.10 442.60 L 176.80 439.60 L 167.60 436.20 L 158.60 432.30 L 149.70 428.00 L 141.00 423.30 L 132.50 418.20 L 116.20 407.10 L 108.30 401.10 L 98.20 392.60 L 88.70 383.80 L 79.60 374.60 L 70.90 365.00 L 62.90 355.20 L 55.60 345.30 L 48.60 335.00 L 42.50 324.80 L 37.10 314.70 L 33.30 306.90 L 27.30 291.80 L 24.90 284.50 L 22.90 277.00 L 21.50 269.80 L 20.50 262.80 L 20.00 256.10 L 20.30 246.50 L 21.30 237.00 L 22.90 227.70 L 25.10 218.40 L 28.00 209.30 L 31.30 200.40 L 35.30 191.70 L 39.80 183.10 L 44.80 174.80 L 50.30 166.70 L 56.30 158.80 L 62.80 151.20 L 69.70 143.90 L 77.00 136.90 L 84.80 130.20 L 93.00 123.80 L 101.50 117.80 L 110.30 112.20 L 119.50 106.90 L 129.10 102.00 L 138.90 97.50 L 149.00 93.50 L 159.40 89.90 L 170.10 86.80 L 181.00 84.10 L 192.00 82.00 L 203.30 80.30 L 214.80 79.20 L 225.70 78.80 L 236.20 79.00 L 246.40 79.70 L 256.30 81.10 L 265.90 83.00 L 275.40 85.50 L 284.70 88.60 L 293.60 92.10 L 302.30 96.20 L 310.70 100.80 L 318.90 105.80 L 326.70 111.30 L 334.20 117.20 L 341.50 123.60 L 348.50 130.50 L 355.10 137.70 L 361.30 145.20 L 367.30 153.10 L 372.90 161.50 L 378.20 170.20 L 383.00 179.10 L 387.50 188.30 L 391.70 197.80 L 395.50 207.70 L 398.90 217.90 L 401.80 228.10 L 404.40 238.60 L 406.60 249.30 L 408.30 260.30 L 409.60 271.60 L 409.60 278.90 L 409.10 286.30 L 408.20 293.60 L 406.90 301.10 L 405.10 308.60 L 402.30 317.70 L 398.90 326.80 L 394.90 335.90 L 390.30 344.90 L 385.30 353.60 L 379.70 362.10 L 373.50 370.40 L 366.90 378.60 L 359.80 386.40 L 352.40 393.80 L 344.50 400.90 L 336.20 407.80 L 327.50 414.10 L 318.60 420.00 L 309.30 425.40 L 299.60 430.40 L 289.70 434.90 L 279.60 438.70 L 269.30 442.00 L 258.70 444.60 L 250.10 446.30 L 241.50 447.50 L 232.70 448.30 L 223.80 448.60 L 214.80 448.50 Z" fill="#ab9cf9" fill-opacity="0.3" fill-rule="evenodd" group-id="1,2,4" id="2" node-id="14" stroke="none" target-height="369.8" target-width="389.6" target-x="20" target-y="78.8"></path></g><g node-id="32"><path d="M 228.70 411.50 L 215.20 409.70 L 202.70 407.50 L 191.00 404.90 L 180.10 401.90 L 169.10 398.40 L 158.90 394.50 L 149.30 390.40 L 140.50 386.00 L 131.70 381.00 L 123.50 375.90 L 115.90 370.60 L 108.80 365.10 L 102.00 359.20 L 95.60 353.20 L 89.70 347.10 L 84.30 340.80 L 77.50 332.10 L 71.40 323.40 L 65.90 314.70 L 61.00 305.70 L 56.60 296.80 L 52.80 288.10 L 46.50 270.80 L 44.00 262.70 L 40.90 250.60 L 38.60 239.80 L 35.60 221.00 L 35.70 212.00 L 36.30 203.10 L 37.30 194.20 L 38.80 185.50 L 40.80 176.80 L 43.20 168.10 L 46.00 159.70 L 49.20 151.50 L 52.90 143.40 L 57.00 135.40 L 61.50 127.70 L 66.40 120.20 L 71.70 113.00 L 77.40 106.00 L 83.60 99.30 L 90.00 92.90 L 96.80 86.90 L 104.00 81.20 L 111.60 75.80 L 119.60 70.70 L 127.80 66.10 L 136.30 61.90 L 145.20 58.20 L 154.60 54.80 L 164.30 51.90 L 174.10 49.50 L 184.20 47.60 L 194.70 46.20 L 205.60 45.40 L 227.10 45.10 L 237.20 45.60 L 247.40 46.80 L 257.60 48.50 L 267.60 50.80 L 277.60 53.60 L 287.50 56.90 L 297.40 60.70 L 307.10 64.90 L 316.50 69.50 L 325.80 74.60 L 334.90 80.10 L 343.80 85.90 L 352.40 92.10 L 360.70 98.60 L 368.70 105.40 L 376.40 112.60 L 383.60 120.00 L 390.50 127.60 L 397.00 135.40 L 403.10 143.60 L 408.70 151.80 L 413.80 160.20 L 418.30 168.70 L 422.40 177.50 L 425.90 186.30 L 428.80 195.10 L 431.10 203.90 L 432.60 211.20 L 433.50 218.30 L 434.10 225.50 L 434.20 232.60 L 433.60 250.60 L 432.70 261.30 L 431.20 271.80 L 429.00 282.20 L 426.30 292.40 L 423.00 302.40 L 419.10 312.10 L 414.70 321.60 L 409.70 330.90 L 404.20 339.70 L 398.20 348.20 L 391.60 356.40 L 386.00 362.60 L 380.20 368.50 L 374.00 374.10 L 367.50 379.50 L 360.70 384.50 L 353.60 389.20 L 346.30 393.50 L 338.80 397.50 L 330.90 401.10 L 322.70 404.30 L 314.40 407.10 L 305.80 409.50 L 297.00 411.40 L 287.80 412.90 L 278.40 413.90 L 269.00 414.50 L 259.40 414.50 L 249.50 414.10 L 239.30 413.10 L 228.70 411.50 Z" fill="#9f8ff8" fill-opacity="0.4" fill-rule="evenodd" group-id="1,2,5" id="3" node-id="15" stroke="none" target-height="369.4" target-width="398.6" target-x="35.6" target-y="45.1"></path></g><g node-id="33"><path d="M 213.90 407.60 L 202.90 406.10 L 192.50 404.20 L 182.60 401.80 L 173.20 398.90 L 163.90 395.60 L 155.00 391.90 L 146.60 387.80 L 138.60 383.40 L 130.70 378.60 L 123.30 373.50 L 116.20 368.20 L 109.50 362.70 L 101.00 354.80 L 93.10 346.70 L 85.80 338.40 L 79.00 329.70 L 72.80 321.00 L 67.20 312.30 L 62.00 303.30 L 57.40 294.60 L 53.30 286.00 L 46.50 269.10 L 43.90 261.30 L 39.90 246.30 L 38.70 239.80 L 39.60 228.90 L 41.00 218.30 L 42.80 207.90 L 45.10 197.90 L 48.10 187.90 L 51.50 178.30 L 55.50 169.10 L 60.00 160.20 L 64.10 153.30 L 68.50 146.60 L 73.30 140.20 L 78.60 134.00 L 84.30 128.00 L 90.20 122.40 L 96.60 117.10 L 103.50 112.10 L 110.90 107.20 L 118.80 102.70 L 126.80 98.70 L 135.30 94.90 L 144.40 91.50 L 154.20 88.30 L 164.60 85.50 L 174.80 83.20 L 185.60 81.30 L 197.20 79.80 L 209.50 78.60 L 222.60 77.80 L 232.80 78.00 L 243.20 78.80 L 253.90 80.20 L 269.80 83.60 L 277.80 85.90 L 293.80 91.60 L 301.60 95.00 L 309.40 99.00 L 317.20 103.30 L 324.70 108.10 L 332.00 113.30 L 339.30 119.00 L 346.40 125.20 L 353.10 131.80 L 359.60 138.90 L 365.90 146.60 L 372.00 154.90 L 377.50 163.40 L 382.80 172.50 L 387.80 182.30 L 392.50 192.90 L 396.60 203.40 L 400.30 214.80 L 403.60 226.90 L 406.50 239.80 L 406.40 254.00 L 405.80 267.20 L 404.90 279.50 L 403.60 290.80 L 401.90 301.20 L 399.70 312.20 L 397.20 322.20 L 394.40 331.40 L 391.20 339.90 L 387.90 347.70 L 383.90 355.60 L 379.60 362.70 L 375.10 369.30 L 370.40 375.30 L 365.40 380.70 L 360.00 385.80 L 354.30 390.50 L 348.40 394.60 L 342.20 398.40 L 335.70 401.70 L 329.10 404.50 L 322.20 407.00 L 315.00 409.10 L 307.60 410.80 L 299.80 412.10 L 290.20 413.30 L 280.20 413.90 L 269.70 414.00 L 258.90 413.60 L 237.10 411.50 L 213.90 407.60 Z" fill="#9f8ff8" fill-opacity="0.4" fill-rule="evenodd" group-id="1,2,6" id="4" node-id="16" stroke="none" target-height="336.2" target-width="367.8" target-x="38.7" target-y="77.8"></path></g><path d="M 216.10 368.60 L 202.60 370.60 L 190.30 371.90 L 179.10 372.60 L 169.00 372.80 L 158.50 372.40 L 149.10 371.50 L 140.60 370.10 L 133.00 368.40 L 125.30 366.00 L 118.30 363.30 L 112.10 360.20 L 106.50 356.80 L 101.20 352.90 L 96.40 348.80 L 92.10 344.30 L 88.20 339.60 L 84.80 334.60 L 81.70 329.30 L 79.00 323.80 L 76.60 318.10 L 73.90 310.30 L 71.80 302.20 L 70.10 293.80 L 68.90 285.30 L 67.30 268.20 L 66.90 255.20 L 66.90 218.60 L 68.80 208.70 L 71.00 199.10 L 73.60 189.80 L 76.60 180.80 L 80.10 172.10 L 83.80 163.70 L 88.10 155.40 L 92.80 147.40 L 97.80 139.70 L 103.30 132.20 L 109.20 125.10 L 115.50 118.20 L 122.20 111.70 L 129.20 105.50 L 136.70 99.60 L 144.70 94.00 L 153.20 88.60 L 162.20 83.50 L 171.10 79.00 L 180.60 74.80 L 190.60 70.80 L 201.10 67.20 L 212.20 63.90 L 223.90 60.90 L 234.30 60.60 L 244.40 60.70 L 254.20 61.20 L 263.70 62.10 L 272.90 63.40 L 282.30 65.20 L 291.20 67.30 L 299.80 69.80 L 308.00 72.70 L 315.90 76.00 L 323.70 79.70 L 331.10 83.80 L 338.10 88.30 L 344.80 93.10 L 351.00 98.20 L 357.00 103.80 L 362.50 109.70 L 367.60 116.00 L 372.30 122.70 L 376.50 129.70 L 380.30 137.00 L 383.50 144.60 L 386.40 152.60 L 388.70 161.10 L 390.60 170.00 L 391.80 178.80 L 392.50 188.00 L 392.70 197.70 L 392.30 207.90 L 390.10 233.10 L 388.80 240.20 L 387.10 247.20 L 385.00 254.10 L 382.40 260.90 L 379.50 267.50 L 376.10 274.00 L 372.40 280.50 L 368.20 286.80 L 362.50 294.40 L 356.30 301.70 L 349.50 308.80 L 342.00 315.70 L 334.10 322.20 L 325.80 328.30 L 316.80 334.20 L 307.20 339.70 L 297.50 344.80 L 287.20 349.40 L 276.40 353.80 L 265.00 357.70 L 253.50 361.10 L 241.60 364.00 L 229.10 366.50 L 216.10 368.60 Z" fill="#9f8ff8" fill-opacity="0.6" fill-rule="evenodd" group-id="1,2,7" id="5" node-id="17" stroke="none" target-height="312.19998" target-width="325.80002" target-x="66.9" target-y="60.6"></path></g><path d="M 240.00 154.00 L 248.10 154.30 L 255.80 155.30 L 263.40 156.80 L 270.70 159.00 L 277.80 161.70 L 284.60 164.90 L 291.10 168.60 L 297.30 172.80 L 303.10 177.50 L 308.60 182.60 L 313.60 188.10 L 318.30 194.00 L 322.50 200.20 L 326.20 206.70 L 329.30 213.60 L 332.10 220.80 L 334.20 228.10 L 335.70 235.70 L 336.70 243.50 L 337.00 251.60 L 337.00 271.80 L 336.70 274.00 L 335.90 275.90 L 334.60 277.60 L 332.90 278.90 L 331.00 279.70 L 328.80 280.00 L 326.60 279.70 L 324.70 278.90 L 323.00 277.60 L 321.80 275.90 L 320.90 274.00 L 320.60 271.80 L 320.80 251.80 L 320.40 244.90 L 319.60 238.40 L 318.30 232.10 L 316.60 226.00 L 314.30 220.00 L 311.70 214.30 L 308.60 208.90 L 305.10 203.70 L 301.20 198.80 L 297.00 194.20 L 292.50 190.00 L 287.60 186.10 L 282.50 182.60 L 277.10 179.50 L 271.40 176.80 L 265.50 174.60 L 259.40 172.80 L 253.20 171.50 L 246.70 170.70 L 240.00 170.40 L 233.30 170.70 L 226.80 171.50 L 220.60 172.80 L 214.50 174.60 L 208.60 176.80 L 202.90 179.50 L 197.50 182.60 L 192.40 186.10 L 187.50 190.00 L 183.00 194.20 L 178.80 198.80 L 174.90 203.70 L 171.40 208.90 L 168.30 214.30 L 165.70 220.00 L 163.40 226.00 L 161.70 232.10 L 160.40 238.40 L 159.60 244.90 L 159.20 251.80 L 159.40 271.80 L 159.10 274.00 L 158.20 275.90 L 157.00 277.60 L 155.30 278.90 L 153.40 279.70 L 151.20 280.00 L 149.00 279.70 L 147.10 278.90 L 145.40 277.60 L 144.10 275.90 L 143.30 274.00 L 143.00 271.80 L 143.00 251.60 L 143.30 243.50 L 144.30 235.70 L 145.80 228.10 L 147.90 220.80 L 150.70 213.60 L 153.80 206.70 L 157.50 200.20 L 161.70 194.00 L 166.40 188.10 L 171.40 182.60 L 176.90 177.50 L 182.70 172.80 L 188.90 168.60 L 195.40 164.90 L 202.20 161.70 L 209.30 159.00 L 216.60 156.80 L 224.20 155.30 L 231.90 154.30 L 240.00 154.00 Z" fill="#ffffff" fill-rule="evenodd" group-id="1" id="形状结合" node-id="18" stroke="none" target-height="126" target-width="194" target-x="143" target-y="154"></path><path d="M 152.30 247.00 L 155.50 247.20 L 158.50 247.80 L 161.40 248.80 L 164.10 250.20 L 168.80 253.80 L 172.40 258.50 L 173.80 261.20 L 174.80 264.10 L 175.40 267.10 L 175.60 270.30 L 175.60 290.70 L 175.40 293.90 L 174.80 296.90 L 173.80 299.80 L 170.80 304.90 L 166.60 309.10 L 161.40 312.20 L 158.50 313.20 L 155.50 313.80 L 152.30 314.00 L 149.10 313.80 L 146.10 313.20 L 143.20 312.20 L 138.10 309.10 L 133.90 304.90 L 130.80 299.80 L 129.80 296.90 L 129.20 293.90 L 129.00 290.70 L 129.20 267.10 L 129.80 264.10 L 132.20 258.50 L 135.80 253.80 L 140.50 250.20 L 146.10 247.80 L 149.10 247.20 L 152.30 247.00 Z M 325.70 247.00 L 328.90 247.20 L 331.90 247.80 L 334.80 248.80 L 337.50 250.20 L 342.20 253.80 L 345.80 258.50 L 347.20 261.20 L 348.20 264.10 L 348.80 267.10 L 349.00 270.30 L 349.00 290.70 L 348.80 293.90 L 348.20 296.90 L 347.20 299.80 L 344.10 304.90 L 339.90 309.10 L 334.80 312.20 L 331.90 313.20 L 328.90 313.80 L 325.70 314.00 L 322.50 313.80 L 319.50 313.20 L 316.60 312.20 L 311.40 309.10 L 307.20 304.90 L 304.20 299.80 L 303.20 296.90 L 302.60 293.90 L 302.40 290.70 L 302.60 267.10 L 303.20 264.10 L 305.60 258.50 L 309.20 253.80 L 313.90 250.20 L 319.50 247.80 L 322.50 247.20 L 325.70 247.00 Z" fill="url(#linearGradient-1)" fill-rule="evenodd" group-id="1" id="形状结合" node-id="19" stroke="none" target-height="67" target-width="220" target-x="129" target-y="247"></path></g></svg>