<?xml version="1.0" standalone="no"?>
<svg xmlns="http://www.w3.org/2000/svg" width="32" height="32"><rect width="32" height="32" opacity="0"></rect><g><path d="M24.8 29.41Q25.22 29.12 25.39 28.67Q25.57 28.22 25.44 27.74L23.68 20.64Q23.55 20.19 23.7 19.74Q23.84 19.3 24.22 19.01L29.76 14.37Q30.14 14.05 30.27 13.58Q30.4 13.12 30.24 12.67Q30.08 12.22 29.71 11.92Q29.34 11.62 28.86 11.58L21.66 11.04Q21.18 11.01 20.82 10.75Q20.45 10.5 20.29 10.05L17.47 3.26Q17.28 2.82 16.88 2.54Q16.48 2.27 16 2.27Q15.52 2.27 15.12 2.54Q14.72 2.82 14.53 3.26L11.71 10.05Q11.55 10.5 11.18 10.75Q10.82 11.01 10.34 11.04L3.14 11.58Q2.66 11.62 2.29 11.92Q1.92 12.22 1.76 12.67Q1.6 13.12 1.73 13.58Q1.86 14.05 2.24 14.37L7.78 19.01Q8.13 19.33 8.29 19.76Q8.45 20.19 8.32 20.64L6.56 27.74Q6.43 28.22 6.61 28.69Q6.78 29.15 7.2 29.41Q7.58 29.7 8.06 29.71Q8.54 29.73 8.96 29.44L15.1 25.47Q15.52 25.22 15.98 25.22Q16.45 25.22 16.86 25.47L23.01 29.44Q23.36 29.7 23.9 29.68Q24.45 29.66 24.8 29.41ZM10.5 13.02Q11.52 12.99 12.35 12.38Q13.18 11.78 13.57 10.82L16 4.96L18.43 10.82Q18.85 11.78 19.68 12.38Q20.51 12.99 21.5 13.02L27.71 13.5L22.94 17.47Q22.14 18.11 21.82 19.1Q21.5 20.1 21.76 21.12L23.23 27.2L17.98 23.81Q17.09 23.23 16.02 23.23Q14.94 23.23 14.05 23.81L8.77 27.2L10.27 21.12Q10.53 20.1 10.19 19.1Q9.86 18.11 9.06 17.47L4.29 13.5L10.5 13.02Z" fill="rgba(0,0,0,0.9019607843137255)"></path></g></svg>