<?xml version="1.0" standalone="no"?><!DOCTYPE svg PUBLIC "-//W3C//DTD SVG 1.1//EN" "http://www.w3.org/Graphics/SVG/1.1/DTD/svg11.dtd"><svg t="1724209863430" class="icon" viewBox="0 0 1024 1024" version="1.1" xmlns="http://www.w3.org/2000/svg" p-id="39710" xmlns:xlink="http://www.w3.org/1999/xlink" width="200" height="200"><path d="M840.704 788.48H768v77.312a26.624 26.624 0 1 1-51.2 0V788.48h-72.704a26.112 26.112 0 0 1-29.696-25.088c0-16.384 13.312-25.088 29.696-25.088H716.8v-68.608a26.624 26.624 0 1 1 51.2 0v68.096h72.192c16.384 0 29.696 8.704 29.696 25.088a26.112 26.112 0 0 1-29.696 25.088m-280.064 77.312H229.376c-66.56 0-45.056-29.696-28.672-57.344a329.216 329.216 0 0 1 267.264-146.944A417.28 417.28 0 0 1 512 665.6a84.48 84.48 0 0 0 47.104-10.752c9.216-6.144 20.48-19.456 16.896-30.72a21.504 21.504 0 0 0-12.288-11.776l-22.528-6.656-29.184-6.656a229.888 229.888 0 1 0-307.2-215.552 241.664 241.664 0 0 0 176.128 221.184 393.728 393.728 0 0 0-269.824 211.456c-21.504 46.592 3.584 104.96 46.08 104.96h430.592a32.768 32.768 0 0 0 19.456-26.112c-1.024-15.36-18.944-29.696-46.592-29.184zM266.24 409.6a166.912 166.912 0 0 1 166.4-194.56 169.472 169.472 0 1 1-48.128 332.288A167.424 167.424 0 0 1 266.24 409.6z" fill="#2c2c2c" p-id="39711"></path></svg>