<?xml version="1.0" standalone="no"?><!DOCTYPE svg PUBLIC "-//W3C//DTD SVG 1.1//EN" "http://www.w3.org/Graphics/SVG/1.1/DTD/svg11.dtd"><svg t="1723188215486" class="icon" viewBox="0 0 1024 1024" version="1.1" xmlns="http://www.w3.org/2000/svg" p-id="13225" xmlns:xlink="http://www.w3.org/1999/xlink" width="200" height="200"><path d="M174.521035 834.794844c-0.306985 0-0.61397 0-0.920955 0-14.325972-0.409313-25.889078-12.791046-25.889078-27.321675 0.102328-64.159888 20.568002-125.147597 58.941141-176.311782 18.726092-24.763466 40.82902-46.45708 66.001799-64.159888 20.056361-14.223643 41.749975-25.889078 64.569202-34.586989-21.181973-14.530629-39.396423-33.563705-53.210752-55.461977-18.726092-29.879884-28.549615-64.262216-28.549615-99.463176 0-103.556311 84.318577-187.977216 187.977216-187.977216S631.212551 273.72839 631.212551 377.284701c0 32.233437-8.390926 64.159888-24.251824 92.197861-14.018987 24.763466-33.563705 46.150095-56.894574 62.317977 22.409913 8.697911 43.694214 20.261017 63.443589 34.177676 25.275107 17.907465 47.480364 39.601079 66.104127 64.262216 38.577796 51.47117 59.04347 112.663536 59.04347 177.02808 0 7.060658-2.865194 13.916658-7.879285 18.930748-5.01409 5.01409-11.767763 7.879285-18.930748 7.879285l0 0c-0.409313 0-0.716299 0-1.22794 0-14.325972-0.61397-25.582093-12.58639-25.582093-27.219346-0.102328-64.262216-25.275107-124.738283-70.606575-170.376736-43.898871-44.103528-107.854102-70.504247-171.093035-70.504247-63.852903 0-126.273209 25.991406-171.297692 71.220546-45.536125 45.740781-70.708904 106.421505-70.708904 170.888378C201.331068 822.822424 189.358649 834.794844 174.521035 834.794844zM443.337664 243.029879C369.251924 243.029879 309.082842 303.198961 309.082842 377.284701s60.169082 134.254822 134.254822 134.254822c74.08574 0 134.254822-60.169082 134.254822-134.254822C577.797142 303.198961 517.423404 243.029879 443.337664 243.029879zM855.209353 780.049166c-14.735285 0-26.810033-11.972419-26.810033-26.810033 0-110.719296-84.318577-200.768262-187.977216-200.768262-14.735285 0-26.810033-11.972419-26.810033-26.810033 0-14.837614 11.972419-26.912361 26.810033-26.912361 56.280604 0 102.021385-49.322274 102.021385-109.798341s-45.740781-109.696013-102.021385-109.696013c-14.735285 0-26.810033-11.972419-26.810033-26.810033s11.972419-26.810033 26.810033-26.810033c85.853503 0 155.743779 73.164785 155.743779 163.316079 0 28.8566-7.367643 57.099231-21.079644 82.067353-10.335165 18.623763-24.251824 35.098631-40.419706 47.992006 40.215049 17.907465 75.109024 46.968722 101.10043 84.523234 30.289198 43.591886 46.354752 95.370041 46.45708 149.604077C882.019386 768.076746 869.944639 780.049166 855.209353 780.049166z" p-id="13226"></path></svg>