<?xml version="1.0" standalone="no"?><!DOCTYPE svg PUBLIC "-//W3C//DTD SVG 1.1//EN" "http://www.w3.org/Graphics/SVG/1.1/DTD/svg11.dtd"><svg t="1724396020991" class="icon" viewBox="0 0 1097 1024" version="1.1" xmlns="http://www.w3.org/2000/svg" p-id="146653" xmlns:xlink="http://www.w3.org/1999/xlink" width="214.2578125" height="200"><path d="M914.285714 0a146.285714 146.285714 0 0 1 146.285715 146.285714v731.428572a146.285714 146.285714 0 0 1-146.285715 146.285714h-731.428571a146.285714 146.285714 0 0 1-146.285714-146.285714V146.285714a146.285714 146.285714 0 0 1 146.285714-146.285714h731.428571zM589.531429 203.556571c-35.401143-10.313143-71.241143-15.067429-107.52-5.632-64.365714 16.822857-115.638857 57.051429-160.182858 109.202286-43.885714 51.346286-76.873143 110.811429-104.448 174.08-29.842286 68.461714-51.492571 140.214857-70.217142 213.138286-1.462857 5.485714-1.828571 8.996571 4.388571 11.410286 105.545143 41.033143 211.017143 82.358857 316.562286 123.611428 2.779429 1.024 5.851429 1.097143 9.947428 1.828572V819.2c0-27.209143-0.731429-54.491429-0.073143-81.700571 1.974857-87.917714 3.876571-175.835429 6.948572-263.753143 2.413714-70.070857 6.875429-140.141714 18.066286-209.334857 3.364571-20.845714 9.947429-41.033143 15.506285-61.44 1.901714-6.875429 6.436571-10.752 12.726857-7.68-4.169143 13.897143-10.093714 27.209143-12.141714 41.252571-6.729143 46.665143-14.409143 93.476571-17.334857 140.580571a8264.045714 8264.045714 0 0 0-11.264 260.827429c-1.901714 59.465143-1.462857 119.003429-2.048 178.468571v11.264c3.803429-0.438857 6.436571-0.512 9.069714-1.024l132.388572-25.746285 311.808-60.196572c10.459429-1.974857 10.459429-2.121143 7.314285-13.165714a1394.029714 1394.029714 0 0 0-80.676571-222.061714c-36.205714-77.165714-78.774857-149.577143-136.484571-209.773715-40.96-42.788571-87.113143-76.068571-142.336-92.16z m58.075428 169.837715c24.283429-0.731429 47.030857 7.094857 67.730286 21.869714 29.549714 20.992 51.346286 50.029714 70.070857 82.139429 39.862857 68.315429 64.438857 143.579429 84.333714 222.939428l-337.188571 62.610286c-1.024-30.573714-3.145143-59.465143-2.706286-88.283429 0.585143-40.448 1.828571-80.969143 5.12-121.270857 3.437714-41.325714 13.531429-81.188571 29.988572-118.857143a18.432 18.432 0 0 1 5.485714-7.606857l-8.777143 21.504c8.411429-13.531429 14.994286-25.819429 23.04-36.864 16.091429-22.089143 36.571429-37.302857 62.902857-38.180571z m-281.380571 48.128l9.654857 0.585143c9.508571 1.024 14.921143 9.069714 19.748571 16.822857 11.044571 17.92 14.628571 38.546286 16.822857 59.538285 0.950857 9.069714 1.170286 18.285714 1.755429 27.648l-1.682286 23.625143c-0.438857 5.12-1.828571 7.899429-7.606857 6.802286l-119.808-22.308571c-2.048-0.438857-5.266286-4.754286-5.046857-6.729143 4.242286-31.744 11.776-61.952 34.742857-84.406857a71.972571 71.972571 0 0 1 61.074286-20.992z" fill="#e68546" p-id="146654"></path></svg>