<?xml version="1.0" standalone="no"?><!DOCTYPE svg PUBLIC "-//W3C//DTD SVG 1.1//EN" "http://www.w3.org/Graphics/SVG/1.1/DTD/svg11.dtd"><svg t="1724400016847" class="icon" viewBox="0 0 1024 1024" version="1.1" xmlns="http://www.w3.org/2000/svg" p-id="253829" xmlns:xlink="http://www.w3.org/1999/xlink" width="200" height="200"><path d="M102.4 136.533333m136.533333 0l546.133334 0q136.533333 0 136.533333 136.533334l0 477.866666q0 136.533333-136.533333 136.533334l-546.133334 0q-136.533333 0-136.533333-136.533334l0-477.866666q0-136.533333 136.533333-136.533334Z" fill="#ee8055" p-id="253830"></path><path d="M374.408533 465.442133l-6.0416 27.067734a152.9856 152.9856 0 0 0-3.652266 33.655466 146.705067 146.705067 0 0 0 146.5344 146.568534c80.930133 0 146.705067-65.877333 148.0704-146.773334 0-10.990933-1.262933-22.596267-3.652267-33.450666l-5.973333-26.8288 24.917333-11.537067c19.114667-8.874667 31.744-27.7504 31.744-48.913067 0-29.696-24.2688-53.998933-53.9648-53.998933-19.319467 0-35.703467 9.284267-44.885333 24.132267l-14.984534 24.2688-26.5216-10.4448A147.2512 147.2512 0 0 0 512 378.88c-18.670933 0-36.864 3.618133-53.930667 10.3424l-26.2144 10.24-15.086933-23.688533a53.3504 53.3504 0 0 0-45.124267-24.541867c-29.696 0-53.9648 24.302933-53.9648 53.998933 0 21.538133 12.1856 40.072533 31.4368 48.810667l25.258667 11.400533z m319.044267 60.757334c-1.501867 99.293867-82.1248 180.667733-182.1696 180.667733a180.8384 180.8384 0 0 1-180.701867-180.667733c0-14.199467 1.501867-27.648 4.471467-41.096534a87.005867 87.005867 0 0 1-51.541333-79.872 88.2688 88.2688 0 0 1 88.132266-88.098133c30.6176 0 58.231467 15.6672 73.898667 40.277333A181.3504 181.3504 0 0 1 512 344.746667c23.1424 0 45.568 4.471467 66.4576 12.6976 15.701333-25.3952 43.3152-40.311467 73.9328-40.311467a88.2688 88.2688 0 0 1 88.098133 88.064 88.234667 88.234667 0 0 1-51.541333 79.906133c3.003733 13.448533 4.5056 27.648 4.5056 41.096534z" fill="#FFFFFF" p-id="253831"></path><path d="M559.138133 520.533333a3.413333 3.413333 0 0 1 0 5.597867l-75.912533 52.6336a3.413333 3.413333 0 0 1-5.358933-2.833067v-105.198933a3.413333 3.413333 0 0 1 5.358933-2.798933l75.912533 52.565333z" fill="#FFFFFF" p-id="253832"></path></svg>