<?xml version="1.0" standalone="no"?><!DOCTYPE svg PUBLIC "-//W3C//DTD SVG 1.1//EN" "http://www.w3.org/Graphics/SVG/1.1/DTD/svg11.dtd"><svg t="1723190297973" class="icon" viewBox="0 0 1024 1024" version="1.1" xmlns="http://www.w3.org/2000/svg" p-id="14408" xmlns:xlink="http://www.w3.org/1999/xlink" width="200" height="200"><path d="M896 640h-140.8l17.066667-256H896c34.133333 0 64-29.866667 64-64S930.133333 256 896 256h-115.2l8.533333-123.733333c4.266667-38.4-25.6-68.266667-64-68.266667-34.133333 0-59.733333 25.6-64 59.733333L652.8 256h-256l8.533333-123.733333c4.266667-38.4-25.6-68.266667-64-68.266667-34.133333 0-59.733333 25.6-64 59.733333L268.8 256H128c-34.133333 0-64 29.866667-64 64S93.866667 384 128 384h132.266667l-17.066667 256H128c-34.133333 0-64 29.866667-64 64S93.866667 768 128 768h106.666667l-8.533334 123.733333c-4.266667 38.4 25.6 68.266667 64 68.266667 34.133333 0 59.733333-25.6 64-59.733333l8.533334-132.266667h256l-8.533334 123.733333c-4.266667 38.4 25.6 68.266667 64 68.266667 34.133333 0 59.733333-25.6 64-59.733333l8.533334-132.266667H896c34.133333 0 64-29.866667 64-64S930.133333 640 896 640z m-268.8 0h-256l17.066667-256h256l-17.066667 256z" p-id="14409"></path></svg>