<?xml version="1.0" standalone="no"?><!DOCTYPE svg PUBLIC "-//W3C//DTD SVG 1.1//EN" "http://www.w3.org/Graphics/SVG/1.1/DTD/svg11.dtd"><svg t="1724395121411" class="icon" viewBox="0 0 1024 1024" version="1.1" xmlns="http://www.w3.org/2000/svg" p-id="113052" xmlns:xlink="http://www.w3.org/1999/xlink" width="200" height="200"><path d="M0 0m76.8 0l870.4 0q76.8 0 76.8 76.8l0 870.4q0 76.8-76.8 76.8l-870.4 0q-76.8 0-76.8-76.8l0-870.4q0-76.8 76.8-76.8Z" fill="#eb5861" p-id="113053"></path><path d="M817.0496 358.4h-1.1264a33.536 33.536 0 0 0-16.9984 4.5312l-50.2016 29.0304a33.792 33.792 0 0 0 33.536 58.624v259.1488l-162.9696 83.3792-203.264-106.7008c-5.76-4.2752-12.7744-6.6304-19.9424-6.6816-7.8592-0.2816-15.616 2.2272-21.8624 7.04l-132.608 71.552V490.9312l33.5872-19.3792a33.792 33.792 0 1 0-33.792-58.5216L191.232 442.0608c-6.656 3.84-11.4688 9.5488-14.2336 16.0768a33.6128 33.6128 0 0 0-2.8928 13.696V814.336c0 3.8912 0.6656 7.6288 1.8944 11.1104l0.128 0.4096 0.0768 0.1792A33.792 33.792 0 0 0 223.6416 844.8l172.0064-92.8 208.4864 109.4656c12.032 6.2464 26.0864 4.5568 36.1984-3.1744l191.232-97.8432c8.448-4.4032 14.2848-11.8784 16.7936-20.352 1.024-3.2256 1.5616-6.6304 1.5616-10.1632V392.192a33.8688 33.8688 0 0 0-32.8704-33.7408z" fill="#FFFFFF" p-id="113054"></path><path d="M527.36 174.08c93.312 0 168.96 75.3664 168.96 168.3456 0 102.2464-96.768 206.0544-143.8464 250.496a33.6384 33.6384 0 0 1-50.2272 0C455.168 548.48 358.4 444.672 358.4 342.4256 358.4 249.4464 434.048 174.08 527.36 174.08z m0 107.52a76.8 76.8 0 1 0 0 153.6 76.8 76.8 0 0 0 0-153.6z" fill="#FFFFFF" p-id="113055"></path></svg>