<?xml version="1.0" standalone="no"?><!DOCTYPE svg PUBLIC "-//W3C//DTD SVG 1.1//EN" "http://www.w3.org/Graphics/SVG/1.1/DTD/svg11.dtd"><svg t="1724399787571" class="icon" viewBox="0 0 1152 1024" version="1.1" xmlns="http://www.w3.org/2000/svg" p-id="239948" xmlns:xlink="http://www.w3.org/1999/xlink" width="225" height="200"><path d="M1006.663061 0.033918H145.271783A142.743926 142.743926 0 0 0 0 139.834011v744.341898A142.711928 142.711928 0 0 0 145.271783 1023.976001h861.391278A142.743926 142.743926 0 0 0 1151.934844 884.175909V139.194047A142.199957 142.199957 0 0 0 1006.663061 0.033918zM215.50781 226.485109h68.892104a34.814031 34.814031 0 1 1 0 69.564066H215.50781a34.814031 34.814031 0 1 1 0-69.564066z m324.653637 496.867896a56.5728 56.5728 0 0 1-17.726997 40.701698 61.020549 61.020549 0 0 1-42.269609 17.055035H239.410458a61.020549 61.020549 0 0 1-42.269609-17.055035 56.540802 56.540802 0 0 1-17.726997-40.701698v-232.338858a57.180766 57.180766 0 0 1 17.055035-40.029736 58.812673 58.812673 0 0 1 41.597647-16.415071h242.130305a61.020549 61.020549 0 0 1 42.269609 17.055035 56.540802 56.540802 0 0 1 17.726997 40.701698z m395.561626-13.119258h-216.21177a34.814031 34.814031 0 1 1 0-69.564065h216.21177a35.70998 35.70998 0 0 1 36.157955 34.782033 34.878027 34.878027 0 0 1-36.157955 34.782032z m0-207.988235h-216.21177a34.814031 34.814031 0 1 1 0-69.564066h216.21177a35.70998 35.70998 0 0 1 36.157955 34.782033 35.198009 35.198009 0 0 1-36.157955 34.782033z m0-206.772305H413.896589a34.814031 34.814031 0 1 1 0-69.564065h522.530444a34.814031 34.814031 0 1 1-0.671962 69.564065z m0 0" fill="#f5c244" p-id="239949"></path></svg>