<?xml version="1.0" standalone="no"?><!DOCTYPE svg PUBLIC "-//W3C//DTD SVG 1.1//EN" "http://www.w3.org/Graphics/SVG/1.1/DTD/svg11.dtd"><svg t="1724395690191" class="icon" viewBox="0 0 1024 1024" version="1.1" xmlns="http://www.w3.org/2000/svg" p-id="126157" xmlns:xlink="http://www.w3.org/1999/xlink" width="200" height="200"><path d="M0 0m227.555556 0l568.888888 0q227.555556 0 227.555556 227.555556l0 568.888888q0 227.555556-227.555556 227.555556l-568.888888 0q-227.555556 0-227.555556-227.555556l0-568.888888q0-227.555556 227.555556-227.555556Z" fill="#f19b38" p-id="126158"></path><path d="M733.240889 796.444444h-179.626667a40.590222 40.590222 0 0 1-40.561778-40.561777V576.284444a40.590222 40.590222 0 0 1 40.561778-40.561777h179.626667a40.590222 40.590222 0 0 1 40.561778 40.561777v179.626667A40.561778 40.561778 0 0 1 733.240889 796.444444z m-179.626667-225.991111a5.888 5.888 0 0 0-5.774222 5.802667v179.626667a5.888 5.888 0 0 0 5.774222 5.802666h179.626667a5.888 5.888 0 0 0 5.802667-5.802666V576.284444a5.888 5.888 0 0 0-5.802667-5.802666h-179.626667z m-251.733333 202.296889a59.648 59.648 0 0 1-43.918222-19.342222 65.706667 65.706667 0 0 1-17.351111-48.583111l23.466666-416.938667A62.72 62.72 0 0 1 325.688889 227.555556h340.366222c32.995556 0.568889 59.818667 27.022222 61.240889 60.302222l10.922667 191.317333a17.720889 17.720889 0 0 1-4.408889 12.856889 17.408 17.408 0 0 1-12.145778 5.859556c-10.382222 0-18.090667-7.395556-18.545778-16.839112l-10.808889-191.146666a27.278222 27.278222 0 0 0-26.026666-26.794667H325.916444a27.249778 27.249778 0 0 0-26.282666 26.794667L276.167111 706.844444a29.696 29.696 0 0 0 7.850667 22.186667 24.689778 24.689778 0 0 0 18.318222 8.163556h159.601778c6.314667 0 12.117333 3.384889 15.274666 8.874666a17.948444 17.948444 0 0 1-6.456888 24.291556 17.607111 17.607111 0 0 1-8.817778 2.389333h-160.085334z m296.419555-425.671111a28.700444 28.700444 0 0 1 21.418667 28.899556 28.672 28.672 0 0 1-12.515555 23.296c-8.874667 57.230222-58.254222 99.84-116.935112 100.864-59.164444-0.455111-109.169778-43.207111-118.101333-100.864a28.444444 28.444444 0 0 1-2.787555-45.937778c4.636444-3.868444 10.353778-6.172444 16.355555-6.627556a29.098667 29.098667 0 0 1 28.956445 17.180445 28.330667 28.330667 0 0 1-7.111112 32.568889c5.006222 40.988444 40.248889 71.822222 82.119112 71.822222 41.813333 0 77.084444-30.833778 82.062222-71.793778a28.359111 28.359111 0 0 1-6.741334-35.185778 29.212444 29.212444 0 0 1 33.28-14.222222z m3.640889 259.754667h82.972445a17.777778 17.777778 0 0 1 0 35.555555h-82.972445a17.777778 17.777778 0 1 1 0-35.555555z m0 59.249778h35.555556a17.777778 17.777778 0 0 1 0 35.555555h-35.555556a17.777778 17.777778 0 1 1 0-35.555555z" fill="#FFFFFF" p-id="126159"></path></svg>