<?xml version="1.0" standalone="no"?><!DOCTYPE svg PUBLIC "-//W3C//DTD SVG 1.1//EN" "http://www.w3.org/Graphics/SVG/1.1/DTD/svg11.dtd"><svg t="1724384083951" class="icon" viewBox="0 0 1024 1024" version="1.1" xmlns="http://www.w3.org/2000/svg" p-id="58516" xmlns:xlink="http://www.w3.org/1999/xlink" width="200" height="200"><path d="M256 0h512a256 256 0 0 1 256 256v512a256 256 0 0 1-256 256H256a256 256 0 0 1-256-256V256a256 256 0 0 1 256-256z m550.432 453.472c-22.528-92.352-54.048-188.096-167.808-172.32-43.936 5.632-76.576 31.552-125.024 31.552-40.544 0-72.064-24.8-110.4-31.552-112.608-19.136-139.616 34.912-172.288 134.048-18.016 56.32-77.728 250.016-10.144 296.192 68.704 47.328 143.04-82.24 193.728-101.344 43.936-16.896 139.648-15.776 183.584-2.24 59.68 17.984 118.272 129.504 184.704 114.88 91.232-22.56 37.184-212.896 23.68-269.216z m-426.88 81.088c-49.536 0-88.96-39.424-88.96-87.84 0-48.416 39.424-87.84 88.96-87.84 49.6 0 88.992 39.424 88.992 87.84 0 48.416-40.544 87.84-88.96 87.84z m277.12-159.936a26.528 26.528 0 0 1 37.12 0 25.152 25.152 0 0 1 0 36.064 26.528 26.528 0 0 1-37.12 0 25.152 25.152 0 0 1 0-36.064z m-49.6 84.48a25.152 25.152 0 0 1 0-36.032 26.528 26.528 0 0 1 37.184 0 25.152 25.152 0 0 1 0 36.032 26.528 26.528 0 0 1-37.152 0z m84.48 47.296a26.528 26.528 0 0 1-37.152 0 25.152 25.152 0 0 1 0-36.032 26.528 26.528 0 0 1 37.152 0 25.152 25.152 0 0 1 0 36.032z m49.568-48.416a26.528 26.528 0 0 1-37.152 0 25.152 25.152 0 0 1 0-36.032 26.528 26.528 0 0 1 37.152 0 25.152 25.152 0 0 1 0 36.032z m-361.536-61.952c-29.28 0-51.84 22.528-51.84 51.84 0 28.16 23.68 51.776 51.84 51.776 29.28 0 51.808-22.528 51.808-51.808s-23.68-51.808-51.84-51.808z" fill="#2185F0" p-id="58517"></path></svg>