<?xml version="1.0" standalone="no"?><!DOCTYPE svg PUBLIC "-//W3C//DTD SVG 1.1//EN" "http://www.w3.org/Graphics/SVG/1.1/DTD/svg11.dtd"><svg t="1724399620570" class="icon" viewBox="0 0 1024 1024" version="1.1" xmlns="http://www.w3.org/2000/svg" p-id="228517" xmlns:xlink="http://www.w3.org/1999/xlink" width="200" height="200"><path d="M0 0m154.566038 0l714.867924 0q154.566038 0 154.566038 154.566038l0 714.867924q0 154.566038-154.566038 154.566038l-714.867924 0q-154.566038 0-154.566038-154.566038l0-714.867924q0-154.566038 154.566038-154.566038Z" fill="#7369f1" p-id="228518"></path><path d="M792.150943 406.141585v294.13917C792.150943 729.628981 767.343094 753.509434 736.874264 753.509434H306.42717C275.97766 753.509434 251.169811 729.628981 251.169811 700.280755V406.122264c0-29.348226 24.807849-53.228679 55.27668-53.228679h114.95849l-124.502943-117.914566a12.771019 12.771019 0 0 1-0.154566-18.547925 13.988226 13.988226 0 0 1 19.262792-0.154566l144.268076 136.617057h128.212528l144.268075-136.597736a13.988226 13.988226 0 0 1 19.262793 0.135245 12.771019 12.771019 0 0 1-0.154566 18.547925l-124.522264 117.914566h109.529358c30.46883 0 55.276679 23.880453 55.276679 53.228679zM647.882868 537.116981l-198.346868-108.196226v216.392453l198.346868-108.196227z" fill="#FFFFFF" p-id="228519"></path></svg>