<?xml version="1.0" standalone="no"?><!DOCTYPE svg PUBLIC "-//W3C//DTD SVG 1.1//EN" "http://www.w3.org/Graphics/SVG/1.1/DTD/svg11.dtd"><svg t="1723539734042" class="icon" viewBox="0 0 1024 1024" version="1.1" xmlns="http://www.w3.org/2000/svg" p-id="23838" xmlns:xlink="http://www.w3.org/1999/xlink" width="200" height="200"><path d="M320.093091 234.682182a191.906909 191.906909 0 1 1 383.813818 0V512a191.906909 191.906909 0 1 1-383.813818 0V234.682182zM512 127.906909a106.728727 106.728727 0 0 0-106.728727 106.775273V512a106.728727 106.728727 0 1 0 213.457454 0V234.682182A106.728727 106.728727 0 0 0 512 127.906909zM192 448.093091c23.505455 0 42.589091 19.083636 42.589091 42.589091a277.410909 277.410909 0 0 0 554.821818 0 42.589091 42.589091 0 0 1 85.178182 0 362.589091 362.589091 0 0 1-320 360.122182v87.877818a42.589091 42.589091 0 0 1-85.178182 0v-87.924364a362.635636 362.635636 0 0 1-320-360.075636c0-23.552 19.083636-42.589091 42.589091-42.589091z" p-id="23839"></path></svg>