<?xml version="1.0" standalone="no"?><!DOCTYPE svg PUBLIC "-//W3C//DTD SVG 1.1//EN" "http://www.w3.org/Graphics/SVG/1.1/DTD/svg11.dtd"><svg t="1724402112621" class="icon" viewBox="0 0 1034 1024" version="1.1" xmlns="http://www.w3.org/2000/svg" p-id="493156" xmlns:xlink="http://www.w3.org/1999/xlink" width="201.953125" height="200"><path d="M125.263003 0.040213h225.191917q125.263003 0 125.263003 125.263003v225.191916q0 125.303216-125.263003 125.263004h-225.191917Q0 475.717923 0 350.45492v-225.191917Q0-0.040213 125.263003 0z m0 0M125.263003 548.221677h225.191917q125.263003 0 125.263003 125.303217v225.191916q0 125.222791-125.263003 125.263003h-225.191917Q0 1023.9396 0 898.676597v-225.191916q0-125.263003 125.263003-125.303216z m0 0M1034.756855 125.303216v225.191916a125.263003 125.263003 0 0 1-125.263004 125.263004h-224.789787a125.303216 125.303216 0 0 1-125.303216-125.263004v-225.191916A125.263003 125.263003 0 0 1 684.704064 0.040213h224.789787a125.263003 125.263003 0 0 1 125.263004 125.263003z m-41.74093 513.437569H601.181991a41.74093 41.74093 0 1 1 0-83.48186h391.833934a41.74093 41.74093 0 0 1 0 83.48186z m0 192.780366H601.181991a41.74093 41.74093 0 1 1 0-83.481861h391.833934a41.74093 41.74093 0 0 1 0 83.481861z m0 192.458662H601.181991a41.781143 41.781143 0 1 1 0-83.522073h391.833934a41.781143 41.781143 0 0 1 0 83.522073z m0 0" fill="#d086f8" p-id="493157"></path></svg>