<?xml version="1.0" standalone="no"?><!DOCTYPE svg PUBLIC "-//W3C//DTD SVG 1.1//EN" "http://www.w3.org/Graphics/SVG/1.1/DTD/svg11.dtd"><svg t="1724401076876" class="icon" viewBox="0 0 1024 1024" version="1.1" xmlns="http://www.w3.org/2000/svg" p-id="323378" xmlns:xlink="http://www.w3.org/1999/xlink" width="200" height="200"><path d="M875.008 985.984H148.992A84.992 84.992 0 0 1 64 900.992V123.008C64 76.032 102.08 38.016 148.992 38.016h700.032C910.272 38.016 960 87.68 960 148.992v752c0 46.976-38.08 84.992-84.992 84.992z" fill="#64d97d" p-id="323379"></path><path d="M738.944 366.08V307.2l-176.64-92.352a47.68 47.68 0 0 0-69.76 42.24v316.544a22.4 22.4 0 0 1-24.128 22.72 188.288 188.288 0 0 0-65.664 5.312c-78.4 20.288-129.92 83.008-115.136 140.096 14.784 57.024 90.304 86.848 168.704 66.56 78.336-20.352 120.96-81.024 123.264-150.272 2.688-80-1.6-248.448-3.776-283.392s20.864-49.92 49.92-41.92 113.216 33.28 113.216 33.28z" fill="#FFFFFF" p-id="323380"></path></svg>