<?xml version="1.0" standalone="no"?><!DOCTYPE svg PUBLIC "-//W3C//DTD SVG 1.1//EN" "http://www.w3.org/Graphics/SVG/1.1/DTD/svg11.dtd"><svg t="1724383580808" class="icon" viewBox="0 0 1024 1024" version="1.1" xmlns="http://www.w3.org/2000/svg" p-id="45542" xmlns:xlink="http://www.w3.org/1999/xlink" width="200" height="200"><path d="M868.098271 0H155.866718A155.878384 155.878384 0 0 0 0.000012 155.925096v712.184842a155.878384 155.878384 0 0 0 155.866706 155.890062h712.231553a155.890062 155.890062 0 0 0 155.901741-155.890062V155.925096A155.890062 155.890062 0 0 0 868.098271 0zM708.611375 600.764729l59.090847 282.328125-250.155145-143.476313L267.321865 883.092854l59.114203-282.328125-213.766394-193.621787 286.777456-30.981822L517.547077 112.996647l118.076592 263.164473 286.777456 30.981822z" fill="#E8BF16" p-id="45543"></path><path d="M338.581222 425.781082l242.973154 41.608832-260.969003 212.692015h395.955386L482.571369 629.445978l224.965627-203.664896H338.581222z" fill="#E8BF16" p-id="45544"></path></svg>