<?xml version="1.0" standalone="no"?><!DOCTYPE svg PUBLIC "-//W3C//DTD SVG 1.1//EN" "http://www.w3.org/Graphics/SVG/1.1/DTD/svg11.dtd"><svg t="1724386339333" class="icon" viewBox="0 0 1024 1024" version="1.1" xmlns="http://www.w3.org/2000/svg" p-id="79948" width="200" height="200" xmlns:xlink="http://www.w3.org/1999/xlink"><path d="M924.444 483.556H739.556a28.444 28.444 0 0 0-26.397 17.891l-25.998 64.967-90.909-318.236c-7.85-27.392-46.62-27.534-54.641-0.2L428.885 631.183l-59.96-239.872c-6.4-25.6-41.245-29.44-53.021-5.802l-49.038 98.048H99.556V184.889a85.333 85.333 0 0 1 85.333-85.333H839.11a85.333 85.333 0 0 1 85.333 85.333v298.667z m0 56.888v298.667a85.333 85.333 0 0 1-85.333 85.333H184.89a85.333 85.333 0 0 1-85.333-85.333V540.444h184.888a28.444 28.444 0 0 0 25.43-15.73l22.5-44.998 66.702 266.752c7.025 28.103 46.705 28.928 54.897 1.137l114.518-389.461 86.812 303.9c7.453 26.056 43.69 27.904 53.76 2.731l49.75-124.33h165.631z" fill="#8579f4" p-id="79949"></path></svg>