<?xml version="1.0" standalone="no"?><!DOCTYPE svg PUBLIC "-//W3C//DTD SVG 1.1//EN" "http://www.w3.org/Graphics/SVG/1.1/DTD/svg11.dtd"><svg t="1724397209068" class="icon" viewBox="0 0 1024 1024" version="1.1" xmlns="http://www.w3.org/2000/svg" p-id="185846" xmlns:xlink="http://www.w3.org/1999/xlink" width="200" height="200"><path d="M751.252 16.445H257.456C116.176 16.445 0.582 132.038 0.582 273.32v493.796c0 141.28 115.593 256.874 256.874 256.874h493.796c141.28 0 256.873-115.593 256.873-256.874V273.32c0-141.28-115.593-256.874-256.873-256.874zM335.624 218.147c14.759-14.42 32.3-21.646 52.639-21.646 20.324 0 37.712 7.225 52.147 21.646 14.42 14.436 21.646 31.977 21.646 52.639s-7.225 38.218-21.646 52.639c-14.435 14.435-31.823 21.646-52.147 21.646-20.34 0-37.881-7.21-52.639-21.646-14.759-14.421-22.138-31.977-22.138-52.64s7.38-38.202 22.138-52.638z m204.653 611.007c-1.644 6.564-5.412 11.807-11.315 15.743l-4.92 2.951c-5.903 3.936-12.144 5.258-18.694 3.936-6.565-1.307-11.808-4.92-15.743-10.823L392.2 690.423c-3.936-5.242-5.258-11.146-3.936-17.71 0.646-6.55 3.597-11.808 8.855-15.743l78.712-61.986-61.002-91.504v31.485c-0.661 5.904-3.443 10.993-8.363 15.25-4.92 4.274-10.33 6.395-16.234 6.395H262.322c-7.872-1.307-14.268-4.92-19.186-10.823-4.92-5.903-7.38-12.79-7.38-20.662 0-8.517 2.953-15.742 8.856-21.646 5.903-5.903 13.114-8.854 21.646-8.854h105.277V427.719c0-0.646 0.324-1.306 0.984-1.968 1.307-6.549 4.581-11.807 9.84-15.743l97.406-64.938 7.872-3.936c41.324-26.228 73.793-35.744 97.408-28.533 11.145 3.29 23.275 9.192 36.404 17.71 13.113 8.532 23.275 16.08 30.501 22.63l11.808 9.839 3.936 3.935c1.307 1.323 3.274 4.105 5.903 8.364 2.613 4.274 4.427 8.532 5.412 12.79 0.984 4.274 0.322 9.025-1.968 14.267-2.307 5.258-6.888 9.839-13.775 13.774-6.888 3.936-13.13 6.241-18.693 6.888-5.582 0.66-10.179-0.323-13.776-2.952-3.612-2.614-6.563-5.412-8.854-8.364-2.307-2.952-4.427-6.394-6.396-10.33-1.967-3.936-3.29-6.227-3.936-6.887-3.29-3.275-10.007-6.718-20.17-10.33-10.177-3.598-17.557-5.413-22.137-5.413-5.903 0-15.42 4.274-28.534 12.79l86.584 129.876 6.888 8.856c3.936 5.258 5.564 11.161 4.92 17.71-0.662 6.564-3.613 11.807-8.856 15.742l-168.25 132.83 74.777 114.133c3.935 5.904 5.074 12.145 3.444 18.695z m214-34.436l-8.854 6.887c-5.259 4.597-11.808 6.242-19.68 4.92-7.87-1.307-14.434-5.242-19.678-11.807L600.787 669.762c-1.322-1.308-2.629-2.952-3.936-4.92l48.213-36.405c1.307 0.66 2.29 1.322 2.951 1.968l105.279 123.973c5.242 6.564 8.025 13.774 8.363 21.645 0.323 7.872-2.138 14.114-7.38 18.695z" fill="#61d0f7" p-id="185847"></path></svg>