<?xml version="1.0" standalone="no"?><!DOCTYPE svg PUBLIC "-//W3C//DTD SVG 1.1//EN" "http://www.w3.org/Graphics/SVG/1.1/DTD/svg11.dtd"><svg t="1723190313899" class="icon" viewBox="0 0 1157 1024" version="1.1" xmlns="http://www.w3.org/2000/svg" p-id="15441" xmlns:xlink="http://www.w3.org/1999/xlink" width="225.9765625" height="200"><path d="M578.949585 998.612333c-108.963866 0-219.450992-8.950307-328.373314-26.620122a16.621998 16.621998 0 0 0-0.664695-0.110783c-89.239957-15.541868-176.416589-93.528164-194.321818-173.836278l-0.184637-0.844717c-39.877101-192.309268-39.877101-387.328092 0-579.632745l0.180021-0.830869C73.48114 136.410242 160.657771 58.419329 249.920808 42.882077l0.660079-0.110782C359.498594 25.106094 469.976488 16.155788 578.949585 16.155788c108.973098 0 219.450992 8.954922 328.387162 26.620123l0.664695 0.110782c89.244573 15.541868 176.411973 93.528164 194.317202 173.850126l0.17079 0.830869c39.890948 192.309268 39.890948 387.328092 0 579.637361-0.055391 0.281572-0.106167 0.549297-0.17079 0.826253-17.882149 80.31273-105.054165 158.308258-194.312586 173.854742a18.366823 18.366823 0 0 1-0.669311 0.110783c-108.93617 17.651352-219.41868 26.615507-328.387162 26.615506z m-309.521817-140.467652c102.709268 16.635846 206.849477 25.069167 309.521817 25.069167 102.676956 0 206.831013-8.437937 309.549513-25.073783 45.970141-8.170213 93.809737-53.309484 101.09369-84.873278 36.521313-176.4489 36.521313-355.3304 0-531.774685-7.293184-31.573026-55.13278-76.716913-101.09369-84.873278-102.723116-16.635846-206.858709-25.073783-309.549513-25.073783s-206.821781 8.433321-309.540281 25.073783c-45.965525 8.160981-93.814353 53.304868-101.107537 84.877894-36.512081 176.416589-36.512081 355.344248 0 531.770069 7.307032 31.563794 55.160476 76.726145 101.126001 84.877894z" p-id="15442"></path><path d="M478.640606 772.500541a57.717706 57.717706 0 0 1-57.694627-57.699243V333.233898a57.699243 57.699243 0 0 1 92.092607-46.330184l259.632745 192.757014a57.740786 57.740786 0 0 1 23.305878 46.611757 57.740786 57.740786 0 0 1-23.762856 46.385575l-259.632745 188.80577a57.671547 57.671547 0 0 1-33.941002 11.036711z m57.703858-324.565164v153.572304l104.491021-75.99221-104.491021-77.580094z" p-id="15443"></path></svg>