<!--
  -   Copyright (c) 2025 Huawei Device Co., Ltd.
  -   Licensed under the Apache License, Version 2.0 (the "License");
  -   you may not use this file except in compliance with the License.
  -   You may obtain a copy of the License at
  -
  -       http://www.apache.org/licenses/LICENSE-2.0
  -
  -   Unless required by applicable law or agreed to in writing, software
  -   distributed under the License is distributed on an "AS IS" BASIS,
  -   WITHOUT WARRANTIES OR CONDITIONS OF ANY KIND, either express or implied.
  -   See the License for the specific language governing permissions and
  -   limitations under the License.
  -->

<svg width="20.000000" height="20.000000" viewBox="0 0 20 20" fill="none" xmlns="http://www.w3.org/2000/svg" xmlns:xlink="http://www.w3.org/1999/xlink">
	<desc>
			Created with Pixso.
	</desc>
	<defs>
		<clipPath id="clip2_8469">
			<rect id="航次管理" width="20.000000" height="20.000000" fill="white" fill-opacity="0"/>
		</clipPath>
	</defs>
	<g clip-path="url(#clip2_8469)">
		<path id="path" d="M18.67 16.62C18.49 16.54 18.32 16.43 18.16 16.32L18.07 16.26C17.77 16.12 17.46 16.02 17.14 15.94C16.83 15.87 16.5 15.83 16.18 15.83L16.16 15.83L18.14 10.8C18.2 10.72 18.25 10.64 18.29 10.55C18.33 10.46 18.36 10.37 18.38 10.27C18.41 10.18 18.42 10.08 18.43 9.99C18.44 9.89 18.44 9.79 18.43 9.69C18.43 9.6 18.41 9.5 18.39 9.41C18.36 9.31 18.33 9.22 18.29 9.13C18.25 9.04 18.2 8.96 18.15 8.88C18.09 8.79 18.03 8.72 17.97 8.65C17.89 8.56 17.79 8.49 17.69 8.44L16.18 7.61L16.18 4.42C16.18 3.79 15.68 3.28 15.06 3.28L14.49 3.28L14.49 2.14C14.49 2.1 14.49 2.06 14.49 2.02C14.49 1.99 14.48 1.95 14.47 1.91C14.47 1.88 14.46 1.84 14.45 1.81C14.44 1.77 14.42 1.74 14.41 1.7C14.4 1.67 14.38 1.63 14.36 1.6C14.35 1.57 14.33 1.54 14.31 1.51C14.29 1.47 14.27 1.44 14.24 1.42C14.22 1.39 14.19 1.36 14.17 1.33C14.14 1.31 14.11 1.28 14.09 1.26C14.06 1.23 14.03 1.21 14 1.19C13.97 1.17 13.93 1.15 13.9 1.13C13.87 1.12 13.84 1.1 13.8 1.08C13.77 1.07 13.73 1.06 13.7 1.05C13.66 1.04 13.63 1.03 13.59 1.02C13.55 1.01 13.52 1.01 13.48 1C13.44 1 13.41 1 13.37 1L6.62 1C6.58 1 6.54 1 6.51 1C6.47 1.01 6.43 1.01 6.4 1.02C6.36 1.03 6.32 1.04 6.29 1.05C6.25 1.06 6.22 1.07 6.18 1.08C6.15 1.1 6.12 1.12 6.08 1.13C6.05 1.15 6.02 1.17 5.99 1.19C5.96 1.21 5.93 1.23 5.9 1.26C5.87 1.28 5.84 1.31 5.82 1.33C5.79 1.36 5.77 1.39 5.74 1.42C5.72 1.44 5.7 1.47 5.68 1.51C5.66 1.54 5.64 1.57 5.62 1.6C5.61 1.63 5.59 1.67 5.58 1.7C5.56 1.74 5.55 1.77 5.54 1.81C5.53 1.84 5.52 1.88 5.51 1.92C5.51 1.95 5.5 1.99 5.5 2.03C5.49 2.06 5.49 2.1 5.49 2.14L5.49 3.28L4.93 3.28C4.31 3.28 3.81 3.79 3.81 4.42L3.81 7.61L2.3 8.44C2.19 8.49 2.1 8.56 2.02 8.65C1.96 8.72 1.89 8.8 1.84 8.88C1.79 8.96 1.74 9.04 1.7 9.13C1.66 9.22 1.63 9.31 1.6 9.41C1.58 9.5 1.56 9.6 1.55 9.7C1.55 9.79 1.55 9.89 1.56 9.99C1.56 10.08 1.58 10.18 1.61 10.27C1.63 10.37 1.66 10.46 1.7 10.55C1.74 10.64 1.79 10.72 1.85 10.8L4.22 16.82C4.24 16.87 4.27 16.92 4.3 16.96C3.96 16.95 3.63 16.89 3.31 16.79C2.98 16.68 2.68 16.52 2.41 16.32L2.32 16.27C2.12 16.18 1.93 16.1 1.72 16.04C1.69 16.03 1.65 16.02 1.62 16.02C1.58 16.01 1.54 16.01 1.5 16.02C1.47 16.02 1.43 16.03 1.4 16.04C1.36 16.05 1.33 16.06 1.29 16.08C1.26 16.1 1.23 16.12 1.2 16.14C1.17 16.17 1.15 16.19 1.12 16.22C1.1 16.25 1.08 16.28 1.06 16.31C1.04 16.35 1.03 16.38 1.02 16.42C0.93 16.72 1.1 17.04 1.39 17.13C1.54 17.18 1.68 17.23 1.81 17.29C2.54 17.8 3.42 18.1 4.37 18.1C5.03 18.1 5.66 17.95 6.22 17.69L6.32 17.63C6.46 17.53 6.61 17.43 6.77 17.35C6.92 17.27 7.09 17.2 7.26 17.14C7.42 17.09 7.6 17.05 7.77 17.02C7.95 16.99 8.12 16.98 8.3 16.98C8.78 16.98 9.25 17.08 9.68 17.28C10.41 17.8 11.29 18.1 12.25 18.1C12.91 18.1 13.53 17.95 14.1 17.69L14.19 17.63C14.31 17.54 14.44 17.46 14.57 17.39C14.7 17.32 14.83 17.25 14.97 17.2C15.1 17.15 15.25 17.1 15.39 17.07C15.53 17.03 15.68 17.01 15.83 16.99C15.97 16.98 16.12 16.97 16.27 16.98C16.42 16.98 16.57 16.99 16.71 17.02C16.86 17.04 17 17.08 17.14 17.12C17.28 17.17 17.42 17.22 17.56 17.28C17.76 17.43 17.98 17.55 18.19 17.65C18.47 17.79 18.81 17.67 18.94 17.38C18.96 17.35 18.97 17.31 18.98 17.28C18.99 17.24 18.99 17.2 18.99 17.17C19 17.13 18.99 17.09 18.99 17.06C18.98 17.02 18.98 16.98 18.96 16.95C18.95 16.91 18.94 16.88 18.92 16.85C18.9 16.81 18.88 16.78 18.85 16.76C18.83 16.73 18.8 16.7 18.77 16.68C18.74 16.66 18.71 16.64 18.67 16.62ZM4.93 4.42L5.49 4.42C6.11 4.42 6.62 3.91 6.62 3.28L6.62 2.14L13.37 2.14L13.37 3.28C13.37 3.91 13.87 4.42 14.49 4.42L15.06 4.42L15.06 6.99L11.01 4.77C10.86 4.66 10.7 4.57 10.53 4.51C10.36 4.45 10.18 4.41 9.99 4.41C9.63 4.41 9.27 4.54 8.98 4.77L4.93 6.99L4.93 4.42ZM5.72 16.67C5.57 16.73 5.42 16.79 5.26 16.83C5.29 16.76 5.31 16.69 5.31 16.62C5.31 16.54 5.3 16.47 5.27 16.4L2.83 10.23C2.81 10.21 2.79 10.18 2.77 10.15C2.75 10.12 2.73 10.08 2.72 10.05C2.7 10.02 2.69 9.98 2.69 9.95C2.68 9.91 2.68 9.87 2.68 9.84C2.68 9.8 2.68 9.76 2.69 9.73C2.69 9.69 2.7 9.66 2.72 9.62C2.73 9.59 2.75 9.56 2.77 9.53C2.79 9.5 2.81 9.47 2.83 9.44L9.43 5.82L9.43 15.99C9.06 15.88 8.68 15.83 8.3 15.83C7.34 15.83 6.45 16.15 5.72 16.67ZM13.59 16.67C13.18 16.85 12.72 16.96 12.24 16.96C11.95 16.96 11.66 16.92 11.37 16.84C11.08 16.76 10.81 16.65 10.56 16.5L10.56 5.82L17.15 9.44C17.36 9.66 17.36 10.02 17.15 10.24L14.86 16.04C14.41 16.18 13.98 16.39 13.59 16.67Z" fill="#000000" fill-opacity="1.000000" fill-rule="nonzero"/>
		<path id="path" d="M9.43 4.56L9.43 17.18L10.51 17.76L10.56 16.5L10.56 4.52C10.23 4.39 9.88 4.35 9.43 4.52L9.43 4.56Z" fill="#000000" fill-opacity="0.827451" fill-rule="nonzero"/>
	</g>
</svg>
