<!--
  -   Copyright (c) 2025 Huawei Device Co., Ltd.
  -   Licensed under the Apache License, Version 2.0 (the "License");
  -   you may not use this file except in compliance with the License.
  -   You may obtain a copy of the License at
  -
  -       http://www.apache.org/licenses/LICENSE-2.0
  -
  -   Unless required by applicable law or agreed to in writing, software
  -   distributed under the License is distributed on an "AS IS" BASIS,
  -   WITHOUT WARRANTIES OR CONDITIONS OF ANY KIND, either express or implied.
  -   See the License for the specific language governing permissions and
  -   limitations under the License.
  -->

<svg width="40.000000" height="40.000000" viewBox="0 0 40 40" fill="none" xmlns="http://www.w3.org/2000/svg" xmlns:xlink="http://www.w3.org/1999/xlink">
	<desc>
			Created with Pixso.
	</desc>
	<defs/>
	<rect id="画板 55" width="40.000000" height="40.000000" fill="#FFFFFF" fill-opacity="0"/>
	<rect id="右侧图标" width="40.000000" height="40.000000" fill="#FFFFFF" fill-opacity="0"/>
	<circle id="椭圆 4" cx="20.000000" cy="20.000000" r="20.000000" fill="#FFFFFF" fill-opacity="0.764368"/>
	<rect id=".图标" width="20.000000" height="20.000000" transform="translate(10.000000 10.000000)" fill="#FFFFFF" fill-opacity="0"/>
	<path id="path1" d="M8.75 19.99C8.75 18.23 8.74 16.47 8.75 14.71C8.74 13.86 8.85 13.02 9.06 12.19C9.52 10.45 10.66 9.41 12.4 9.01C13.27 8.82 14.16 8.73 15.06 8.75C18.43 8.75 21.8 8.75 25.17 8.75C26.02 8.74 26.87 8.84 27.7 9.04C29.49 9.48 30.57 10.61 30.98 12.4C31.17 13.25 31.25 14.11 31.24 14.98C31.24 18.38 31.24 21.79 31.24 25.2C31.25 26.04 31.15 26.88 30.96 27.7C30.52 29.5 29.37 30.57 27.58 30.98C26.71 31.17 25.82 31.26 24.92 31.24C21.57 31.24 18.21 31.24 14.86 31.24C14 31.25 13.14 31.15 12.31 30.96C10.5 30.52 9.42 29.38 9.01 27.58C8.8 26.66 8.75 25.75 8.75 24.82C8.75 23.21 8.75 21.6 8.75 19.99Z" fill="#FFFFFF" fill-opacity="0" fill-rule="nonzero"/>
	<path id="path1" d="M8.75 14.71C8.74 13.86 8.85 13.02 9.06 12.19C9.52 10.45 10.66 9.41 12.4 9.01C13.27 8.82 14.16 8.73 15.06 8.75C18.43 8.75 21.8 8.75 25.17 8.75C26.02 8.74 26.87 8.84 27.7 9.04C29.49 9.48 30.57 10.61 30.98 12.4C31.17 13.25 31.25 14.11 31.24 14.98C31.24 18.38 31.24 21.79 31.24 25.2C31.25 26.04 31.15 26.88 30.96 27.7C30.52 29.5 29.37 30.57 27.58 30.98C26.71 31.17 25.82 31.26 24.92 31.24C21.57 31.24 18.21 31.24 14.86 31.24C14 31.25 13.14 31.15 12.31 30.96C10.5 30.52 9.42 29.38 9.01 27.58C8.8 26.66 8.75 25.75 8.75 24.82C8.75 23.21 8.75 21.6 8.75 19.99C8.75 18.23 8.74 16.47 8.75 14.71Z" stroke="#FFFFFF" stroke-opacity="0" stroke-width="1.500000"/>
	<path id="path2" d="M8.75 19.99C8.75 18.23 8.74 16.47 8.75 14.71C8.74 13.86 8.85 13.02 9.06 12.19C9.52 10.45 10.66 9.41 12.4 9.01C13.27 8.82 14.16 8.73 15.06 8.75C18.43 8.75 21.8 8.75 25.17 8.75C26.02 8.74 26.87 8.84 27.7 9.04C29.49 9.48 30.57 10.61 30.98 12.4C31.17 13.25 31.25 14.11 31.24 14.98C31.24 18.38 31.24 21.79 31.24 25.2C31.25 26.04 31.15 26.88 30.96 27.7C30.52 29.5 29.37 30.57 27.58 30.98C26.71 31.17 25.82 31.26 24.92 31.24C21.57 31.24 18.21 31.24 14.86 31.24C14 31.25 13.14 31.15 12.31 30.96C10.5 30.52 9.42 29.38 9.01 27.58C8.8 26.66 8.75 25.75 8.75 24.82C8.75 23.21 8.75 21.6 8.75 19.99Z" fill="#000000" fill-opacity="0" fill-rule="nonzero"/>
	<path id="path2" d="M8.75 14.71C8.74 13.86 8.85 13.02 9.06 12.19C9.52 10.45 10.66 9.41 12.4 9.01C13.27 8.82 14.16 8.73 15.06 8.75C18.43 8.75 21.8 8.75 25.17 8.75C26.02 8.74 26.87 8.84 27.7 9.04C29.49 9.48 30.57 10.61 30.98 12.4C31.17 13.25 31.25 14.11 31.24 14.98C31.24 18.38 31.24 21.79 31.24 25.2C31.25 26.04 31.15 26.88 30.96 27.7C30.52 29.5 29.37 30.57 27.58 30.98C26.71 31.17 25.82 31.26 24.92 31.24C21.57 31.24 18.21 31.24 14.86 31.24C14 31.25 13.14 31.15 12.31 30.96C10.5 30.52 9.42 29.38 9.01 27.58C8.8 26.66 8.75 25.75 8.75 24.82C8.75 23.21 8.75 21.6 8.75 19.99C8.75 18.23 8.74 16.47 8.75 14.71Z" stroke="#FFFFFF" stroke-opacity="0" stroke-width="1.500000"/>
	<circle id="path3" cx="20.000000" cy="20.000000" r="12.000000" fill="#FFFFFF" fill-opacity="0"/>
	<circle id="path3" cx="20.000000" cy="20.000000" r="12.000000" stroke="#000000" stroke-opacity="0" stroke-width="1.500000"/>
	<path id="path4" d="M23.46 28.5L23.46 28.53C23.76 28.82 24.23 28.82 24.53 28.53C24.82 28.23 24.82 27.76 24.53 27.46L24.5 27.46L23.46 28.5ZM24.5 12.53L24.53 12.53C24.82 12.23 24.82 11.76 24.53 11.46C24.23 11.17 23.76 11.17 23.46 11.46L23.46 11.49L24.5 12.53Z" fill="#000000" fill-opacity="0" fill-rule="nonzero"/>
	<path id="path4" d="M24 28L16 20L24 12" stroke="#191919" stroke-opacity="1.000000" stroke-width="1.500000" stroke-linejoin="round" stroke-linecap="round"/>
	<path id="path5" d="M25.34 10.6C25.54 10.41 25.55 10.09 25.35 9.9C25.16 9.7 24.84 9.69 24.65 9.89L14.65 19.64C14.44 19.83 14.44 20.16 14.65 20.35L24.65 30.1C24.84 30.3 25.16 30.29 25.35 30.09C25.55 29.9 25.54 29.58 25.34 29.39L15.71 20L25.34 10.6Z" fill="#FFFFFF" fill-opacity="0" fill-rule="nonzero"/>
	<path id="path5" d="M25.35 9.9C25.16 9.7 24.84 9.69 24.65 9.89L14.65 19.64C14.44 19.83 14.44 20.16 14.65 20.35L24.65 30.1C24.84 30.3 25.16 30.29 25.35 30.09C25.55 29.9 25.54 29.58 25.34 29.39L15.71 20L25.34 10.6C25.54 10.41 25.55 10.09 25.35 9.9Z" stroke="#FFFFFF" stroke-opacity="0" stroke-width="1.500000"/>
</svg>
