<!--
  -   Copyright (c) 2025 Huawei Device Co., Ltd.
  -   Licensed under the Apache License, Version 2.0 (the "License");
  -   you may not use this file except in compliance with the License.
  -   You may obtain a copy of the License at
  -
  -       http://www.apache.org/licenses/LICENSE-2.0
  -
  -   Unless required by applicable law or agreed to in writing, software
  -   distributed under the License is distributed on an "AS IS" BASIS,
  -   WITHOUT WARRANTIES OR CONDITIONS OF ANY KIND, either express or implied.
  -   See the License for the specific language governing permissions and
  -   limitations under the License.
  -->

<svg width="18.000000" height="18.000000" viewBox="0 0 18 18" fill="none" xmlns="http://www.w3.org/2000/svg" xmlns:xlink="http://www.w3.org/1999/xlink">
	<desc>
			Created with Pixso.
	</desc>
	<defs/>
	<path id="path" d="M17.86 15.1L16.04 12.65L16.04 6.34C16.04 4.99 15.48 3.72 14.46 2.76C13.44 1.8 12.08 1.28 10.63 1.28L9.74 1.28L9.74 0.69C9.74 0.31 9.41 0 9 0C8.58 0 8.25 0.31 8.25 0.69L8.25 1.28L7.36 1.28C5.91 1.28 4.55 1.8 3.53 2.76C2.51 3.72 1.95 4.99 1.95 6.34L1.95 12.65L0.13 15.1C0.09 15.15 0.06 15.21 0.04 15.27C0.01 15.33 0 15.39 0 15.45C-0.01 15.52 0 15.58 0.01 15.64C0.03 15.71 0.05 15.76 0.08 15.82C0.11 15.88 0.15 15.93 0.2 15.98C0.24 16.02 0.3 16.06 0.36 16.09C0.41 16.13 0.48 16.15 0.54 16.17C0.61 16.19 0.67 16.2 0.74 16.2L6.47 16.2C6.78 17.23 7.79 18 9 18C10.2 18 11.21 17.23 11.52 16.2L17.25 16.2C17.32 16.2 17.38 16.19 17.45 16.17C17.51 16.15 17.58 16.13 17.63 16.09C17.69 16.06 17.75 16.02 17.79 15.98C17.84 15.93 17.88 15.88 17.91 15.82C17.94 15.76 17.96 15.71 17.98 15.64C17.99 15.58 18 15.52 17.99 15.45C17.99 15.39 17.98 15.33 17.95 15.27C17.93 15.21 17.9 15.15 17.86 15.1ZM9 16.6C8.64 16.6 8.32 16.44 8.11 16.2L9.88 16.2C9.67 16.44 9.35 16.6 9 16.6ZM2.17 14.8L3.31 13.27C3.4 13.15 3.44 13.02 3.44 12.87L3.44 6.34C3.44 4.32 5.2 2.67 7.36 2.67L10.63 2.67C12.79 2.67 14.55 4.32 14.55 6.34L14.55 12.87C14.55 13.02 14.6 13.15 14.68 13.27L15.82 14.8L2.17 14.8Z" fill="#000000" fill-opacity="1.000000" fill-rule="nonzero"/>
</svg>
