<svg width="24" height="18" viewBox="0 0 24 18" fill="none" xmlns="http://www.w3.org/2000/svg">
<g clip-path="url(#clip0_1_4624)">
<path d="M21.7142 0H2.28565C1.02329 0 -6.10352e-05 1.07452 -6.10352e-05 2.4V15.6C-6.10352e-05 16.9255 1.02329 18 2.28565 18H21.7142C22.9766 18 23.9999 16.9255 23.9999 15.6V2.4C23.9999 1.07452 22.9766 0 21.7142 0Z" fill="#1A47B8"/>
<path d="M18.9999 13L19.2461 13.5279L19.8019 13.3961L19.5529 13.9226L19.9999 14.2862L19.4434 14.4149L19.445 15L18.9999 14.6339L18.5549 15L18.5564 14.4149L17.9999 14.2862L18.4469 13.9226L18.198 13.3961L18.7538 13.5279L18.9999 13Z" fill="white"/>
<path d="M17 8L17.2461 8.52792L17.8019 8.3961L17.553 8.92263L17.9999 9.28621L17.4435 9.41486L17.445 10L17 9.6339L16.5549 10L16.5564 9.41486L15.9999 9.28621L16.4469 8.92263L16.198 8.3961L16.7538 8.52792L17 8Z" fill="white"/>
<path d="M18.9999 5L19.2461 5.52791L19.8019 5.39613L19.553 5.92265L19.9999 6.28618L19.4434 6.41487L19.445 7L18.9999 6.63391L18.5549 7L18.5564 6.41487L17.9999 6.28618L18.4469 5.92265L18.198 5.39613L18.7538 5.52791L18.9999 5Z" fill="white"/>
<path d="M21 7L21.2461 7.52792L21.8019 7.3961L21.553 7.92263L21.9999 8.28621L21.4434 8.4149L21.445 9L21 8.63394L20.5549 9L20.5564 8.4149L19.9999 8.28621L20.4469 7.92263L20.198 7.3961L20.7538 7.52792L21 7Z" fill="white"/>
<path d="M19.9999 10L20.236 10.7639H20.9999L20.3819 11.2361L20.618 12L19.9999 11.5279L19.3819 12L19.618 11.2361L18.9999 10.7639H19.7639L19.9999 10Z" fill="white"/>
<path d="M8.49994 12L8.86914 12.7918L9.70285 12.5942L9.32949 13.384L9.99994 13.9293L9.16518 14.1223L9.16752 15L8.49994 14.4509L7.83238 15L7.83472 14.1223L6.99994 13.9293L7.67041 13.384L7.29701 12.5942L8.13077 12.7918L8.49994 12Z" fill="white"/>
<mask id="mask0_1_4624" style="mask-type:alpha" maskUnits="userSpaceOnUse" x="0" y="0" width="13" height="9">
<rect x="-6.10352e-05" width="12.375" height="9" fill="#D9D9D9"/>
</mask>
<g mask="url(#mask0_1_4624)">
<rect width="15.6745" height="1.45836" transform="matrix(0.797977 0.602688 -0.350568 0.936537 0.149353 -1.34473)" fill="white"/>
<rect width="6.9938" height="0.530313" transform="matrix(0.797977 0.602688 -0.350568 0.936537 -0.0176392 -0.563049)" fill="#C8102E"/>
<rect width="5.94387" height="0.530313" transform="matrix(0.797977 0.602688 -0.350568 0.936537 7.80902 4.78125)" fill="#C8102E"/>
<rect width="15.6745" height="1.45836" transform="matrix(0.797977 -0.602688 0.350568 0.936537 -0.391174 8.46277)" fill="white"/>
<rect width="6.58334" height="0.530313" transform="matrix(0.797977 -0.602688 0.350568 0.936537 7.03119 3.12451)" fill="#C8102E"/>
<rect width="6.38211" height="0.530313" transform="matrix(0.797977 -0.602688 0.350568 0.936537 0.0966187 9.06812)" fill="#C8102E"/>
<rect x="-0.0264282" y="2.88062" width="12.672" height="3.09375" fill="white"/>
<rect x="5.22064" y="8.92694" width="9" height="2.178" transform="rotate(-90 5.22064 8.92694)" fill="white"/>
<rect x="5.91498" y="8.92694" width="9" height="0.891" transform="rotate(-90 5.91498 8.92694)" fill="#C8102E"/>
<rect x="-0.0264282" y="3.86609" width="12.672" height="1.26562" fill="#C8102E"/>
</g>
</g>
<defs>
<clipPath id="clip0_1_4624">
<rect width="24" height="18" rx="2" fill="white"/>
</clipPath>
</defs>
</svg>
