<svg width="24" height="18" viewBox="0 0 24 18" fill="none" xmlns="http://www.w3.org/2000/svg">
<g clip-path="url(#clip0_1_3916)">
<path d="M0.00012207 2.25C0.00012207 1.00736 0.976955 0 2.18194 0H21.8183C23.0233 0 24.0001 1.00736 24.0001 2.25V15.75C24.0001 16.9926 23.0233 18 21.8183 18H2.18194C0.976955 18 0.00012207 16.9926 0.00012207 15.75V2.25Z" fill="white"/>
<path d="M12.0001 13.1998C14.2093 13.1998 16.0001 11.3194 16.0001 8.9998C16.0001 6.68021 14.2093 4.7998 12.0001 4.7998C9.79098 4.7998 8.00012 6.68021 8.00012 8.9998C8.00012 11.3194 9.79098 13.1998 12.0001 13.1998Z" fill="#D80027"/>
</g>
<defs>
<clipPath id="clip0_1_3916">
<rect width="24" height="18" rx="2" fill="white"/>
</clipPath>
</defs>
</svg>
