<svg width="24" height="18" viewBox="0 0 24 18" fill="none" xmlns="http://www.w3.org/2000/svg">
<g clip-path="url(#clip0_1_4371)">
<path d="M21.7143 0H2.28568C1.02332 0 -3.05176e-05 1.07452 -3.05176e-05 2.4V15.6C-3.05176e-05 16.9255 1.02332 18 2.28568 18H21.7143C22.9766 18 24 16.9255 24 15.6V2.4C24 1.07452 22.9766 0 21.7143 0Z" fill="#1A47B8"/>
<path d="M21.4097 7.65234L21.6687 8.4495H22.5069L21.8288 8.94216L22.0878 9.73927L21.4097 9.24666L20.7316 9.73927L20.9906 8.94216L20.3125 8.4495H21.1506L21.4097 7.65234Z" fill="#D80027"/>
<path d="M18.4153 13.3911L18.8038 14.5869H20.0611L19.0439 15.3258L19.4325 16.5216L18.4153 15.7826L17.3981 16.5216L17.7867 15.3258L16.7695 14.5869H18.0267L18.4153 13.3911Z" fill="#D80027"/>
<path d="M18.5276 4L18.8515 4.99652H19.8992L19.0515 5.61222L19.3753 6.60869L18.5276 5.9928L17.68 6.60869L18.0038 5.61222L17.1562 4.99652H18.2039L18.5276 4Z" fill="#D80027"/>
<path d="M15.6458 7.61719L16.0342 8.81297H17.2915L16.2743 9.55191L16.6629 10.7476L15.6458 10.0087L14.6286 10.7476L15.0172 9.55191L14 8.81297H15.2572L15.6458 7.61719Z" fill="#D80027"/>
<mask id="mask0_1_4371" style="mask-type:alpha" maskUnits="userSpaceOnUse" x="0" y="-1" width="13" height="10">
<rect x="-9.15527e-05" y="-0.00012207" width="12.375" height="9" fill="#D9D9D9"/>
</mask>
<g mask="url(#mask0_1_4371)">
<rect width="15.6745" height="1.45836" transform="matrix(0.797977 0.602688 -0.350568 0.936537 0.149323 -1.34485)" fill="white"/>
<rect width="6.9938" height="0.530313" transform="matrix(0.797977 0.602688 -0.350568 0.936537 -0.0176697 -0.563171)" fill="#C8102E"/>
<rect width="5.94387" height="0.530313" transform="matrix(0.797977 0.602688 -0.350568 0.936537 7.80899 4.78113)" fill="#C8102E"/>
<rect width="15.6745" height="1.45836" transform="matrix(0.797977 -0.602688 0.350568 0.936537 -0.391205 8.46265)" fill="white"/>
<rect width="6.58334" height="0.530313" transform="matrix(0.797977 -0.602688 0.350568 0.936537 7.03116 3.12439)" fill="#C8102E"/>
<rect width="6.38211" height="0.530313" transform="matrix(0.797977 -0.602688 0.350568 0.936537 0.0965881 9.06799)" fill="#C8102E"/>
<rect x="-0.0264587" y="2.88049" width="12.672" height="3.09375" fill="white"/>
<rect x="5.22061" y="8.92682" width="9" height="2.178" transform="rotate(-90 5.22061 8.92682)" fill="white"/>
<rect x="5.91495" y="8.92682" width="9" height="0.891" transform="rotate(-90 5.91495 8.92682)" fill="#C8102E"/>
<rect x="-0.0264587" y="3.86597" width="12.672" height="1.26562" fill="#C8102E"/>
</g>
</g>
<defs>
<clipPath id="clip0_1_4371">
<rect width="24" height="18" rx="2" fill="white"/>
</clipPath>
</defs>
</svg>
