<svg width="24" height="18" viewBox="0 0 24 18" fill="none" xmlns="http://www.w3.org/2000/svg">
<g clip-path="url(#clip0_1_4258)">
<path d="M0.00012207 2.24994C0.00012207 1.0073 0.976955 -6.10352e-05 2.18194 -6.10352e-05H21.8183C23.0233 -6.10352e-05 24.0001 1.0073 24.0001 2.24994V15.7499C24.0001 16.9926 23.0233 17.9999 21.8183 17.9999H2.18194C0.976955 17.9999 0.00012207 16.9926 0.00012207 15.7499V2.24994Z" fill="white"/>
<path fill-rule="evenodd" clip-rule="evenodd" d="M0.00012207 -6.10352e-05H24.0001V11.2499H0.00012207V-6.10352e-05Z" fill="#D80027"/>
<path d="M4.56525 5.65206C4.56525 3.90372 5.79398 2.44319 7.4348 2.08483C7.18261 2.0298 6.921 1.99994 6.65217 1.99994C4.63509 1.99994 3 3.63503 3 5.65211C3 7.66919 4.63509 9.30428 6.65217 9.30428C6.92091 9.30428 7.18256 9.27442 7.4348 9.21935C5.79398 8.86099 4.56525 7.40045 4.56525 5.65206Z" fill="white"/>
<path d="M9.26122 2.26068L9.52025 3.05779H10.3584L9.68028 3.55049L9.93931 4.3476L9.26122 3.85499L8.58313 4.3476L8.84216 3.55049L8.16406 3.05779H9.00219L9.26122 2.26068Z" fill="white"/>
<path d="M7.22616 3.82611L7.48514 4.62327H8.32331L7.64522 5.11592L7.90425 5.91303L7.22616 5.42042L6.54797 5.91303L6.80705 5.11592L6.12891 4.62327H6.96708L7.22616 3.82611Z" fill="white"/>
<path d="M11.2925 3.82611L11.5515 4.62327H12.3897L11.7115 5.11592L11.9706 5.91303L11.2925 5.42042L10.6144 5.91303L10.8734 5.11592L10.1953 4.62327H11.0334L11.2925 3.82611Z" fill="white"/>
<path d="M10.5112 6.17377L10.7703 6.97092H11.6084L10.9303 7.46358L11.1893 8.26069L10.5112 7.76808L9.83313 8.26069L10.0922 7.46358L9.41406 6.97092H10.2521L10.5112 6.17377Z" fill="white"/>
<path d="M8.01127 6.17377L8.27025 6.97092H9.10847L8.43033 7.46358L8.68941 8.26069L8.01127 7.76808L7.33313 8.26069L7.59216 7.46358L6.91406 6.97092H7.75223L8.01127 6.17377Z" fill="white"/>
</g>
<defs>
<clipPath id="clip0_1_4258">
<rect width="24" height="18" rx="2" fill="white"/>
</clipPath>
</defs>
</svg>
