<svg width="24" height="18" viewBox="0 0 24 18" fill="none" xmlns="http://www.w3.org/2000/svg">
<g clip-path="url(#clip0_1_4079)">
<path d="M0.00012207 2.25018C0.00012207 1.00754 0.976955 0.000183105 2.18194 0.000183105H21.8183C23.0233 0.000183105 24.0001 1.00754 24.0001 2.25018V15.7502C24.0001 16.9928 23.0233 18.0002 21.8183 18.0002H2.18194C0.976955 18.0002 0.00012207 16.9928 0.00012207 15.7502V2.25018Z" fill="white"/>
<path fill-rule="evenodd" clip-rule="evenodd" d="M0.00012207 0.000183105H10.2858V8.40018H0.00012207V0.000183105Z" fill="#1A47B8"/>
<path fill-rule="evenodd" clip-rule="evenodd" d="M10.2858 0.000183105V1.20018H24.0001V0.000183105H10.2858ZM10.2858 2.40018V3.60018H24.0001V2.40018H10.2858ZM10.2858 4.80018V6.00018H24.0001V4.80018H10.2858ZM10.2858 7.20018V8.40018H24.0001V7.20018H10.2858ZM0.00012207 9.60018V10.8002H24.0001V9.60018H0.00012207ZM0.00012207 12.0002V13.2002H24.0001V12.0002H0.00012207ZM0.00012207 14.4002V15.6002H24.0001V14.4002H0.00012207ZM0.00012207 16.8002V18.0002H24.0001V16.8002H0.00012207Z" fill="#D80027"/>
<path d="M8.875 6.25006L9.02255 6.72755H9.5L9.11373 7.02261L9.26129 7.50006L8.875 7.20498L8.48871 7.50006L8.63627 7.02261L8.25 6.72755H8.72745L8.875 6.25006Z" fill="white"/>
<path d="M8.875 4.37506L9.02255 4.85255H9.5L9.11373 5.14761L9.26129 5.62506L8.875 5.32998L8.48871 5.62506L8.63627 5.14761L8.25 4.85255H8.72745L8.875 4.37506Z" fill="white"/>
<path d="M8.875 2.50006L9.02255 2.97755H9.5L9.11373 3.27261L9.26129 3.75006L8.875 3.45498L8.48871 3.75006L8.63627 3.27261L8.25 2.97755H8.72745L8.875 2.50006Z" fill="white"/>
<path d="M8.875 0.500061L9.02255 0.977548H9.5L9.11373 1.27261L9.26129 1.75006L8.875 1.45498L8.48871 1.75006L8.63627 1.27261L8.25 0.977548H8.72745L8.875 0.500061Z" fill="white"/>
<path d="M8.875 0.500061L9.02255 0.977548H9.5L9.11373 1.27261L9.26129 1.75006L8.875 1.45498L8.48871 1.75006L8.63627 1.27261L8.25 0.977548H8.72745L8.875 0.500061Z" fill="white"/>
<path d="M7 2.50006L7.14755 2.97755H7.625L7.23873 3.27261L7.38629 3.75006L7 3.45498L6.61371 3.75006L6.76127 3.27261L6.375 2.97755H6.85245L7 2.50006Z" fill="white"/>
<path d="M7 0.500061L7.14755 0.977548H7.625L7.23873 1.27261L7.38629 1.75006L7 1.45498L6.61371 1.75006L6.76127 1.27261L6.375 0.977548H6.85245L7 0.500061Z" fill="white"/>
<path d="M7 0.500061L7.14755 0.977548H7.625L7.23873 1.27261L7.38629 1.75006L7 1.45498L6.61371 1.75006L6.76127 1.27261L6.375 0.977548H6.85245L7 0.500061Z" fill="white"/>
<path d="M5.125 2.50006L5.27255 2.97755H5.75L5.36373 3.27261L5.51129 3.75006L5.125 3.45498L4.73871 3.75006L4.88627 3.27261L4.5 2.97755H4.97745L5.125 2.50006Z" fill="white"/>
<path d="M3.125 2.50006L3.27255 2.97755H3.75L3.36373 3.27261L3.51129 3.75006L3.125 3.45498L2.73871 3.75006L2.88627 3.27261L2.5 2.97755H2.97745L3.125 2.50006Z" fill="white"/>
<path d="M1.125 2.50006L1.27255 2.97755H1.75L1.36373 3.27261L1.51129 3.75006L1.125 3.45498L0.738714 3.75006L0.886268 3.27261L0.5 2.97755H0.977446L1.125 2.50006Z" fill="white"/>
<path d="M5.125 0.500061L5.27255 0.977548H5.75L5.36373 1.27261L5.51129 1.75006L5.125 1.45498L4.73871 1.75006L4.88627 1.27261L4.5 0.977548H4.97745L5.125 0.500061Z" fill="white"/>
<path d="M5.125 0.500061L5.27255 0.977548H5.75L5.36373 1.27261L5.51129 1.75006L5.125 1.45498L4.73871 1.75006L4.88627 1.27261L4.5 0.977548H4.97745L5.125 0.500061Z" fill="white"/>
<path d="M3.125 0.500061L3.27255 0.977548H3.75L3.36373 1.27261L3.51129 1.75006L3.125 1.45498L2.73871 1.75006L2.88627 1.27261L2.5 0.977548H2.97745L3.125 0.500061Z" fill="white"/>
<path d="M1.125 0.500061L1.27255 0.977548H1.75L1.36373 1.27261L1.51129 1.75006L1.125 1.45498L0.738714 1.75006L0.886268 1.27261L0.5 0.977548H0.977446L1.125 0.500061Z" fill="white"/>
<path d="M7 4.37506L7.14755 4.85255H7.625L7.23873 5.14761L7.38629 5.62506L7 5.32998L6.61371 5.62506L6.76127 5.14761L6.375 4.85255H6.85245L7 4.37506Z" fill="white"/>
<path d="M5.125 4.37506L5.27255 4.85255H5.75L5.36373 5.14761L5.51129 5.62506L5.125 5.32998L4.73871 5.62506L4.88627 5.14761L4.5 4.85255H4.97745L5.125 4.37506Z" fill="white"/>
<path d="M3.125 4.37506L3.27255 4.85255H3.75L3.36373 5.14761L3.51129 5.62506L3.125 5.32998L2.73871 5.62506L2.88627 5.14761L2.5 4.85255H2.97745L3.125 4.37506Z" fill="white"/>
<path d="M1.125 4.37506L1.27255 4.85255H1.75L1.36373 5.14761L1.51129 5.62506L1.125 5.32998L0.738714 5.62506L0.886268 5.14761L0.5 4.85255H0.977446L1.125 4.37506Z" fill="white"/>
<path d="M7 6.25006L7.14755 6.72755H7.625L7.23873 7.02261L7.38629 7.50006L7 7.20498L6.61371 7.50006L6.76127 7.02261L6.375 6.72755H6.85245L7 6.25006Z" fill="white"/>
<path d="M5.125 6.25006L5.27255 6.72755H5.75L5.36373 7.02261L5.51129 7.50006L5.125 7.20498L4.73871 7.50006L4.88627 7.02261L4.5 6.72755H4.97745L5.125 6.25006Z" fill="white"/>
<path d="M3.125 6.25006L3.27255 6.72755H3.75L3.36373 7.02261L3.51129 7.50006L3.125 7.20498L2.73871 7.50006L2.88627 7.02261L2.5 6.72755H2.97745L3.125 6.25006Z" fill="white"/>
<path d="M1.125 6.25006L1.27255 6.72755H1.75L1.36373 7.02261L1.51129 7.50006L1.125 7.20498L0.738714 7.50006L0.886268 7.02261L0.5 6.72755H0.977446L1.125 6.25006Z" fill="white"/>
</g>
<defs>
<clipPath id="clip0_1_4079">
<rect width="24" height="18" rx="2" fill="white"/>
</clipPath>
</defs>
</svg>
