<?xml version="1.0" standalone="no"?><!DOCTYPE svg PUBLIC "-//W3C//DTD SVG 1.1//EN"
        "http://www.w3.org/Graphics/SVG/1.1/DTD/svg11.dtd">
<svg class="icon" viewBox="0 0 1024 1024" version="1.1" xmlns="http://www.w3.org/2000/svg"
     width="200" height="200">
    <path d="M610.176 341.084c40.192 0 72.74 32.548 72.74 72.74V610.21c0 40.158-32.548 72.706-72.74 72.706H413.79c-40.158 0.033-72.706-32.548-72.706-72.706V413.824c0-40.192 32.548-72.74 72.74-72.74h196.352z"
          fill="#1296DB" />
    <path d="M666.244 243.476c63.145 0 114.28 51.135 114.28 114.28v308.54c0 63.093-51.135 114.228-114.28 114.228h-308.54c-63.093 0.052-114.228-51.135-114.228-114.228v-308.54c0-63.145 51.135-114.28 114.28-114.28h308.488z m-12.85 22.447H370.606c-57.848 0-104.734 46.887-104.734 104.735v282.789c0 57.848 46.886 104.735 104.734 104.735h282.79c57.847 0 104.734-46.887 104.734-104.735v-282.79c0-57.9-46.887-104.734-104.734-104.734z"
          fill="#1296DB" />
    <rect x="0" y="0" width="1024" height="1024" fill="#D81E06" />
    <path d="M514.2 794.7c-163.3 0-250.2-94.9-250.2-94.9-41.4 7.1-103.5 38.8-103.5 38.8-12.5-13.5-17.3-25.9-17.3-25.9 14.3-13.7 99.2-43.1 99.2-43.1-4.1-5.1-12.9-17.3-12.9-17.3-67.4 4-107.8 21.6-107.8 21.6-5.5-13.2-12.9-30.2-12.9-30.2 18-11.6 107.8-21.6 107.8-21.6-2.7-4.4-8.6-25.9-8.6-25.9-98.8 2.1-107.8 8.6-107.8 8.6-4.1-9.4-8.6-30.2-8.6-30.2 35.5-9.5 107.7-8.5 107.7-8.5-8.8-97.4 34.5-151 34.5-151 1.4-114.3 34.5-181.2 34.5-181.2 52.6 8.6 125.1 60.4 125.1 60.4 44.3-21.9 177.8-29.8 237.3 0 0 0 72.5-51.8 125.1-60.4 0 0 33.1 66.9 34.5 181.2 0 0 43.3 53.6 34.5 151 0 0 72.2-1 107.8 8.6 0 0-4.6 20.8-8.6 30.2 0 0-9.1-6.5-107.8-8.6 0 0-5.9 21.5-8.6 25.9 0 0 89.8 10 107.8 21.6 0 0-7.4 17-12.9 30.2 0 0-40.5-17.6-107.8-21.6 0 0-8.9 12.1-12.9 17.3 0 0 84.9 29.5 99.2 43.1 0 0-4.8 12.4-17.3 25.9 0 0-62.2-31.8-103.5-38.8 0 0-86.8 94.9-250.2 94.9"
          fill="#FFFFFF" />
    <path d="M660.8 436.6c0-9.5-7.7-17.3-17.3-17.3-9.5 0-17.3 7.7-17.3 17.3V523c0 9.5 7.7 17.3 17.3 17.3 9.5 0 17.3-7.7 17.3-17.3v-86.4z m-258.8 0c0-9.5-7.7-17.3-17.3-17.3-9.5 0-17.3 7.7-17.3 17.3V523c0 9.5 7.7 17.3 17.3 17.3 9.5 0 17.3-7.7 17.3-17.3v-86.4z m241.6 146.6s-4.6 69-64.7 69c0 0-61.6 1.9-64.6-56.1h-0.2c-3 57.2-64.6 56.1-64.6 56.1-60.1 0-64.7-69-64.7-69-57.2 0-103.5-46.4-103.5-103.5s46.4-103.5 103.5-103.5 103.5 46.3 103.5 103.5c0 49.8-35.2 91.4-82.1 101.3-3.2 49.8 43.3 54 43.3 54 47.8 0 47.8-36.6 47.5-42.3-7.8-3.5-13-9.3-13-15.9 0-10.8 13.5-19.5 30.2-19.5s30.2 8.7 30.2 19.4c0 6.6-5.2 12.4-13 15.9-0.3 5.8-0.4 42.4 47.5 42.4 0 0 46.5-4.2 43.3-54-47-9.9-82.2-51.5-82.2-101.3 0-57.2 46.4-103.5 103.5-103.5s103.6 46.3 103.6 103.5-46.4 103.5-103.5 103.5z"
          fill="#D81E06" />
</svg>